<svg width="561" height="561" viewBox="0 0 561 561" fill="none" xmlns="http://www.w3.org/2000/svg">
<g clip-path="url(#clip0_201_34)">
<rect width="561" height="561" fill="url(#paint0_linear_201_34)"/>
<circle cx="281" cy="354" r="179" fill="url(#paint1_linear_201_34)"/>
<path d="M200.5 517L127 524L157.238 451.807C172.817 414.613 226.921 419.211 236 458.5L200.5 517Z" fill="url(#paint2_linear_201_34)"/>
<path d="M149.975 439.14L206 561H-11L35.7986 461.928C43.4357 445.76 59.7127 435.447 77.5934 435.447H83.2649C90.3846 435.447 97.2801 432.958 102.758 428.409C118.196 415.591 141.593 420.908 149.975 439.14Z" fill="url(#paint3_linear_201_34)"/>
<path d="M520.94 415.351L584 493L360 480L368.238 456.629C376.036 434.507 396.941 419.71 420.398 419.71H423.179C434.284 419.71 445.039 415.827 453.584 408.734C473.966 391.814 504.24 394.788 520.94 415.351Z" fill="url(#paint4_linear_201_34)"/>
<path d="M288.5 493H202L267.608 376.954C276.796 360.703 300.204 360.703 309.392 376.954L375 493H288.5Z" fill="url(#paint5_linear_201_34)"/>
<path d="M343 514H287L320.673 428.614C328.663 408.354 357.337 408.354 365.327 428.614L399 514H343Z" fill="url(#paint6_linear_201_34)"/>
<path d="M222.5 561H288L261.692 492.719C247.873 456.852 197.127 456.852 183.308 492.719L157 561H222.5Z" fill="url(#paint7_linear_201_34)"/>
<path d="M380.596 455.052L310.182 473.049C262.329 485.28 221.918 517.248 199 561H545L523.309 530.551C505.396 505.406 481.625 485.004 454.054 471.112L433.614 460.813C417.217 452.551 398.384 450.505 380.596 455.052Z" fill="url(#paint8_linear_201_34)"/>
<path d="M8.84939 509.545L39.8139 517.435C63.5502 523.483 83.6068 539.316 95 561H-77L-70.3705 551.723C-58.7378 535.444 -43.3151 522.243 -25.4359 513.262C-14.8283 507.934 -2.6537 506.614 8.84939 509.545Z" fill="url(#paint9_linear_201_34)"/>
<path d="M239.5 561H174C203.428 511.13 275.572 511.13 305 561H239.5Z" fill="url(#paint10_linear_201_34)"/>
<path d="M548 561H411L453.559 511.918C503.4 454.437 592.6 454.437 642.441 511.918L685 561H548Z" fill="url(#paint11_linear_201_34)"/>
<circle cx="27.5" cy="191.5" r="42.5" transform="rotate(180 27.5 191.5)" fill="url(#paint12_linear_201_34)"/>
<path d="M6 234H65V204.5C65 188.208 51.7924 175 35.5 175V175C19.2076 175 6 188.208 6 204.5V234Z" fill="url(#paint13_linear_201_34)"/>
<path d="M52 234H70C79.9411 234 88 225.941 88 216V216C88 206.059 79.9411 198 70 198V198C60.0589 198 52 206.059 52 216V234Z" fill="url(#paint14_linear_201_34)"/>
<path d="M6 234H-19C-32.8071 234 -44 222.807 -44 209V209C-44 195.193 -32.8071 184 -19 184V184C-5.19288 184 6 195.193 6 209V234Z" fill="url(#paint15_linear_201_34)"/>
<circle cx="25.4356" cy="25.4356" r="25.4356" transform="matrix(1 0 0 -1 407.773 183.871)" fill="url(#paint16_linear_201_34)"/>
<path d="M446.076 183.871H410.765V166.216C410.765 156.465 418.67 148.561 428.42 148.561V148.561C438.171 148.561 446.076 156.465 446.076 166.216V183.871Z" fill="url(#paint17_linear_201_34)"/>
<path d="M418.545 183.871H407.773C401.823 183.871 397 179.048 397 173.098V173.098C397 167.149 401.823 162.326 407.773 162.326V162.326C413.722 162.326 418.545 167.149 418.545 173.098V183.871Z" fill="url(#paint18_linear_201_34)"/>
<path d="M446.076 183.871H461.038C469.301 183.871 476 177.172 476 168.909V168.909C476 160.646 469.301 153.947 461.038 153.947V153.947C452.774 153.947 446.076 160.646 446.076 168.909V183.871Z" fill="url(#paint19_linear_201_34)"/>
<path d="M105 372H178V335.5C178 315.342 161.658 299 141.5 299V299C121.342 299 105 315.342 105 335.5V372Z" fill="url(#paint20_linear_201_34)"/>
<circle cx="104.5" cy="329.5" r="42.5" transform="rotate(180 104.5 329.5)" fill="url(#paint21_linear_201_34)"/>
<path d="M101 372H160V342.5C160 326.208 146.792 313 130.5 313V313C114.208 313 101 326.208 101 342.5V372Z" fill="url(#paint22_linear_201_34)"/>
<path d="M160 372H178C187.941 372 196 363.941 196 354V354C196 344.059 187.941 336 178 336V336C168.059 336 160 344.059 160 354V372Z" fill="url(#paint23_linear_201_34)"/>
<path d="M88 372H66C53.8497 372 44 362.15 44 350V350C44 337.85 53.8497 328 66 328V328C78.1503 328 88 337.85 88 350V372Z" fill="url(#paint24_linear_201_34)"/>
<path d="M80 372H116V354C116 344.059 107.941 336 98 336V336C88.0589 336 80 344.059 80 354V372Z" fill="url(#paint25_linear_201_34)"/>
<path d="M283.158 121.895H194.789V77.7105C194.789 53.3082 214.571 33.5263 238.974 33.5263V33.5263C263.376 33.5263 283.158 53.3082 283.158 77.7105V121.895Z" fill="url(#paint26_linear_201_34)"/>
<circle cx="51.4474" cy="51.4474" r="51.4474" transform="matrix(1 0 0 -1 232.316 121.895)" fill="url(#paint27_linear_201_34)"/>
<path d="M288 121.895H216.579V86.1842C216.579 66.4618 232.567 50.4737 252.289 50.4737V50.4737C272.012 50.4737 288 66.4618 288 86.1842V121.895Z" fill="url(#paint28_linear_201_34)"/>
<path d="M216.579 121.895H194.79C182.756 121.895 173 112.139 173 100.105V100.105C173 88.0712 182.756 78.3158 194.79 78.3158V78.3158C206.824 78.3158 216.579 88.0712 216.579 100.105V121.895Z" fill="url(#paint29_linear_201_34)"/>
<path d="M303.737 121.895H330.368C345.077 121.895 357 109.971 357 95.2631V95.2631C357 80.5549 345.077 68.6316 330.368 68.6316V68.6316C315.66 68.6316 303.737 80.5549 303.737 95.2631V121.895Z" fill="url(#paint30_linear_201_34)"/>
<path d="M313.421 121.895H269.842V100.105C269.842 88.0712 279.597 78.3158 291.631 78.3158V78.3158C303.665 78.3158 313.421 88.0712 313.421 100.105V121.895Z" fill="url(#paint31_linear_201_34)"/>
<circle cx="525.5" cy="270.5" r="42.5" transform="rotate(180 525.5 270.5)" fill="url(#paint32_linear_201_34)"/>
<path d="M522 313H581V283.5C581 267.208 567.792 254 551.5 254V254C535.208 254 522 267.208 522 283.5V313Z" fill="url(#paint33_linear_201_34)"/>
<path d="M509 313H487C474.85 313 465 303.15 465 291V291C465 278.85 474.85 269 487 269V269C499.15 269 509 278.85 509 291V313Z" fill="url(#paint34_linear_201_34)"/>
<path d="M501 313H537V295C537 285.059 528.941 277 519 277V277C509.059 277 501 285.059 501 295V313Z" fill="url(#paint35_linear_201_34)"/>
</g>
<defs>
<linearGradient id="paint0_linear_201_34" x1="280.5" y1="0" x2="280.5" y2="561" gradientUnits="userSpaceOnUse">
<stop stop-color="#C1C1C1"/>
<stop offset="1" stop-color="#B8F2FF"/>
</linearGradient>
<linearGradient id="paint1_linear_201_34" x1="281" y1="175" x2="281" y2="533" gradientUnits="userSpaceOnUse">
<stop stop-color="white"/>
<stop offset="1" stop-color="#FFF61B"/>
</linearGradient>
<linearGradient id="paint2_linear_201_34" x1="216.182" y1="333" x2="86.7344" y2="456.657" gradientUnits="userSpaceOnUse">
<stop stop-color="#9EFF00"/>
<stop offset="1" stop-color="#2EA7DB"/>
</linearGradient>
<linearGradient id="paint3_linear_201_34" x1="28.4545" y1="403" x2="106.872" y2="583.279" gradientUnits="userSpaceOnUse">
<stop stop-color="#9EFF00"/>
<stop offset="1" stop-color="#2EA7DB"/>
</linearGradient>
<linearGradient id="paint4_linear_201_34" x1="400.727" y1="378" x2="444.471" y2="520.626" gradientUnits="userSpaceOnUse">
<stop stop-color="#9EFF00"/>
<stop offset="1" stop-color="#2EA7DB"/>
</linearGradient>
<linearGradient id="paint5_linear_201_34" x1="343.545" y1="340" x2="257.796" y2="502.3" gradientUnits="userSpaceOnUse">
<stop stop-color="#9EFF00"/>
<stop offset="1" stop-color="#2EA7DB"/>
</linearGradient>
<linearGradient id="paint6_linear_201_34" x1="378.636" y1="372" x2="285.9" y2="494.438" gradientUnits="userSpaceOnUse">
<stop stop-color="#9EFF00"/>
<stop offset="1" stop-color="#2EA7DB"/>
</linearGradient>
<linearGradient id="paint7_linear_201_34" x1="180.818" y1="391" x2="292.515" y2="535.078" gradientUnits="userSpaceOnUse">
<stop stop-color="#9EFF00"/>
<stop offset="1" stop-color="#2EA7DB"/>
</linearGradient>
<linearGradient id="paint8_linear_201_34" x1="482.091" y1="448" x2="453.273" y2="595.706" gradientUnits="userSpaceOnUse">
<stop stop-color="#9EFF00"/>
<stop offset="1" stop-color="#2EA7DB"/>
</linearGradient>
<linearGradient id="paint9_linear_201_34" x1="-45.7273" y1="505" x2="-31.4865" y2="578.216" gradientUnits="userSpaceOnUse">
<stop stop-color="#9EFF00"/>
<stop offset="1" stop-color="#2EA7DB"/>
</linearGradient>
<linearGradient id="paint10_linear_201_34" x1="281.182" y1="450" x2="220.492" y2="569.894" gradientUnits="userSpaceOnUse">
<stop stop-color="#9EFF00"/>
<stop offset="1" stop-color="#2EA7DB"/>
</linearGradient>
<linearGradient id="paint11_linear_201_34" x1="635.182" y1="403" x2="569.162" y2="594.646" gradientUnits="userSpaceOnUse">
<stop stop-color="#9EFF00"/>
<stop offset="1" stop-color="#2EA7DB"/>
</linearGradient>
<linearGradient id="paint12_linear_201_34" x1="27.5" y1="149" x2="27.5" y2="234" gradientUnits="userSpaceOnUse">
<stop stop-color="#C1C1C1"/>
<stop offset="1" stop-color="#B8F2FF"/>
</linearGradient>
<linearGradient id="paint13_linear_201_34" x1="35.5" y1="234" x2="35.5" y2="175" gradientUnits="userSpaceOnUse">
<stop stop-color="#C1C1C1"/>
<stop offset="1" stop-color="#B8F2FF"/>
</linearGradient>
<linearGradient id="paint14_linear_201_34" x1="70" y1="234" x2="70" y2="198" gradientUnits="userSpaceOnUse">
<stop stop-color="#C1C1C1"/>
<stop offset="1" stop-color="#B8F2FF"/>
</linearGradient>
<linearGradient id="paint15_linear_201_34" x1="-19" y1="234" x2="-19" y2="184" gradientUnits="userSpaceOnUse">
<stop stop-color="#C1C1C1"/>
<stop offset="1" stop-color="#B8F2FF"/>
</linearGradient>
<linearGradient id="paint16_linear_201_34" x1="25.4356" y1="0" x2="25.4356" y2="50.8712" gradientUnits="userSpaceOnUse">
<stop stop-color="#C1C1C1"/>
<stop offset="1" stop-color="#B8F2FF"/>
</linearGradient>
<linearGradient id="paint17_linear_201_34" x1="428.42" y1="183.871" x2="428.42" y2="148.561" gradientUnits="userSpaceOnUse">
<stop stop-color="#C1C1C1"/>
<stop offset="1" stop-color="#B8F2FF"/>
</linearGradient>
<linearGradient id="paint18_linear_201_34" x1="407.773" y1="183.871" x2="407.773" y2="162.326" gradientUnits="userSpaceOnUse">
<stop stop-color="#C1C1C1"/>
<stop offset="1" stop-color="#B8F2FF"/>
</linearGradient>
<linearGradient id="paint19_linear_201_34" x1="461.038" y1="183.871" x2="461.038" y2="153.947" gradientUnits="userSpaceOnUse">
<stop stop-color="#C1C1C1"/>
<stop offset="1" stop-color="#B8F2FF"/>
</linearGradient>
<linearGradient id="paint20_linear_201_34" x1="141.5" y1="372" x2="141.5" y2="299" gradientUnits="userSpaceOnUse">
<stop stop-color="#C1C1C1"/>
<stop offset="1" stop-color="#B8F2FF"/>
</linearGradient>
<linearGradient id="paint21_linear_201_34" x1="104.5" y1="287" x2="104.5" y2="372" gradientUnits="userSpaceOnUse">
<stop stop-color="#C1C1C1"/>
<stop offset="1" stop-color="#B8F2FF"/>
</linearGradient>
<linearGradient id="paint22_linear_201_34" x1="130.5" y1="372" x2="130.5" y2="313" gradientUnits="userSpaceOnUse">
<stop stop-color="#C1C1C1"/>
<stop offset="1" stop-color="#B8F2FF"/>
</linearGradient>
<linearGradient id="paint23_linear_201_34" x1="178" y1="372" x2="178" y2="336" gradientUnits="userSpaceOnUse">
<stop stop-color="#C1C1C1"/>
<stop offset="1" stop-color="#B8F2FF"/>
</linearGradient>
<linearGradient id="paint24_linear_201_34" x1="66" y1="372" x2="66" y2="328" gradientUnits="userSpaceOnUse">
<stop stop-color="#C1C1C1"/>
<stop offset="1" stop-color="#B8F2FF"/>
</linearGradient>
<linearGradient id="paint25_linear_201_34" x1="98" y1="372" x2="98" y2="336" gradientUnits="userSpaceOnUse">
<stop stop-color="#C1C1C1"/>
<stop offset="1" stop-color="#B8F2FF"/>
</linearGradient>
<linearGradient id="paint26_linear_201_34" x1="238.974" y1="121.895" x2="238.974" y2="33.5263" gradientUnits="userSpaceOnUse">
<stop stop-color="#C1C1C1"/>
<stop offset="1" stop-color="#B8F2FF"/>
</linearGradient>
<linearGradient id="paint27_linear_201_34" x1="51.4474" y1="0" x2="51.4474" y2="102.895" gradientUnits="userSpaceOnUse">
<stop stop-color="#C1C1C1"/>
<stop offset="1" stop-color="#B8F2FF"/>
</linearGradient>
<linearGradient id="paint28_linear_201_34" x1="252.289" y1="121.895" x2="252.289" y2="50.4737" gradientUnits="userSpaceOnUse">
<stop stop-color="#C1C1C1"/>
<stop offset="1" stop-color="#B8F2FF"/>
</linearGradient>
<linearGradient id="paint29_linear_201_34" x1="194.79" y1="121.895" x2="194.79" y2="78.3158" gradientUnits="userSpaceOnUse">
<stop stop-color="#C1C1C1"/>
<stop offset="1" stop-color="#B8F2FF"/>
</linearGradient>
<linearGradient id="paint30_linear_201_34" x1="330.368" y1="121.895" x2="330.368" y2="68.6316" gradientUnits="userSpaceOnUse">
<stop stop-color="#C1C1C1"/>
<stop offset="1" stop-color="#B8F2FF"/>
</linearGradient>
<linearGradient id="paint31_linear_201_34" x1="291.631" y1="121.895" x2="291.631" y2="78.3158" gradientUnits="userSpaceOnUse">
<stop stop-color="#C1C1C1"/>
<stop offset="1" stop-color="#B8F2FF"/>
</linearGradient>
<linearGradient id="paint32_linear_201_34" x1="525.5" y1="228" x2="525.5" y2="313" gradientUnits="userSpaceOnUse">
<stop stop-color="#C1C1C1"/>
<stop offset="1" stop-color="#B8F2FF"/>
</linearGradient>
<linearGradient id="paint33_linear_201_34" x1="551.5" y1="313" x2="551.5" y2="254" gradientUnits="userSpaceOnUse">
<stop stop-color="#C1C1C1"/>
<stop offset="1" stop-color="#B8F2FF"/>
</linearGradient>
<linearGradient id="paint34_linear_201_34" x1="487" y1="313" x2="487" y2="269" gradientUnits="userSpaceOnUse">
<stop stop-color="#C1C1C1"/>
<stop offset="1" stop-color="#B8F2FF"/>
</linearGradient>
<linearGradient id="paint35_linear_201_34" x1="519" y1="313" x2="519" y2="277" gradientUnits="userSpaceOnUse">
<stop stop-color="#C1C1C1"/>
<stop offset="1" stop-color="#B8F2FF"/>
</linearGradient>
<clipPath id="clip0_201_34">
<rect width="561" height="561" fill="white"/>
</clipPath>
</defs>
</svg>
