<?xml version="1.0" encoding="UTF-8"?>
<svg xmlns="http://www.w3.org/2000/svg" version="1.1" viewBox="0 0 3000 3000">
  <!-- Generator: Adobe Illustrator 28.7.1, SVG Export Plug-In . SVG Version: 1.2.0 Build 142)  -->
  <g>
    <g id="Layer_3">
      <rect x="0" y="0" width="3000" height="3000" fill="#fcc77e"/>
      <rect x="0" y="2350.14" width="3000" height="649.86" fill="#ffdc89"/>
      <path d="M1672.04,837.18s332.36-149.87,415.29-106.48c0,0-129.21-222.51-275.44-89.88-97.42,88.36-139.85,196.36-139.85,196.36Z" fill="#3bad39"/>
      <path d="M1064.47,431.99c-2.85-.28-5.72-.54-8.62-.78,0,0,26.84,390.37,386.6,427.58,0,0,27.65-387.4-377.98-426.8Z" fill="#3bad39"/>
      <path d="M1234.66,612.84c127.38,105.74,231.28,241.33,301.72,391.47,49.74,106.15,83.21,219.76,100.31,335.8,2.92,19.82,5.47,41.16,7.48,61.13,12.28,106.11,2.99,227.96-4.26,334.72-6.32-27.59-31.18-129.07-35.81-154.26-49.99-252.67-84.56-720.63,192.06-852.74,38.5-18.04,80.68-27.73,122.98-30.55-5.54.98-11.09,1.82-16.59,3-27.39,5.35-54.31,13.53-79.72,25.02-170.72,75.81-213.76,280.88-219.21,450.28-4.08,138.85,11.77,278.1,40.01,413.97,0,0,1.79,8.08,1.79,8.08l1.83,7.9s-36.4,3.17-36.4,3.17c7.25-113.88.15-228.78-21.6-340.81-49.3-253.2-171.45-475.09-354.59-656.16h0Z" fill="#2c822b"/>
      <path d="M1197.29,2059.57c-76.91-46.27-113.12-136.11-90-216,18.88-65.24,74.85-115.26,144.4-130.26-10.57-61.29,20.42-121.8,74.18-147.46,59.24-28.28,133.33-8.12,171.96,49,37.23-123.1,160.04-194.71,272.89-169.85,94.37,20.79,167.99,106,178.07,210.55,30.75-25.86,74.15-26.82,102.22-4.84,33.55,26.27,39.69,80.97,7.71,118.21,12.17,2.54,46.69,11.42,64.29,41.22,19.8,33.54,5.97,72.96,0,90-37.75,107.66-254.94,174.3-378,205.71l-496.29,82.29h0l-51.43-128.57Z" fill="#8c4000"/>
      <path d="M1622.39,2336.68c-10.21,3.16-19.73,7.69-28.59,13.46-141.94,92.2-115.67,499.52-100.71,649.86h-746.11c45.8-115.96,166.13-417.82,268.69-649.86,54.82-124.02,104.56-228.09,135.13-273.17,102.85-151.72,432-329.15,578.57-306,146.57,23.14-153.49,118.28-162.89,180-9.4,61.71,369.49,36.52,488.62-65.31,119.12-101.84,155.12-110.84,184.7-78.69,29.57,32.14-73.29,147.85-73.29,147.85,0,0,77.14-60.43,100.29-19.28,23.14,41.14-432.54,335.57-644.41,401.14Z" fill="#f6936c"/>
      <path d="M1435.34,1667.24l-4.89-3.48c.5-.7,12.46-17.33,36.03-30.88,21.28-12.24,56.28-24.01,103.1-11.59,1.92-7.09,7.72-25.17,20.87-42.69,15.31-20.42,43.79-43.68,92.51-38.55l-.63,5.97c-36.79-3.87-66.05,8.24-86.96,36.02-15.75,20.92-20.64,43.36-20.68,43.59l-.67,3.14-3.09-.88c-37.08-10.54-71.14-7.15-101.23,10.07-22.51,12.88-34.24,29.12-34.36,29.29Z" fill="#603813"/>
      <path d="M1882.3,1620.81c-5.45-16.36-13.93-26.68-25.18-30.67-18.78-6.66-39.58,6.4-39.78,6.53l-3.24-5.05c.95-.61,23.42-14.76,44.99-7.15,13.11,4.63,22.83,16.22,28.91,34.44l-5.69,1.9Z" fill="#603813"/>
      <path d="M1976.05,1710.37c-2.46-14.03-8.39-23.96-17.63-29.52-16.38-9.85-38.13-2.93-38.34-2.86l-1.87-5.7c.99-.33,24.5-7.85,43.27,3.4,10.82,6.49,17.72,17.81,20.49,33.65l-5.91,1.03Z" fill="#603813"/>
      <path d="M1237.5,1827.82l-5.68-1.92c.24-.72,6.09-17.75,18.83-32.8,17.23-20.36,38.67-27.01,62.01-19.23l-1.9,5.69c-21.07-7.02-39.72-1.2-55.44,17.29-12.04,14.17-17.77,30.8-17.82,30.96Z" fill="#603813"/>
      <path d="M1247.79,1736.57l-5.88-1.21c.05-.27,5.53-25.6,28.21-27.72-.07-7.02.26-25.34,4.78-44.67,7.64-32.69,23.74-52.17,46.56-56.35l1.08,5.9c-49.57,9.07-46.39,96.96-46.35,97.85l.13,3.13h-3.13c-20.33,0-25.2,22.13-25.39,23.07Z" fill="#603813"/>
      <path d="M1179.37,1951.32l-5.95-.79c.19-1.4,4.86-34.51,29.36-50.56,13.89-9.1,31.25-10.77,51.58-4.96l-1.65,5.77c-18.58-5.31-34.28-3.89-46.65,4.21-22.23,14.56-26.66,46.02-26.7,46.34Z" fill="#603813"/>
      <path d="M1860.24,1843.14l-4.2-4.28c1.06-1.04,26.32-25.47,54.6-22.97,14.23,1.26,26.59,9.12,36.73,23.37l-4.89,3.48c-9.07-12.74-19.95-19.76-32.34-20.87-25.51-2.28-49.66,21.04-49.9,21.27Z" fill="#603813"/>
      <path d="M1397.86,1753.57c-11.58,0-11.6,18,0,18s11.6-18,0-18Z" fill="#603813"/>
      <path d="M1367,1658.43c-11.58,0-11.6,18,0,18s11.6-18,0-18Z" fill="#603813"/>
      <path d="M1597.14,1695.71c-11.58,0-11.6,18,0,18s11.6-18,0-18Z" fill="#603813"/>
      <path d="M1833.07,1697c-11.58,0-11.6,18,0,18s11.6-18,0-18Z" fill="#603813"/>
      <path d="M1771.36,1886c-11.58,0-11.6,18,0,18s11.6-18,0-18Z" fill="#603813"/>
      <path d="M2054.86,2101.64c-2.78,0-5.48-1.45-6.95-4.03-2.19-3.84-.86-8.72,2.98-10.92,26.29-15.02,84.89-99.97,105.25-131.44,2.4-3.71,7.35-4.77,11.06-2.37,3.71,2.4,4.77,7.35,2.37,11.06-3.08,4.75-75.71,116.61-110.75,136.64-1.25.72-2.62,1.06-3.96,1.06Z" fill="#b96e51"/>
      <path d="M1660.46,1773.69s1.82,25.74,8.25,33.46,60-12.86,66.43-24.43-57.64-18.06-74.68-9.03Z" fill="#b96e51"/>
    </g>
  </g>
</svg>