<?xml version="1.0" encoding="UTF-8"?>
<svg xmlns="http://www.w3.org/2000/svg" version="1.1" viewBox="0 0 2000 2000">
  <defs>
    <style>
      .cls-1 {
        fill: #fbde5d;
      }

      .cls-2 {
        fill: #e04129;
      }

      .cls-3 {
        fill: #fbde5e;
      }

      .cls-4 {
        fill: #95dc70;
      }

      .cls-5 {
        fill: #fcdf5e;
      }

      .cls-6 {
        fill: #dbab44;
      }

      .cls-7 {
        fill: #deba4f;
      }

      .cls-8 {
        fill: #fbdf5e;
      }

      .cls-9 {
        fill: #4c872f;
      }

      .cls-10 {
        fill: #dfdb66;
      }

      .cls-11 {
        fill: #95df70;
      }

      .cls-12 {
        fill: #95f9ff;
      }

      .cls-13 {
        fill: #fff;
      }

      .cls-14 {
        fill: #cae79f;
      }

      .cls-15 {
        fill: #daf9ac;
      }

      .cls-16 {
        fill: #ffb239;
      }

      .cls-17 {
        fill: #edd658;
      }

      .cls-18 {
        fill: #d8ae45;
      }

      .cls-19 {
        fill: #8fcc33;
      }

      .cls-20 {
        fill: #aad260;
      }

      .cls-21 {
        fill: #db4b2e;
      }

      .cls-22 {
        fill: #8acb2a;
      }

      .cls-23 {
        fill: #8acb2f;
      }

      .cls-24 {
        fill: #fcde5e;
      }

      .cls-25 {
        fill: #ffb238;
      }

      .cls-26 {
        fill: #fbdd5d;
      }
    </style>
  </defs>
  <!-- Generator: Adobe Illustrator 28.6.0, SVG Export Plug-In . SVG Version: 1.2.0 Build 709)  -->
  <g>
    <g id="Layer_1">
      <rect class="cls-15" width="2000" height="2000"/>
      <g>
        <path class="cls-5" d="M371.1,1473.6c-.2-1.7-1.1-3-1.9-4.5-11.4-22.3-21.7-45.1-30.7-68.5-8.5-22-15.1-44.7-20.1-67.7-2-9-3.6-18.2-5.5-27.2-.9-4.5-.1-9.1-1.2-13.6-.6-2.4,1.9-3.1,3.6-4,2.8-1.2,4.6.8,6.5,2.2,9.7,7.7,19.3,15.6,30.7,20.6,16.5,7.3,32.7,15.3,49.5,21.9,22.1,8.6,45.3,12.9,68.6,16.9,12.5,2.1,25,4.1,37.6,6,1.5.2,2.9.2,4.4.2,18,2.7,36,4.4,54.1,6.4,21.2,2.4,42.7,3,63.7,7,11,.6,21.7,3.6,32.9,3.8,9.4.2,18.7,1.8,28,3.4,13.6,1.8,27.1,4.5,40.9,5.4,2.3.1,4.4,1.1,6.7,1.2,15.9-.4,31.7-.6,47.5.1,1.7,0,3.2,0,4.8-.3,6.4-1.4,12.8-1.3,19.3-.1,9.9.4,19.8,0,29.6-1.3,8.2-1.1,16.5-1.7,24.8-1.6,8.2.2,13.7,3.8,17.3,11.2,5.3,11,7.6,22.7,8.5,34.8,1.3,17.8,3.2,35.6,3.6,53.4.3,13.5,2,26.9,2.2,40.4,0,5.2,1.8,10.3.9,15.5.4,8.4,1.9,16.8,2.8,25.1.5,4.4,1,8.7,1.2,13.1.7,11,2.2,21.9,3.6,32.9,1,8.2,1.9,16.4,2.6,24.7.9,10.4.6,20.8.7,31.2,0,4.2-.6,8.4-2,12.5-1.3,4-3.2,6.7-8.3,7.5-5.5.8-10.6,3.9-15.9,6-22.6,9-45.8,15.7-69.9,19.2-6.6,1-13.2,1.5-19.8,2-6.2.5-12.3,1.1-18.5.6-13.3-.9-26.6-1.1-39.8-2.5-11.5-1.1-22.9-2.4-34.3-4.2-11.1-1.7-22.1-3.5-33.2-5.3-27-4.4-53.3-11.5-79.8-18.3-14.6-3.8-29.3-7.3-43.6-12.3.5-1.5,2.4-1.6,3.1-2.9-1.4-1.8-3.3-1.5-5-1.8-12.8-2.6-25.1-6.5-37.6-10.2-1.9-.6-3.7-1.2-5.2-2.5-1.1-1.4-2.6-2.6-4.1-3.4-20.3-11.3-34.8-28.6-48.7-46.5-16.7-21.6-29.9-45.3-43.7-68.8-3-5-6.2-9.9-8.5-15.4-1.9-15.2-9.5-27.3-20.1-38-1.1-1.1-2.3-2.3-2.2-4.2Z"/>
        <path class="cls-5" d="M1637.8,1421.7c-3.2,5.3-6.2,10.7-9.5,15.9-14.1,22.4-29.1,44.1-45.9,64.7-15,18.4-32.2,34.8-48.9,51.5-3.5,3.4-7.7,5.9-11.6,8.8-2,1.6-3.7.2-5.5-.4-2.5-2.4-2.2-5.5-1.6-8.3,4.7-23.9-1.4-47.2-4.4-70.6-3.9-31.5-15.3-60.7-27.8-89.5-4.9-11.2-10-22.2-14.8-33.4-12.9-28.6-27.4-56.4-42.1-84.2-4.4-8.3-8.4-16.9-12.1-25.6-2.8-5.5-4.5-11.5-7.7-16.8-8.2-17.7-17.8-34.7-25.7-52.5-1-2.2-2.1-4.4-2.9-6.7-7.1-17-18.2-31.9-26.3-48.4-6.1-12.5-13.9-23.7-22.8-34.5-10-12.1-17.8-26.1-28.1-38-1.6-1.8-2.9-4-3.8-6.3-2.6-6.4-2.8-12.4,2.3-18.1,4.4-5,9.3-9.6,13.5-14.8,1.1-1.4,2.5-2.6,4.6-2.1,4.5,8.4,8.7,16.9,14.4,24.5,1.1,1.5.6,3.8.7,5.7.6,9.7,4.5,17.6,12.7,23,2.8,1.9,4.8,4.3,6.4,7.2,7.2,13.7,26,15,37.5,6.8,4.7-3.4,6.9-8.3,6.1-14.1-.7-5.2.9-9.4,3.9-13.6,6.1-8.5,9.4-18.1,10-28.6.1-2.7.9-5.1,2.5-7.3,4.5-6.1,5.8-13,5.2-20.3-.9-10-2.5-19.7-9.5-27.6-3.7-4.1-7.9-7.3-13.3-8.6-1.6-.4-3.2-.8-4.4-2-1.3-1.9,0-3.2,1.3-4.1,8.9-6.8,18.2-13.1,26.4-20.7.3-.3.9-.3,1.4-.3,12.8-11.2,26.9-21,40-31.9,9.2-7.7,18.3-15.6,27.9-22.8,9.4-7,19.3-13.3,29.4-19.1,3.7-2.1,7.7-3.5,12.1-3.3,1.7,0,3.5.3,4.4,1.7,2.9,4.2,7.4,6.3,11.3,9.1,20.2,14.1,38.7,30.2,55.3,48.4,11.9,13,21.8,27.5,30.6,42.7,7.7,13.6,15.4,27.2,22.1,41.3,8.3,17.5,15.9,35.3,23.3,53.1,7.9,18.9,14.3,38.4,20.8,57.8.2.6.3,1.3.4,1.9,1.4,2.6-.2,4.7-1.3,6.9-18.3,36.1-26.6,74.9-30.4,114.8,0,.3,0,.7,0,1-.3,2.4-.4,5.4-3,6.2-2.7.8-4.3-1.7-5.9-3.6-3-3.5-5.9-6.9-8.6-10.6-1.4-1.8-2.8-3.6-2.6-6.1.3-1.5.9-2.8,1.9-3.9,10.5-11.9,10.8-25.9,8.4-40.5-.8-5-1.9-9.9-2.8-14.8-4.2-23-18-39.2-36.4-52.1-7.1-5-10.1-4.4-14.7,2.8-13.3,20.6-20,42.9-16.1,67.6,2.4,14.9,9.9,27.1,21.7,36.4,7.7,6,16.7,7.7,26.2,6.9,2.6-.2,5.2-.6,7.7.3,5.7,4.3,8.8,10.8,13.8,15.6,8.1,7.9,10,17.2,8,28.1-1.2,6.7-.9,13.6-1,20.4-.2,11.4-1.2,22.7-1.4,34-.1,7.4-.1,14.9-1.9,22.2-3.1,2.4-4.4-.8-5.8-2.3-4.7-5-10.3-7.3-17-6.9-2,.1-3.9.5-5.7,1.2-4,1.5-7.2.8-10.1-2.4-3.1-3.5-6.9-5.9-11.7-6.5-9.6-1.2-18.1,3.3-20.3,12.8-2.2,9.4-6,15.6-14.8,20.9-13.5,8.2-11.6,25.3,2.7,32.5,5.5,2.8,7.3,6.2,7.4,12.1.4,15.8,14.5,23.4,28.3,15.7,3.8-2.1,6.8-5,9.4-8.4,2.5-3.2,5.5-4.5,9.4-2.7,3.3,1.5,7.2.5,10.4,2.4,1.9,3.8-1.3,6.7-1.7,10.1Z"/>
        <path class="cls-12" d="M1418,932.6c-5.7,7.4-13.5,12.3-20.9,17.8-2.8,2.1-5.9,4-8.3,6.6-6.1,3.9-12,2.2-14.3-4.4-2.4-7.1-5.9-13.3-11.6-18.2-8.1-6.9-17-9.3-27.1-4.9-3.8,1.7-6.3.9-8.8-2.3-4.5-5.9-9.9-10-17.9-7.4-7.2,2.4-11.8,9.4-12.2,18.2-.3,7.6,1.6,14.5,7.1,20.1,2.5,2.6,3.8,5.4,3.7,9.1-.2,7.3,2.3,13.8,7.7,18.8,3.8,3.6,5.3,7.6,3.8,12.7-.8,2.8-.8,5.8-.9,8.7,0,1.9,0,4-1.7,5.3-6.8,6.8-13.4,13.6-19.2,21.3-1.1,1.5-1.9,3.2-1.5,5,.9,3.9,1.2,8.1,4,11.3,13,15.2,22.6,32.9,35.9,47.9,5.9,6.7,10.2,14.1,14.1,22,5.3,10.8,11.2,21.2,17.7,31.4,4.5,7,7.9,14.5,11.1,22.1-1.2,1.7-3,1.7-4.8,1.7-6.2-.2-12.4,0-18.4,1.4-3.8.8-6.7-.2-8.9-3.4-3.8-5.5-9-9.4-15-12.1-3.4-1.5-5.7-4.1-7.4-7.4-5.7-11.1-13.2-20.9-22.9-28.8-3.9-3.1-6.8-7-8.4-11.7-4.8-14.1-12.8-25.8-24.6-34.9-3.2-2.5-6-5.5-8.6-8.6-6.8-8.5-15.7-12.4-26.4-12.3-5.8,0-10.9-.7-15.1-5.1-2.3-2.4-5.9-2.6-9-3.2-6-.4-9.1-4.3-11.6-9.1-1.9-3.6-3.8-7.2-4.7-11.2-3.7-15.5-7.3-31-6.8-47.2.3-9.4,3-18,10.1-24.1,16.7-14.3,27.8-33,41.4-49.7,5-6.2,6.9-12.9,5.4-20.9-1.3-7.4-2.3-14.8-3.7-22.1-.5-2.9-1.8-3.7-4.7-2.6-15.5,5.5-31.1,10.7-46.2,17.1-19.5,8.2-33.1,22-40.9,41.6-5.8,14.6-9,29.9-13.3,44.9-4.5,15.6-8.5,31.4-15.8,46.1-15.7,31.3-38.8,55.1-70.3,70.7-20.1,10-41.1,18-61,28.6-22.5,12-43.5,26.1-62.2,43.6-7.1,6.7-13.1,14.4-19.5,21.8-2.8,3.3-3.3,6.8-2.5,10.9,2.1,10.1,8.7,17.3,15.3,24.5,8.2,9,17.2,17.3,24.2,27.4,10,14.5,16.1,30.8,21.2,47.5,1.5,5,2.9,10,4.6,14.9.6,2.5-.1,4.8-1.1,7.1-4.3,10-2.6,17.8,5.5,25,.5.4,1,.8,1.5,1.3q6.2,5.1,2.2,12c-2.9,5.1-3.4,10.4-1.4,16,3.8,10.2,12.7,16.7,23.6,17.1,7.4.3,11.8,3.9,13.3,11.1,3.1,15.1,11.2,26.8,24,35.3,2.8,1.9,4.9,4.2,5.8,7.5,2.6,9.6,8.6,16.2,17.8,20,2.9,1.2,5.7,2.7,5.7,6.5-1.4,3.1-4.1,3.7-6.9,2.9-6.6-2-13-2.1-19.4,1.1-2.5,1.3-5.1.7-7.4-.8-9-5.6-18.3-6.1-28-2.2-3.2,1.3-6.4,1-9.3-1-15.5-17.4-28.3-36.8-39.7-57.1-16.7-29.7-31.7-60.4-50.1-89.2-8.5-13.3-17.5-26.2-27.1-38.7-2.7-4.7-5.8-9.2-9.9-12.9-.7-.9-1.1-2-1.9-2.8-1.8-2.1-2.8-5.2-5.2-6.2-3-1.3-3.9,2.8-6.2,3.7-.6.2-1.2.4-1.9.4-3.2-.7-5.7-3.1-9-3.6-9.8-1.7-19.2,3.5-22.8,13.4-1.8,5.2-4.4,9.1-8.9,12.3-4.4,3.1-6.5,8.1-8.2,13-1.2,3.6-3.1,5.8-6.8,7-8.3,2.6-14,8-16.6,16.4-.4,1.4-1,2.8-2.4,3.5-2.5.2-3.4-1.7-4-3.5-1.7-4.8-5.1-8.2-9.4-10.8-1.6-.9-3.2-2-3.5-3.9-1-5.1-3.1-9.9-4.2-14.9,6.9-8.6,14.2-16.9,22.1-24.6,5.7-5.6,9.8-12.6,16.8-16.9,1.7-.6,3.5-.7,5.3-.7,9.9,0,17.3-4.9,23.3-12.2,2.4-2.9,4.9-5.5,7.9-7.9,7-5.6,9.8-13.7,11.3-22,1-5.3-1.9-10.1-5.6-14-3-3.2-4.2-6.5-3.6-11,1.2-8.1-1.7-14.8-8.7-19.2-3.1-1.9-4.5-4.4-4.7-7.9-.4-6.2-1.7-12.2-5.4-17.5-1.5-2.1-1.8-4.4-1.2-7,1.9-7.9.3-15.1-4.9-21.5-2.1-2.5-3.1-5.3-2.5-8.6.7-3.4-1.2-6.3-2.1-9.4-.7-5.5-.1-11,.8-16.5.7-3.9,0-7.4-1.8-10.8-7.9-14.7-13.3-30.3-17.5-46.4-1.7-6.5-2.4-7-8.3-3.7-23.3,12.9-48.5,21.3-72.8,31.7-7.8,3.3-15.1,7.6-22.5,11.7-15,8.4-31,14.2-47.6,18.5-1.6.4-3.2.9-4.8,0-2.3-2.9-.8-5.7,1.4-7.1,8.1-5.1,14.2-12,19.6-19.7,8.8-3.4,17-7.8,25.4-12.1,11.6-6.1,23-12.7,35.6-16.5,2.5-.2,4.9.2,7.2.9,9.1,2.9,16.6-.3,23.3-6.1,2.8-2.4,5.7-4.7,9-6.6,4.9-2.7,9.9-4.2,15.6-4.6,10.8-.7,16-7.8,18.6-17.7.7-2.5-.5-4.8-2-6.8-2.2-2.7-2.6-5.4-1.2-8.6,1.9-4.2,2.9-8.6,2.8-13.2,0-3,1.2-5.7,2.3-8.4,1.8-4.3,2.4-8.7,2.5-13.3.1-6.2-2.2-11.1-7.3-14.6-3.6-2.4-5.6-5.6-6.9-9.6-2.9-8.7-6.7-16.9-12.6-24-1-1.3-2.1-2.7-2.1-4.3-.3-7.4-3.8-13.3-8.6-18.5-8.9-25.7-20.7-50.5-27.3-77-.5-1.9-1-3.8-1.3-5.7-2-12.6-4.6-24.8-13.3-34.9-2.9-3.4-4.5-7.9-5.5-12.4-.3-3.8,2.7-5.3,5.1-7.1,23.7-18,48.9-33.8,75.7-46.8,2.2-1.1,4.3-2.2,6.6-3.2,2-.8,4-1.5,6-.2,2.8,2.8,2.3,6.4,2,9.7-.7,9.7,1.9,18.6,5.7,27.4,3.2,7.4,8.6,13.2,14.2,18.5,20.5,19.4,30.1,44,35.6,70.8,4.5,22,6.9,44.3,8.2,66.8,1.3,22,4.6,43.6,11.6,64.6,4.4,13.1,8.9,26.2,13.2,39.3.7,2,1.2,4.1,1.5,6.1,0,.6.1,1.3-.1,1.9-3.3,8.1-.8,14.3,6.1,19.2.8.6,1.4,1.3,1.9,2.2,6.2,15.9,9.2,32.5,10.5,49.5,1.8,23.4-1.4,46.7-2.7,70-.5,8.2.5,16.5-.9,24.8,8-6.8,15.6-13.7,23.6-19.9,24.5-18.9,51.4-33.7,79.7-46.1,13.4-5.9,27-11.4,39.6-19,27.6-16.8,46.8-40.5,57.4-71,6.5-18.6,10.9-37.8,16.3-56.8,3.5-12.4,8-24.4,15.1-35.3,1.4-2.2,1.6-4.2,1.1-6.9-3-15.4-4.7-30.9,1.5-46,1.6-3.9,2.5-8.1,4.1-12,4.5-11.2,4.4-22.9,3.3-34.6-.5-4.7-.8-9.4-1.3-14.1-.3-2.4-.4-4.9,1.2-7,3.5-1.1,4.9,1.1,6.1,3.7,0,.6-.2-.1,0,.5,3.7,9.2,2.7,18.7,2.5,28.4-.1,6.7,1.7,13.7,1.7,20.6,0,4.3,3.5,7.6,4.6,11.7,0,4.2-2,7.8-3.1,11.7-1.6,6-3.3,11.9-2.4,18.2.3,2.3,1.1,3.6,3.7,1.8,14.7-9.9,31.1-16.1,47.7-21.9,7.4-2.6,14.8-4.8,22-7.8,3.2-1.3,4.6-3.1,3.9-6.6-1.2-6.2-1.1-12.6-1.8-18.9-.4-3.5-1-7.1,1-10.5,1.5-1.4,3.3-1.2,5.1-1,16.7,1.1,33-12.8,34.2-29.4.5-6.6-1.8-12.7-7.5-16.5-4.5-3.1-6.5-7.1-6.7-12.3-.1-5.3-2.6-10.1-2.9-15.3,1.4-3.4,3.4-6.4,6.4-8.8,3-1,4.9,1,6.9,2.6,8.3,6.5,16.5,13.1,24.3,20.3,4.1,3.6,8,7.4,12.1,11,25.8,24.7,48.5,52,68,81.9,4.6,7.1,9.1,14.3,13.3,21.6,1.3,2.3,3.1,4.6,2.6,7.7,4.3,8.6,8.7,17.1,12.8,25.8,6.2,12.9,11.5,26.2,16.5,39.6Z"/>
        <path class="cls-5" d="M798.1,672.8c-3.3,0-5.8,1.9-8.5,3.2-28.9,14-56.1,30.8-81.5,50.5-.9.7-1.9,1.3-2,2.6,0,2.1-1.7,3.1-3,4.2-11.9,9.5-22.9,20-34.2,30.2-1.3,1.2-2.5,2.6-4.6,2.2-9.6-5.1-19.9-8.9-29.6-13.6-7-3.4-14.1-6.7-21.2-10-13.8-6.5-28.2-11.8-41.8-18.8-10.4-5.4-20.6-11.1-30.2-17.8-3.5-2.4-6.6-5.3-8.4-9.3-.6-1.4-1.3-2.8-.5-4.2,2.8-4.7,2.5-10,3.3-15.1,2.3-15.4,5.7-30.6,10-45.6,5.5-19.3,13-37.8,22.9-55.3.4-.7.4-1.5.7-2.3-.6-2.6,1.3-3.8,3-5.1,4.2-3.1,9-5.3,13.7-7.5,32.4-15,62.3-33.8,89.3-57,27.7-23.7,55.8-46.9,85.4-68.1,8-5.7,17.9-6.9,27.7-3.5,1.4,2.9.4,5.8-.2,8.6-1.9,10.2,1.8,18,9.8,24.2,7.1,5.5,14.9,9.1,23.5,11.4,14.5,3.8,29.1,6.8,43.7,9.9,8.9,1.9,18-.3,26.9-2.3,2.1-.5,3-1.8,2.5-4-1.2-5.4-2.3-10.7-5.8-15.3-3.9-5-7.4-10.3-10.4-15.9-4.7-8.8-11.8-15-20.3-19.7-3.7-2-7.4-4.1-11.2-5.9-18.3-8.4-35.6-6.4-52.3,4.4-.5.2-1,.4-1.5.4-.8,0-1.5,0-2.3-.1-3.2-.6-6.5.4-9.7,0-1.6-.2-3.5-.1-4-2.1-.4-1.6,1.1-2.6,2.3-3.4,5.4-3.6,10.9-7,16.5-10.3,32-18.9,65-35.3,100.3-47.3,7.2-2.5,14.6-4.6,21.9-6.7,1.6-.4,3.2-.7,4.8-.1,2.3,1.2,2.6,3.6,3.3,5.7,5.6,19,18.7,29.6,38.4,31.5,17,1.6,33.3-1.8,49.4-6.6,23.5-7.1,45.1-18.5,66.6-30.1,1.9-1,3.8-2.8,6.3-1.6,8.5,1.5,16.7,4,24.9,6.4,14.6,4.3,29,9.5,43.4,14.4,4.4,1.5,8.1,4.1,12.2,5.9,2.4,1,2.1,3.4,2.3,5.5-1.1,2.8-3.8,3.5-6.2,4.3-32.7,11.2-58.9,32.9-85.1,54.2-24.9,20.2-43.7,46.3-64,70.8-1,1.2-1.7,2.4-1.5,4-21.6,22.4-38,48.8-56.7,73.4-10.4,13.7-20.3,27.8-31.8,40.6-2.9,1.8-6.2,1.7-9.4,2.2-37.4,6.3-73.6,16.6-108.3,31.8-2.8,1.2-5.5,3.1-8.8,2Z"/>
        <path class="cls-6" d="M1012.6,522.6c-1.1-.3-3.1,0-1.4-2.2,3.7-4.7,7.4-9.4,11.2-14.1,6.3-7.6,12.7-15.2,19-22.8,2.1-2.5,4.2-5,6.4-7.3,7.7-8.3,15-17.1,23.5-24.6,12.2-10.7,25-20.6,38.5-29.6,4.3-2.9,8.5-6,12.7-9,10.8-7.6,22-14.3,34.7-18.5,4.3-1.4,8.4-3.4,12.6-5.1,20,8.2,38.2,19.3,54.1,34.2,7,6.6,14.1,13,21.3,19.4,13,11.5,23.8,24.9,33.7,39,5.6,8,12.9,13.3,22.4,15.3,9.1,1.9,16.1,7.2,23,13,8.9,7.5,16.3,16.3,22.7,25.9,7,10.4,13.3,21.2,19.7,31.9,9.5,15.9,17.6,32.6,27.3,48.3,2.7,4.4,4.9,9.2,7.3,13.8,6,11,12.4,21.7,18,32.9,3.3,6.7,7.1,13.2,10.4,19.9,4.8,9.8,9.8,19.5,13.7,29.6,4.5,11.7,6.8,24,5,36.8-1.3,9.4-8.9,12.4-16.4,8.8-1.2-.5-2.3-1.2-3.5-1.8-3.5,0-5.5-2.5-7.5-4.9-13.3-16.3-25.5-33.3-38.4-49.9-9.6-12.3-18.2-25.4-29.2-36.5-.9-.9-1.6-2-2-3.3-.3-.9-.7-1.5-1.7-.8-.8.7-1.3,1.4-.2,2.4,25.4,23.9,42.8,54.3,64.9,80.8,5.7,6.8,11.8,13.5,16.2,21.3,3.8,6.8,6.4,14.2,9.1,21.5,4.6,12,8.1,24.4,10.8,36.9,1.5,6.8,1.5,13.5-.5,20.2-.7,2.3-1.5,4.6-2.7,6.8-4,7.2-9.3,8.9-16.7,5.4-3.9-1.8-7.3-4.3-9.8-7.8-16.4-26.7-32.4-53.7-49.1-80.3-11.1-17.6-23-34.7-35.9-51.1-4-5-7-10.6-10.4-15.9-1.8-2.8-1.5-5.4.6-8-1.9,1.2-3.8,2.1-5.6,3.9,3.5,1.9,5.2,5.3,7,8.5,6,10.5,14,19.6,21.1,29.2,15.3,20.9,28.5,43.2,42.1,65.1,6.3,10.1,12.4,20.3,18.8,30.3,3.9,6.2,6.8,12.5,4.8,20.1,0,2.6-.6,5.1-1.3,7.6-2.6,9.2-9.7,13.1-19.1,10.6-1.7-.4-3.4-1-5.1-1.5-4.5-7.5-9-15-13.6-22.5-14.2-22.8-30.4-44-48.5-63.9-7.4-8.2-15.1-16.1-22.9-23.9-10-11.8-16.7-25.9-26.2-38-2.8-3.6-2.5-4.4,1.8-7.7-4.6,1-8.6,2-12.7,3.6,4.4-1.2,7.2,1.2,9.7,4,6.5,7.2,11.1,15.5,16,23.7.6,1,2.1,2.6-.3,3.5-7.7-6.3-15.4-12.7-23.2-19-2.1-1.7-4-3.9-6.9-4.3-4.2,0-6.7-3.4-9.8-5.5-2.1-1.4-4.1-2.9-6.4-4.1-3.2-2.4-6-5.2-6.5-9.4-1.9-17-13.5-26.8-26.6-35.2-10.4-6.7-21.7-9.1-33.9-4.7-3.9,1.4-6.7,4.7-10.7,5.5-5.8-1.8-11.6-3.3-16.5-7.3-3.4-9.3-3.2-19.2-4-28.8-1.1-14.7-4.2-28.5-13-40.7-14.7-20.2-32.9-36.3-54.5-48.7-19.6-11.3-40.5-18.3-63.1-19.9-1.6-.1-3.3-.1-4.4-1.6Z"/>
        <path class="cls-6" d="M1468.7,1359.3c3.8,5,5.6,11,8.1,16.6,7.1,15.8,14.1,31.7,20.2,48,6.9,18.3,12.3,36.9,14.8,56.3,1.5,11.7,3.7,23.3,5.4,35,1.6,11.3,2.2,22.6,0,33.9-.8,4.4-.4,8.7-.7,13.1-6.1,4.6-12.1,9.3-18.3,13.8-10.6,7.8-22.3,13.4-34.4,18.1-11.6,4.6-23.4,8.9-35.1,13.4-12.5,4.9-25.6,7.3-38.7,9.6-4,.7-8,1.4-12,2.3-5.6,1.3-10,4.6-14.1,8.4-3.4,3.1-5.8,7-9.4,9.9-6.6,5.3-14.7,7.6-22.3,10.8-10.2,4.3-21,5.4-31.8,6.8-13.5,1.8-27.1,2.4-40.8,3.2-8,.5-15.9.2-23.8.9-7.8.7-15.6.4-23.3,1.4-4.6.6-9.4.1-14.1.3-15.9.7-31.8,1-47.8,1.2-6.6,0-13.3,1.2-19.9.5-10.2-.9-20.5,0-30.6-1.7-9.2-1.6-18-4.4-26.3-8.7-2.3-1.2-4.5-2.7-6.4-4.5-5.1-5-5.2-10.8,0-15.7,1.8-1.7,3.9-3,5.8-4.4,1.3-2.7,3.9-3.2,6.4-3.8,23.6-5.4,47.5-8.9,71.2-13.7,11.9-2.4,24.1-3.6,35.6-7.8,1.8-.7,3.9.2,5.5-1.1,0-1.3-.8-1.5-1.6-1.1-12.3,6.2-25.9,7-39.1,9.7-25.6,5.2-51.4,9.1-76.9,14.9-4.5,1-9.3.9-13.9,1.8-16-1-32-2.7-47.7-6.1-6.3-1.4-12.7-2.6-18.7-5.3-6.5-3-11.8-7.4-15.7-13.4-3.7-5.8-2.6-11.7,2.9-15.9,3-2.3,6.3-4.1,9.9-5.1,9.7-2.3,19.7-1.6,29.5-2.7,13.4-1.5,26.8-2.4,40.2-3.6,11.3-1,22.6-1.9,33.9-3.1,18.2-1.9,36.3-4.8,54.2-8.4,6.1-1.2,12.2-1.4,18.3-2.2,2.5-.3,4.7.6,6.4,2.9.3-3.4-.1-4.2-3.6-3.8-20,2.3-39.6,6.8-59.5,9.5-17.5,2.4-35.1,4-52.7,5.4-16.8,1.3-33.5,3.5-50.4,4.2-2.4,0-4.9.4-6.8-1.7-5.1-2.2-9.6-5.4-13.4-9.3-5.9-6.1-6.3-12.8-1-19.5,1.2-1.5,2.5-2.9,3.8-4.4,1.2-1.9,3.2-2.1,5.2-2.1,16.6-.1,33-2.1,49.5-3.4,20.7-1.9,40.9-6.4,60.9-11.5,14.1-4.5,28.1-9.2,42.2-13.5,8.6-.2,17-1.6,25.4-3.3,4.9-1,5.5-.6,6.4,3.9,1.6-4.6,1.6-9.8,3.6-14.4,1.1-2.2,3.2-3.1,5.3-4.1,35.4-17.4,68-38.9,97.6-64.9,1.7-1.5,3.6-2.9,5.9-3.2,5.3.3,10,2.8,14.7,4.8,6.9,3,14.1,5,21.3,6.9,9.6,2.6,19.1.7,28.5-1.1,30.1-5.8,56.3-19.5,79.5-39.4,11.8-10.2,21.8-21.8,28.8-35.8.8-1.6,1.6-3.2,3.7-3.6Z"/>
        <path class="cls-6" d="M511.8,1357.4c-8.5-.1-16.8-1.9-25.1-3.2-14.1-2.3-28.2-4.6-42.2-7.4-18.7-3.8-36.9-9.1-54.3-16.9-14.1-6.3-28.3-12.4-42.1-19.2-8.7-4.2-16.3-10-23.7-16.1-2.9-2.4-5.5-5.1-9-6.5-2-13.1-2.4-26.2-1.8-39.4.5-10.1,2.5-20,4.7-29.8,3-13.1,5.1-26.5,8.6-39.5,2.5-9.3,6.5-18,10-27,1.5-3.8,3.1-7.5,4.5-11.3,2.1-5.5,1.7-11.2.8-16.8-.3-1.8-.7-3.5-1.3-5.2-2.8-7.8-2.1-15.6-.8-23.6,2.2-13.5,6.7-26.1,12.6-38.3,6.3-12.9,13.2-25.4,20.3-37.8,8.6-14.9,17-30,25.9-44.7,9.9-16.4,19.6-33,29.7-49.3,8.6-14,17.5-27.8,27.6-40.7,6.2-7.9,14.3-13.7,23-18.6,2.1-1.2,4.5-1.9,6.9-2.5,5.5-1.3,9.9,1.2,11.9,6.6,1.2,3.1,1,6.4,1.1,9.6,2.4,3.3.1,6.3-.9,9.2-7.8,20.8-16.5,41.4-24.9,62-5.7,14.1-11.7,28.2-15.9,42.9,1.7.6,1.8-.7,1.9-1.8.8-7.2,3.3-13.8,6-20.5,11.6-29.5,24.6-58.4,35.3-88.3,1.6-4.6,3.6-9,6.3-13.1,4.9-7.4,10.5-14.4,16.2-21.3,7-8.4,14.6-16.1,22.4-23.6,6.3-6,13.5-10,22.2-11.3,2.3-.3,4.5-.5,6.8-.1,5.8,1,9.2,4.6,9.6,10.6.3,4.2.3,8.4-1.1,12.5-6.3,12.7-13.6,24.7-20.1,37.3-12.9,25.2-26.8,49.9-38.4,75.7-4.3,9.5-8.5,19-12.1,28.8-2.1,5.5-4.8,10.7-7.7,15.8-1.6,2.8-3.4,5-7.3,4,2,1.3,3.6,2.6,6.2,3.1,0-4.5,2.2-8.1,4.1-11.8,6.6-12.9,11.3-26.6,17.3-39.8,10-22.1,21.3-43.5,32.8-64.8,6.2-11.6,11.4-23.8,18.6-34.8,1.2-1.9,2.1-4.2,4.6-4.7,4.5-2.9,9.4-4.7,14.6-6,3.1-.8,6-.8,8.9.4,1.7,2.8-.6,4.6-1.8,6.5-13.7,21.6-24.8,44.5-35.1,67.8-.6,1.1-.8,2.3-1.2,3.5-3.8,5.8-8.4,11-11,17.6-2.3,6-3.2,12.2-2.9,18.5,0,2.1,0,4.2-.6,6.3-5.5,19.2-10,38.6-12.9,58.4-.4,2.4-.6,4.8-1.7,7.1-2.5,1.8-1.4,4-.6,6.2.3,8.4-1.2,16.7-1.8,25.1-.7,8.7-.5,17.4-.7,26.2,0,3.1,0,6.1-.6,9.2-.9,6.6,1.2,13.1.3,19.7,1.9,9.1,1.6,18.4,2.8,27.6,1.4,10.6,2.9,21.2,4.8,31.8.4,1.9.7,3.8.3,5.8-.7,2.2-2.4,3.4-4.2,4.5-5.6,3.4-10.3,7.9-15.3,12-4.7,3.9-8.1,8.8-10.9,14.2-10,19.3-15.2,39.8-16.9,61.5-1.9,24.1,1.1,47.3,9.5,69.8,1.6,4.3,3.8,8.3,6.1,12.2,1,1.8,2.5,3.5,1.6,5.9Z"/>
        <path class="cls-22" d="M1045.6,1540.1c-3.9,1.4-8,.9-12,1.6-4.7.9-9.6,1-14.4,1.2-9.7.5-19.3.8-29,1.2-8.8-.4-17.5-.5-26.3-.9-19.2-.9-38.1-3.3-57-6.6-3.2-.5-6.3-1.5-9.6-1.5-2.7-3.2-2.8-7.3-2.7-10.9.1-8.2-.4-16.2-2-24.2-.2-.8-.2-1.6-.2-2.4.5-12.2-1-24.3-1-36.5,0-1.8-.5-3.5-.7-5.3-.8-9-1.6-18.1-2-27.1-.5-8.8-1.6-17.5-4.1-25.9-1.6-5.3-3.9-10.7-7.1-15.3-1.7-2.5-3.9-4.4-7.4-4.9-7-1-13.9-.9-20.9,0-12.9,1.5-25.8,3.1-38.8,2.1-.6-2,.7-3.4,1.4-5,4.1-9.9,10.7-15.4,22.1-17.3,13.7-2.3,23-12.2,29.3-24.5,2.5-4.9,3.4-10.2,3.1-15.6-.3-4.7,1-8.8,3.3-13,5.1-9.4,8.5-19.4,7.3-30.3-.2-1.6-.4-3.3,1.1-4.5,6.3,7.3,11.7,15.2,17.1,23.1,14.2,20.5,26.6,42.1,38.4,64,6,11.2,12,22.4,17.9,33.6,11.5,21.4,24.9,41.6,40.1,60.5.9,1.1,1.7,2.4,2.6,3.5-.7,1.1-1.9,1.2-3,1.2-1.1,0-2.3-.2-3.4-.2-4,0-26.7,9.1-29.3,12.1-4.6,5.2-7,11.3-5.8,18.4,1,5.4,3.9,9.3,9.6,10.4,3.6.7,6.1,2.7,8.2,5.7,4.4,6.4,10.4,11.2,17.4,14.6,2.5,1.2,4.6,2.9,6.5,5,11,12.4,31.5,13.7,43.9,2.8,1.2-1.1,2.3-2.4,4.2-1.8,4,4.1,5.1,9,3.2,13Z"/>
        <path class="cls-11" d="M1087.1,357.3c-12.6,7.2-25.3,14.1-38.4,20.2-15.8,7.4-32.1,13.5-49.1,17.4-8.6,2-17.3,3.2-26,3.3-9.2,0-18.5-1.2-27-5.5-11.3-5.7-18.1-15-21.7-26.9-.6-2.2-.6-4.5-1.8-6.5,3-4.1,10.2-5.2,15-2.2,2.6,1.6,5,3.7,8.2,4,.7-1.8-.8-2.1-1.5-2.8-1.1-1.1-3-1.8-2.4-3.8.5-1.8,2.2-2.3,3.8-2.7,11-2.8,22.3-4.5,33.6-5.8,7.6-.9,15.2-1.1,22.9-1,1.2,0,2.6.3,3.8-1.1-1.4-1.5-3.3-1.1-4.9-1.1-6.3,0-12.7-.4-19,.7-.6.1-1.3.2-1.9.1-2.2-.1-5.1.4-6-2.1-.8-2.3,1.5-3.8,3.1-5.1,8.7-7.1,18.3-13,28.7-17.5,8.9-3.9,17.9-7.5,27.8-10.6-2.3-1.9-4-1-5.5-.5-22.5,7.3-43.8,16.7-60.7,34-2.6,2.7-5.8,4.2-9.4,4.9-9.7,1.9-19.4,4-29.1,6.4-2.3.6-4.8,1.5-6.7-1.1-1.3-3.6-1.6-7,1-10.2,1.2-2.9.9-6.1,1.6-9.1,3-11.9,10-21.1,19.4-28.5,14.9-11.6,31.7-19.6,50.5-21.5,24.7-2.5,48.3,1.3,69.4,15.8,5.6,3.9,10.6,8.6,15.6,13.2,6.5,5.9,12.6,12.2,18.7,18.5,4.9,5,5,9.7,0,14.5-4.2,4.1-7.4,9.1-12.1,12.7Z"/>
        <path class="cls-22" d="M566.4,914c2-6.4,4.9-12.3,7.8-18.3,8.7-18.4,18.1-36.5,29.4-53.6.4-.7.7-1.5,1-2.2,6.2-8.7,12.3-17.5,18.7-26.1,11.8-16,24.9-30.8,38.5-45.1.9-.9,1.7-2,2.5-2.9,8.5-7.8,16.9-15.6,25.5-23.3,5.2-4.7,10.5-9.2,16.3-13.2,1.1.9,1.3,2.2,1.8,3.4,2.6,6.4,5.9,12.4,10.3,17.6,2.7,3.1,3.8,6.6,4.5,10.5,2.8,16.5,6.4,32.8,12.8,48.4,6,14.9,11.5,30,16.8,45.2.6,1.7,1,3.4,1.6,5.1-6,.4-11.8-.9-15.6-5.6-4.9-6.1-11.7-9.3-18.2-12.5-9.1-4.4-19.2,5.3-17.8,16.4.3,2.4,1.2,4.7,2.1,7,.7,1.6,2,3.1.5,4.9-2.2,1.3-4.5.4-6.7,0-8.4-1.6-15.6.6-21.1,7.1-3.1,3.7-6.7,5.3-11.5,5.1-11.5-.6-22.7.4-33.6,4.7-5,2-9.8,4.4-14.4,7.1-2.6,1.5-5.2,2.9-8.2,2.7-12-.9-21.8,4-31,11.1-.9.7-1.8,1.3-2.9,1.9-1.9.7-3.6,1.8-5.1,3.3-1.1,1.1-2.2,2.4-4,1.6Z"/>
        <path class="cls-5" d="M923.8,341.7c0,3.6,0,7.2,0,10.7-1.4,3-4.4,3.1-6.9,3.9-28.5,8.2-56.2,18.8-82.6,32.3-37.5,19.1-72.7,41.8-105.6,68.2-23.7,19-46.7,39-70.5,58-6.6,5.3-13.6,10-20.8,14.5-1.8,1.1-3.8,3-6,.6-.8-2.6.6-4.8,1.7-6.9,3.8-7.6,7.1-15.4,9.4-23.5,2-7,3.5-14.2,3.2-21.6-.1-2.5-.6-5.3,2.1-7,4.6-3.9,8-8.9,12.3-13.2,18.5-18.3,36.6-37,55.3-55.1,12.1-11.7,24.9-22.9,39.3-31.9,19.3-12.1,40-20.7,62.8-24.1,10.9-1.7,21.8-2.9,32.8-4,11.9-1.1,23.7-.7,35.5-.9,12.7-.2,25.4,0,38,0Z"/>
        <path class="cls-11" d="M647.8,470.7c-.6,5.8.2,11.6-.8,17.4-2.2,12.9-6.9,24.8-12.8,36.4-.9,1.9-2.3,3.5-2.4,5.8,0,.3,0,.5,0,.8,0,.5-.2,1-.5,1.4-8.2,6.7-17.9,11.1-27.1,16.3-3,1.7-6,3.3-9.2,4.5-4.1,1.6-5.6.5-6-3.9-.2-3.5,1-6.3,3.3-8.9,5.5-6.5,10.2-13.5,15.1-20.4,1.2-1.7,2.5-3.4,2.8-6-2.3.2-3.1,1.9-4.1,3.2-2.5,3.4-4.7,7-7.4,10.3-1.3,1.6-2.5,4.8-5.1,3.2-2.3-1.3-1.1-4.2-.4-6.3,2.4-6.9,5.2-13.7,8.7-20.1,5.8-10.7,12.4-21,20.2-30.5,1-1.2,2.1-2.4,2.4-4.7-3.4,1.6-5.3,4.1-7.1,6.4-5.4,6.9-10.3,14.2-14.8,21.8-.9,1.5-1.7,3.8-3.7,3.3-2.3-.5-2-3.1-2.1-4.9-.4-5.9,1.1-11.6,2.6-17.3.5-1.8,1.6-3.6.6-5.9-2,1.2-2.3,3.2-2.9,4.9-3.4,9.4-3,19.2-2.4,29,.2,3.3,0,6.4-1.1,9.5-4.2,11.5-7.5,23.2-7,35.7,0,2.4,0,5-3,6.1-1.6,0-2.1-1.1-2.5-2.3-.8-.8-1.5-1.7-2.4-2.4-11.1-8.8-17.8-20.4-19.9-34.2-2.7-17.4.9-33.9,10.5-48.9,6.1-9.6,14.1-17.3,23.4-23.9,7.6-5.4,15.6-10,23.9-14.2,5-2.6,10-4.5,15.8-1.7,3.6,1.8,5.8,4.6,7.6,7.9,3.4,6.4,5,13.4,6.4,20.4.8,4,1,8.1,1.3,12.1Z"/>
        <path class="cls-11" d="M1704.1,1096.7c-4-3.5-4.5-8.4-4.9-13.3-1.4-16.3,4.3-30.4,13.9-43,14.4-18.8,33.3-30.6,56.3-36,9-2.1,18.1-1.8,27,.2,4.5,1,5.9,2.8,6.2,7.4.4,4.8-.6,9.3-1.8,13.9-3.1,12-6.9,23.7-12.4,34.8-8.4,17.1-21.8,28.3-38.9,35.9-9.2,4.1-18.7,6.5-28.6,7.5-3.1.3-6.1-.6-9.1-1.1-1.3-.2-2.5-.6-3.8-.4,0-5.6,7-14.9,12.3-16.4,3-.8,6.1-1.2,8.9-2.5.4-.2.8-.6,1.1-1.4-1.2-1.5-2.9-.5-4.3-.5-3.1,0-3.6-1.6-2.4-4.1.6-1.2,1.5-2.1,2.3-3.2,11-14,23.4-26.6,37.1-37.9,1.6-1.3,3.8-2.4,4.5-5.5-5.5,1.5-8.4,5.7-12.2,8.5-1.4,1.1-2.5,2.5-4,3.6-.9.6-2,1.5-3.1.8-1.4-.9-.9-2.3-.5-3.5,1-2.8,2.5-5.3,4-7.8.9-1.5,2.3-2.8,2-5-2.2-.3-3.2,1.4-3.9,2.8-4.1,7.6-8.9,14.8-11.3,23.1-.7,2.4-1.8,4.5-3.5,6.3-9.7,10.2-18,21.4-26,32.9-1.2,1.7-1.9,4.3-4.9,4Z"/>
        <path class="cls-5" d="M1698.4,1120.1c4.1,10.1,6.9,20.6,10.1,30.9,3.5,11.3,6.7,22.7,8.6,34.4,1.4,8,2.6,15.9,2.6,24.1,0,10.5.3,21.1-1.1,31.5-.3,2.7-2.7,3.5-4.6,4.7-9,5.4-16.8,12.1-24.3,19.4-14.4,14.2-17.4,39.3-8.4,52.6,1.3,1.9,1.9,4.2,1.1,6.5-3.8,6.6-9.9,10.7-16.2,14.5-3.4,2.1-5.5.7-6-3.3-.5-3.1.7-6.1.7-9.2.3-23.7,1.7-47.4,3.1-71,2-32.5,6.5-64.7,16-95.9,3.5-11.5,8-22.7,13.2-33.6,1.1-2.3,2-4.9,5.1-5.5Z"/>
        <path class="cls-9" d="M583,557.4c2-.6,2.1-2.2,2-3.9-1-13.6,2.6-26.4,7.4-38.9.9-2.2.9-4.2.7-6.6-1.2-11.4-.8-22.7,3.2-33.6.4-1.1.9-2.1,1.5-3.1.8-1.2,1.9-1.8,3.3-1.1,1.3.6,2.1,1.6,1.8,3.1-.2,1.3-.7,2.5-1.1,3.7-2.1,6.7-3.7,13.5-3.4,20.6,0,.7-.3,1.6.8,2.4,1.6-2.6,3.1-5.2,4.7-7.8,4.9-7.9,10-15.6,16.3-22.4,1-1.1,1.9-2.2,3.4-2.7,1.1-.4,2.3-.3,3.1.7.8,1,1,2,.3,3.1-.4.5-.8,1-1.2,1.5-9.2,10.4-16.7,22-23.1,34.3-3.6,6.9-6.7,14.1-8.8,21.6-.2.6-.1,1.2-.2,1.9,1.7.3,1.9-1.1,2.5-1.9,2.8-3.8,5.4-7.7,8.2-11.5.7-1.1,1.5-2.1,2.3-3.2,1.2-1.6,2.5-3.3,4.8-1.9,2.3,1.4,1.3,3.4.2,5.1-1.6,2.6-3.3,5.2-5.1,7.7-4.6,6.3-8.9,12.8-14.1,18.7-2.7,3-1.6,6.3-1.4,9.7.7,0,1.2,0,1.6-.1,13.1-6.5,26-13.3,38.1-21.6.4-.3.7-.5,1-.9,0,0,0,0,0,0,6.4-3,11.9-7.3,17.6-11.3,12.9-8.9,24.4-19.5,36.4-29.5,28.2-23.6,56.4-47.3,87.2-67.4,42-27.6,86.6-50.3,134.9-65,5.3-1.6,10.6-3.2,15.9-4.7,12.3-2.8,24.6-5.9,37.1-8.1,1.6-.3,3-.9,4.2-2.2,14-14.9,31.4-24.5,50.3-31.6,4.7-1.8,9.4-3.5,14.2-5,1.6-.5,3.2-.8,4.8-.3,1.5.5,2.6,1.5,2.5,3.2,0,1.5-1.2,2.1-2.6,2.4-20.3,5.4-39.2,13.7-55.6,27.1-1,.8-2,1.7-2.9,2.6-.2.2-.2.6-.5,1.3,2.6.5,5.1.3,7.6,0,7.4-1.1,14.9-.5,22.4-.6.9,0,1.9.2,2.8.6,1.2.4,1.8,1.4,1.7,2.7-.1,1.3-.8,2.2-2.1,2.4-1.3.2-2.6.2-3.9.2-10.6-.2-21.1,0-31.5,1.8-9.3,1.6-18.7,3-27.9,5.2-.4.1-.7.5-1.1.9,1.1,1.7,3,2,4.5,2.9,1.6,1,3.2,2.2,2.2,4.3-1,2.1-3,1.8-4.7,1.2-2.9-1-5.7-2.5-7.9-4.7-1.7-1.7-3.4-2.2-5.7-1.4-2.8.9-5.6,1.5-8.4,2.3-16.3,4-32,9.7-47.6,15.8-33.5,13-64.6,30.5-95.1,49.4-.7.4-1.3,1-2.6,1.9,3.9.4,7.1.9,10.3,0,1.6-.5,2.8,0,4.1.7.1.2.3.4.6.4.4,0,.7,0,1.1.1,2.2-1.1,4.4-.7,6.7-.2,10.7,2.4,20.9,6.1,30.7,10.9,3.9,1.9,7.5,2.6,11.7,1.4,4.8-1.4,9.7-1.1,14.5-.7,3,.3,5.6,1.5,5.5,5,0,3.4-3,3.9-5.6,4.1-2.6.2-5.2,0-8,.3,4.7,3.3,9.4,6.1,13.8,9.5,1.2.9,2.4,1.7,3.3,2.9,1.6,1.9,3.2,4,1.3,6.5-2,2.6-4.7,2-7,.5-6.2-3.9-12-8.4-18.2-12.2-11.9-7.4-24.4-13.5-38.1-17-.2,1.6.9,2.5,1.3,3.7,1,2.5,1.1,4.9-1.5,6.4-2.6,1.6-4.8.4-6.4-1.7-3.4-4.5-7.2-8.8-9.9-13.8-6-.3-12-1.3-17.7,1.7-.1,0-.3.2-.5.1-4.5-1.5-7.2,1.8-10.2,4-27.8,20.7-54.9,42.2-81,64.9-17.7,15.4-37,28.5-57.1,40.6-9.7,5.9-19.6,11.5-29.8,16.5-4.7,2.3-9.9,3.9-14.5,6.6-2.9,1.7-6.1,3.2-7.9,6.3-1.9.6-3.6.3-4.5-1.7-.9-2,.1-3.5,1.6-4.7,2.7-2.3,5.8-4.2,9-5.9,1.6-.9,3.1-1.8,4.6-2.7.8-.9,1.6-1.7,3-1.3Z"/>
        <path class="cls-9" d="M1698.4,1120.1c-7,12.5-12.1,25.9-16.3,39.6-6.7,21.6-10.9,43.8-13.3,66.3-1.4,12.6-2.3,25.2-3,37.8-.8,13.8-1.2,27.6-2,41.3-.5,9.2-.1,18.5-1.4,27.7-.3,1.8,0,3.8,0,6.7,7.8-5.2,14.3-10.1,19.7-16.4.8-3,2.5-5.5,4.5-8q9.7-12.1,7.6-27.7c-.3-2.3-.6-4.5-.2-6.8.4-2.6,1.5-4.9,4.5-5,3.1-.1,4.1,2.2,4.5,4.8.5,3,.8,6.1,1.3,9.6,3.4-4.5,6-8.9,8.4-13.4,1.3-2.5,2.9-5,6.4-3.7,2.8,1,3.8,4.3,2,7.9-4.7,9.7-11.1,18.3-17.1,27.3,1.7-.3,3.2-1.2,4.9-1.5,2.6-.3,4.5.4,5.4,3,.8,2.4-.3,4.1-2.2,5.4-2.9,1.8-6.3,2.7-9.5,3.6-5.2,1.4-9.8,3.5-12.9,8.1-.7,1-1.8,1.4-2.7,2-4.9,6.9-11.6,11.7-18.5,16.4-2.9,1.9-4.9,4.3-5.1,7.8-.7,11.9-2.1,23.6-6.5,34.8-1.2,7.4-2.3,14.8-7.7,20.7-2,3.5-3.6,7.2-5.9,10.6-1.3,1.8-2.7,3.2-5.2,2.8-1.6-1.8-1.6-3.6-.3-5.6.8-1.2,1.8-2.2,2-3.7-.4-1.8.3-3.5,1-5.1,4.3-9.9,7.4-20.2,10-30.7.6-1.8.8-3.6.8-5.5.9-6.4,1.9-12.8,2.1-19.3,0-2.9.3-5.9,2.4-8.2.5-10.2,1-20.4,1.5-30.7.7-15.4,1.2-30.8,2.1-46.2.2-3.2.2-6.5.8-9.7.7-4.6-.9-8.2-3.6-11.6-6-7.3-11.9-14.6-17.9-21.9-2.6-.7-3.9-2.8-5.3-4.8-6-8.4-10.1-17.8-14.6-27-1.4-2.9-3.1-5.2-5.9-6.8-3.2-1.9-6.2-4.2-8.9-6.7-1.5-1.3-2.8-2.8-3.3-4.7-.5-1.8-.4-3.6,1.1-4.9,1.5-1.4,3.3-1.2,5-.4,1.5.7,2.7,1.9,4.6,3.5-3-7.9-3-15.4-2.8-22.9,0-3.1.4-6.2,1.7-9,1.1-2.6,2.9-4.6,6-3.7,3.2.9,3.6,3.6,3,6.3-1.5,7.1-1.7,14.2-.2,21.3,2.7,13.1,8.8,24.7,15,37.2-.3-5.6,0-10.4,1.1-15.2.7-3,2.2-5.9,5.8-5.3,3.7.6,4.2,3.8,3.6,6.9-1.4,7.2-.9,14.6-1.2,21.9-.2,3.8.8,7.4,1.2,11,4.3,7.5,10.4,13.5,16,20.5,1.3-2.4,1.3-4.4,1.5-6.5,3.4-36.3,10.4-71.9,25.4-105.4,2.6-5.8,5.4-11.4,8.2-17.1,3.1-4.8,6.1-9.6,8.5-14.7,5.3-6.8,9.6-14.2,15.1-20.9,4.8-5.9,9.4-12,14.8-17.5,1.6-1.6,3.1-3.2,3-5.9,0-1.2.6-2.5,1.1-3.7,3.4-6.8,6.7-13.7,10.7-20.2.7-1.1,1.5-2.2,2.6-2.9,1.4-.9,2.8-1,4,.2,1,1.1,1.1,2.4.3,3.6-2.3,3.2-4.3,6.5-6,10-.5,1.1-1,2.2-1,3.7,3.6-3.2,7.2-6.3,10.9-9.4,1.6-1.4,3.3-2.7,5-3.9,1.6-1.2,3.4-1.6,4.7.3,1.3,1.9.3,3.4-1.2,4.6-1.5,1.3-3,2.4-4.5,3.7-14.5,11.9-27.3,25.5-38.9,40.2-.4.5-.8,1-.4,1.8,1.5.3,2.7-.5,4.1-.8,2.5-.5,4.4.3,4.7,2.1.4,2.3-1.3,3.2-3.1,3.7-3.1.9-6.3,1.8-9.4,2.3-2.3.4-3.8,1.4-5,3.3-2.4,3.9-4.9,7.6-7.4,11.4-3.5,5.7-7,11.4-9.7,17.6Z"/>
        <path class="cls-11" d="M1686.4,1327.8c.8-1,1.6-2,2.4-3.1,2.7-3.6,5.9-6.3,10.6-7.1,3.2-.5,6.2-1.9,9.3-2.9.9-.3,1.9-.6,2.7-1.1,1.4-.8,2.3-1.9,1.7-3.6-.7-1.8-2-2.4-3.9-1.9-2.8.7-5.3,2.4-8.6,2.7,0-1.8,1-2.8,1.8-3.9,5.6-8,11-16.1,16-24.5.8-1.4,1.5-2.9,1.9-4.5.5-1.9-.2-3.3-1.9-4-2-.8-3,.4-3.7,2.1-2.8,6.7-7.3,12.2-10.9,18.2-2.1-.6-1.4-2-1.5-3-.4-3.7-.7-7.4-.9-11.2-.1-1.9-.8-3.3-2.8-3.3-2,0-2.9,1.4-3,3.2-.4,5.6.4,11.1,1.3,16.5.8,4.5.5,8-2.6,11.6-4.2,4.9-7.8,10.4-12.3,15.1-.2-1.7-.9-3.1-1.8-4.5-6-8.8-6.3-18.6-4.8-28.6,1.6-10.8,7-19.7,14.6-27.5,8.4-8.8,18.3-15.5,28.8-21.5,4.7-2.3,9.3-4.7,14-6.8,7.9-3.5,13.1-.2,13.3,8.4.2,6.8,1.2,13.6,1,20.4-.5,19.9-5.8,38.1-18.3,53.8-8.9,11.3-20.5,16.5-35,15.1-2.6-.2-4.5-1.7-6.5-3-.5-.2-1-.5-.9-1.2Z"/>
        <path class="cls-11" d="M450.1,1631.8c-1.5,1.6-2.3,3.3-2.2,5.7.2,3.4-1.6,5.9-4.8,7.1-2.5.9-4.5,2.4-6.6,4-7.4,5.9-15.8,8.6-25.2,8.7-21.3.2-39.4-8.1-56.1-20.4-2.7-2-5.4-4.2-7.7-6.7-4.7-5.2-4.6-9.8.9-14.2,8.6-6.8,18.6-10.6,29.3-12.4,10.6-1.8,21.3-1.5,31.9.5.4,0,.9-.2,1.4-.3,2.1-1.4,3.3.3,4.6,1.4,6,4.9,12.4,9.5,18.7,14.1,2,1.5,5.6,2.6,3.8,6.2-1.3,2.5-7.6,2.7-10.2.4-2.3-2.1-4.4-4.3-7.2-5.8-.7-.4-1.4-.9-2.3-.3-.3,2,1.7,2.5,2.5,3.7,2,2.9,1.4,4.4-2,5-2.3.4-4.5.1-6.8-.2-7.6-1.1-15-2.7-22.2-5.4-1.6-.6-3.2-1.6-5.3-.7,1.3,2.3,3.4,2.7,5.3,3.4,4.2,1.7,8.6,2.8,13.1,3.8,7.3,1.5,7.4,1.8,4.2,8.4,2.1.7,3.4-.6,4.6-1.8,3.5-3.6,7.8-4.8,12.7-5,5.8-.2,11.6-1.1,17.3-2.7,4.7-1.3,6.8-.2,8.4,3.6Z"/>
        <path class="cls-9" d="M450.1,1631.8c-2.7-2.6-5.6-3.1-9.3-1.8-5.5,2-11.4,2.5-17.3,2.6-4,0-7.3.9-10,4-1.4,1.6-3,3-5.1,3.7-1.5.5-2.9.4-3.8-1.2-.7-1.3-.4-2.5.6-3.6,1-1,2.5-1.5,3.2-3.4-3.6-.8-7-1.6-10.4-2.3-4.5-.9-8.7-2.7-12.9-4.4-.9-.4-1.8-.8-2.5-1.5-1.1-1-1.2-2.3-.6-3.6.6-1.2,1.7-1.6,2.9-1.3,1.3.3,2.5.8,3.7,1.3,9.6,3.8,19.5,6.1,29.9,6.3.8,0,1.6.2,2.6-.6-.7-1.8-2.6-2.6-4-3.8-1.5-1.2-2.7-2.6-1.3-4.5,1.4-1.9,3.1-1.5,4.7-.4,2.7,1.8,5.9,3.3,7.5,6.1,1.6,2.6,3.4,2.6,5.7,2.1,1.3-.3,2.5-.7,4.7-1.3-9.6-7-18.8-13.5-27.5-20.7-12.3-10.6-24.2-21.6-35.1-33.7-17.4-19.2-33.1-39.5-46.7-61.6-.6-1-1.3-1.9-1.9-2.8-7.2-6.2-15.4-11.3-21.8-18.5-.5-.6-1.1-1.2-1.6-1.9-1.5-2.2-2.3-4.5-.1-6.6,2.3-2.3,4.8-1.3,7,.4,1.2.9,1.9,2.2,2.5,3-1.1-1.4-1.9-3.3-2.1-5.5-.2-2,0-4,2.3-4.9,2.2-.8,4.1,0,5.6,1.8.7.9,1.2,1.9,1.6,3,1,2.4,1.8,4.2,5.2,3.4,2.6-.7,4.9,1.6,4.4,4-1.4,6.5.7,12.2,2.5,18.2.2,1.5,1.1,2.7,1.9,3.9,11.4,18.8,24.9,36.2,39.2,52.9.6.7,1.3,1.4,2,2.1.2.2.6.1,1.3.3,1.6-6.5.8-12.8-.4-19.2-2.9-2.8-3.3-6.6-4.3-10.2-1-3.6-2.5-6.6-6.3-8.1-1.5-.6-2.8-1.6-4-2.8-3.1-3.2-2.6-6.6,1.6-7.9,2.5-.8,2.1-1.8,1.5-3.4-1.7-4.4-3.4-8.8-5.3-13.1-.6-1.3-1.3-2.6-1.6-4.1-.5-2.2-.4-4.3,1.8-5.6,2.4-1.3,4.5-.3,6,1.6,2.1,2.5,3.3,5.6,4.5,8.6,1.4,3.3,2.7,6.6,3.7,10.4.4-2.4,1.6-3.8,3.9-3.7,2.3,0,3.6,1.3,4.3,3.3,1.1,3.2,1.2,6.6.2,9.6-2.7,7.9-.8,15.4,1.1,22.9,1.8,8,2,16.1.4,24.2-.7,3.3.8,5.2,2.8,7.2,13,13.5,27,25.8,41.9,37.1,7.2,5.8,14.8,11.1,22.9,15.6,14.9,9.6,31.4,16.3,46.9,24.9,14.5,5.2,29.3,9.4,44.5,12.3,1.1.2,2.3.2,3.4.6,1.5.5,2.5,1.5,2.3,3.2-.2,1.5-1.3,2.2-2.8,2.2-1.1,0-2.3,0-3.4.1-14.1-2.7-27.8-6.7-41.4-11-16.2-5.1-31.2-13-45.9-21.3-1.8-1-3.7-2-5.6-3Z"/>
        <path class="cls-11" d="M332.9,1502c-2.3-2.2-3.1-5.3-4.9-7.8-.9-1.2-.4-2.4,0-3.7.5-1.9,1.1-3.7,1.2-5.7,0-1.5-.1-2.9-1.7-3.7-1.7-.8-2.8,0-3.7,1.3-.3.4-.6.7-1.1,1.3-1.7-2.3-2.6-4.9-3.8-7.4-.4-.9-.7-1.8-1.3-2.6-.8-1.2-2.1-1.5-3.5-1-1.5.5-1.8,1.8-1.6,3.1.3,1.4.8,2.8,1.3,4.2.7,1.8,1.5,3.5,2.7,6.1-2.7-1.3-3.8-3-5.2-4.3-.6-.5-1.2-1.1-1.7-1.7-1.4-1.4-2.9-2.2-4.7-.9-1.5,1.1-1.4,3.2.4,5.1,4.7,4.9,9.3,10,15.2,13.5,3.2,1.9,5.5,4.4,6.8,7.9-5.1,1-10.3,1.1-15.4-.1-10.7-2.5-18.1-9.3-23.4-18.5-5.6-9.6-6.9-20-5.6-31,.9-8.1,1.7-16.1,3.2-24.1,1.3-7,6.2-9.4,12.6-5.8,8.2,4.7,15.5,10.7,21.8,17.8,7,8,13,16.7,16.6,26.8,2.7,7.6,4.1,15.4,1.9,23.4-.9,3.4-2.4,6.4-6,7.8Z"/>
        <path class="cls-11" d="M382.8,1540c-1.2-4.2-2.3-8.5-3.5-12.7-.3-1.1-.4-2.1.1-3.3,2.1-4.7,2.3-9.7,2.2-14.8,0-1-.2-1.9-.6-2.8-.5-1.4-1.7-1.9-3.2-1.7-1.3.2-2,1.1-2,2.4,0,1.8,0,3.5,0,5.3-.3,0-.6.2-1,.3-1-2.5-1.9-5-2.9-7.4-1.6-4.1-3.2-8.1-4.9-12.2-.4-.9-.8-1.8-1.3-2.6-1.5-2.6-3.4-3.5-5-2.7-1.7.9-1.8,2.5-.3,5.6,3.2,6.4,5.6,13.1,8,19.9.3.7.7,1.5.3,2.3-1.2.5-1.7-.6-2.5-1-1.7-.9-3.1-.8-4.2.8-1.1,1.7-.3,3.2,1.1,4.2,1.6,1.2,3.2,2.5,5,3,3.4,1,4.9,3.3,5.6,6.6.9,4.3,2.1,8.5,3.2,12.7-.9-.3-1.8-.9-2.7-.9-2.5-.2-4.9-1-6.8-2.5-10.2-8-19.3-16.6-20.7-30.8-.8-8.6-.9-17.2-.7-25.8,0-3.2.5-6.5,1-9.7,1-6.5,5.8-9,11.8-6.3,4.5,2,8.3,5.1,12.5,7.6,7.6,6.5,13.7,14.2,18.4,23,3.2,6,4.6,12.4,5,19.1,1.9,8.6-1.7,15.7-6.2,22.4-1.1,1.7-3,3-5.5,1.9Z"/>
        <path class="cls-24" d="M581,845.6c-11.5,18.7-20.8,38.6-31.1,57.9-10.5,19.4-20.3,39.2-28.8,59.7-4.6,11.1-8.7,22.5-14.7,32.9-1.1,1.9-2,3.8-.5,5.9.5.7.6,1.5-.1,2.2-.9.8-1.9.7-2.7,0-2.3-2.1-5.1-3.4-8-4.5-1.1-.4-2-1.2-1.5-2.6.4-1.1,1.7-1.3,2.5-.9,5.2,2.8,6.3-1.2,8.3-4.6,6.6-11.3,10.4-23.8,15.6-35.7,7.2-16.2,15.1-32.1,23.2-47.8,7.9-15.5,16-30.8,24.2-46.1,3.9-7.3,8.2-14.4,12.4-21.5.8-1.4,1.7-2.8,3.2-3.6-.2,3-2.2,5.6-1.9,8.7Z"/>
        <path class="cls-24" d="M1000.8,1577.3c7.8,0,15.6-.3,23.3-1.3,8.7-1.1,17.4-1.5,26.1-2.6,4.3-.6,8.7-.5,13.1-1,8.8-1.1,17.8-1.2,26.6-2.2,12.7-1.6,25.4-2.9,38-5.2,9.6-1.8,19.1-3.6,28.7-5.2,3.7-.6,7.4-.1,11.1-1,2.1-.5,4.1-.5,5.1-2.9.3-.6.9-1,1.6-.9,1,.1,1.3.9,1.3,1.8,0,3.3,0,6.5.9,9.7.3,1.1.1,2.4-1.4,2.6-1.1.1-1.7-.7-2.1-1.6-2.5-5.4-2.5-4.9-8.5-4.4-16,1.2-31.6,5.4-47.5,7.5-12.4,1.6-24.7,3.3-37.1,4.4-9.7.8-19.4,1.7-29.1,2.4-8.9.6-17.7,1.6-26.6,2.5-11,1.2-22,1.7-33.1,1.1,2.8-2.1,6.7-1.4,9.5-3.6Z"/>
        <path class="cls-3" d="M1414.2,850.5c1.1-6.8-2-12.5-5.4-17.8-17.4-27.2-33.3-55.5-51.5-82.2-8.4-12.3-17.3-24.4-26.4-36.2-2.8-3.6-4.8-7.7-7.2-11.5-1.3-2-2.3-3.9-5.1-3.8-.8,0-1.6-.6-1.8-1.4-.2-.9.3-1.7,1.1-1.9,3.6-.6,5.9-3.3,8.6-5.2.8-.6,1.7-1,2.6,0,.8.9.3,1.8-.3,2.6-1.2,1.6-3.9,2.6-3.4,4.9.4,1.8,1.9,3.3,2.8,5,7.5,13.2,17.9,24.3,26.3,36.8,4.6,6.9,9.4,13.6,13.9,20.6,8.7,13.7,17.3,27.5,25.7,41.4,7.2,11.9,15.2,23.4,21.4,36,1.8,3.6,4.6,6.7,5.3,10.9-1.7-1.4-3.4-2.9-5.2-4.5-1.2,2.2,0,4.6-1.4,6.3Z"/>
        <path class="cls-1" d="M1430.7,765.7c-4.1-2.6-6.5-6.8-9.4-10.4-15.9-19.5-30.7-39.8-46-59.8-5.4-7.1-10.7-14.3-16.3-21.2-2.3-2.8-5-5.2-7.4-7.7-1.1-1.1-2.5-1.4-4-1.6-1.8-.2-2.2-1.5-1.2-2.8,1.1-1.4,2.4-2.6,3.7-3.9.6-.6,1.4-.9,2.2-.5.8.4,1.3,1.3,1,2-1.2,2.7.8,3.6,2.3,5.1,5.2,5.1,9.5,11,14,16.8,17.8,23,34.8,46.5,52.9,69.2,1.8,2.2,4.2,3.5,6.1,5.5-1.1,1.2-.3,2.3.2,3.4.9,1.8,2.1,3.5,1.9,5.7Z"/>
        <path class="cls-24" d="M1060.6,1626.8c7.5-2.8,15.4-3.9,23.1-5.6,17.2-3.9,34.7-6.7,52.1-10,14.7-2.7,29.4-5.1,43.9-8.7,4-1,8.4-1.4,11-5.4.8-1.3,2-.8,2.6.5.6,1.3,1.1,2.7,1.5,4.1.4,1.1.8,2.3-.2,3.2-1.1,1-2.1.2-3-.5-1.2-.9-2.4-.9-3.7-.4-10.1,4.3-21.1,5.2-31.7,7.3-25.6,5.2-51.4,9.1-76.9,14.7-2.1.5-3.9,1.7-6,2-2.2-1.5-4.7-.6-7-.8-1.9-.2-3.8-.2-5.8-.3Z"/>
        <path class="cls-3" d="M506.8,870.1c-3.5,12-8.1,23.7-12.7,35.3-8.7,21.9-17.6,43.7-26.6,65.5-2.1,5.1-4,10.3-5.5,15.6-.7,2.7-1.6,5.3-.5,8.1.6,1.6-.2,2.6-1.9,2.2-1.7-.4-3.5-.8-5.1-1.6-1.5-.7-1.8-2.1,0-2.8,1.6-.6,2.3-1.3,2.7-3,3.2-13.5,9.3-26,14.3-38.8,8.1-20.7,16.7-41.3,24.9-61.9,1.1-2.8,2.4-5.7,2.6-8.9,3-2.9,4.1-7.3,7.7-9.7Z"/>
        <path class="cls-8" d="M1686.4,1327.8c.3.4.6.8.9,1.2-.7,1.2-1.5,2.5-2.2,3.8-8.7,17.5-17.6,34.9-26.9,52.2-.5.8-.7,1.8-1.1,2.7-.5.3-.8.2-.8-.4,1.1-5.7,2.1-11.5,3.2-17.2,1-5.4,1.7-10.9,1.8-16.4.1-4.1,1.1-7.2,5.1-9.6,7.4-4.3,13.8-10.2,20-16.2Z"/>
        <path class="cls-21" d="M1656.3,1387.2c.3.2.5.3.8.4.3,3.9.6,7.7-.9,11.4-1.5,3.8-3.3,7.3-7.2,9.2,2.4-7,4.9-14,7.3-21.1Z"/>
        <path class="cls-10" d="M583,557.4c-.9.6-1.8,1.3-3,1.3,0-1.1.6-2.1,1.1-3,.8.4,1.4,1,1.8,1.8Z"/>
        <path class="cls-22" d="M630.2,1070.3c9.6-2.9,19.4-5.5,28.8-9.1,7.6-3,15-6.4,22-10.4,16-9.1,32.7-16.8,50.1-22.8,14.3-5,27.8-11.7,41.3-18.6,3.3-1.7,6.8-3.1,10.1-4.8,2-1,3-.6,3.5,1.6.8,3.2,1.6,6.3,2.5,9.4,3.9,14.8,9.1,29.2,16.4,42.7,2.1,3.9,3,7.6,2,12.1-1.2,5-1.2,10.3-1.2,15.5-3.1.7-3.8-1.8-4.7-3.8-.9-2.1-1.4-4.3-2.4-6.4-2.4-5.2-6.4-8.3-12.2-8.3-4.5,0-8-1.4-11.3-4.5-6.6-6.1-14.3-5.8-21.1,0-2,1.7-3.8,3.5-5.4,5.6-5,6.8-4.5,14.3,1.4,20.3,1.4,1.4,2.8,2.7,4.4,3.8,2.6,1.9,2.9,4.2,1.2,6.8-5.1,7.8-5.1,15.5,0,23.2,1,1.5,1.8,3.3.2,4.9-1.5,1.5-3.3,1-5,.2-2.4-1.1-4.8-2.3-7.5-1.2-3.2,1.3-5.6,3.6-5.8,7.2-.2,4,2,6.6,5.8,8.1,2.2.9,5.9.2,5.5,4.2-.4,3.7-2.4,6.1-6.2,7.2-6.9,1.9-8.1,5-7.5,11.8.6,6.3,1.4,12.4,3,18.6,1,3.9.6,7.9-1.3,11.8-2.1,4.4-.8,8.6,3.6,10.7,6,2.8,8.7,6.8,8.8,13.6.1,6.6,4.7,11.1,10.3,13.8,4,1.9,7.1,4.2,9.5,7.9,3.4,5.2,7.7,5.8,13.1,2.5,4.9-3,8.7-2.3,13.1,2.4-11.9,13.1-24.3,25.7-35.9,39.1-.5.6-1.3.9-2,1.3-5.8-3.2-11.6-6.6-14.5-12.8-2.8-6-6.8-10.2-13.1-12.2-2.6-.8-4.5-2.5-6.6-4-6.8-4.9-17.4-3-22,4.1-1.9,2.9-2.6,6.1-1.2,9.3,1.6,3.5,1.3,6.9.3,10.4-1.6,5.7-2.3,11.4-.8,17.3.6,2.4.6,4.8.2,7.3-2.1,14.1,4.6,25.7,17.7,30.9.9.4,1.8.8,2.5,1.5,1.4,2.7-.2,4.7-1.6,6.6-7.9,10.2-16,20.3-23.6,30.8-.9,1.2-1.9,2.3-3.5,2.4-7.4-.9-14.8-1.7-22.2-2.6-1.1-.1-2.3-.4-3.4-.4-7.7.3-15.2-1.1-22.7-2.4-2.4-.4-4.8-.6-7.2-.6-2,0-3.9-.1-5.6-1.2-10.3-8.5-16.8-20.2-24-31.1-24-35.9-42.1-74.7-55.1-115.9-1-3.1-1.9-6.2-2.7-9.4-.5-1.9-1-3.8.4-5.6,1.6-.9,2.8,0,4,.8,1.9,1.2,4,2.2,6,3.3,9.9,5.5,16.6,5,24.4-3.3,4.9-5.2,9.9-10.2,15.1-15.1,4.2-3.8,7.5-8.5,9.4-14,1-2.9,3-5,5-7.1,5.6-5.6,8.2-12.3,7.8-20.3-.1-2.6-.2-5.2.2-7.8,1.1-7.5-1.6-13.1-7.8-16.3-5.5-2.9-12.3-1.6-17.5,3.2-1.6,1.4-2.6,3.9-5.5,3.4-1.6-2.6,0-4.7,1.1-6.8,5.1-9.2,9.6-18.7,14.7-28,1.5-1.9,3.7-3.1,5.7-4.5,8-5.5,13.6-12.7,16.4-22.1.5-1.6.6-3.6,2.6-4.3Z"/>
        <path class="cls-9" d="M877.9,1274.2c3.1,13.4-1,25.4-7.4,36.9-1.9,3.3-2.7,6.5-2.5,10.2.6,8.6-1.7,16.4-6.7,23.4-9.1,12.7-21.3,20.3-37,21.5-2.6.2-4.2,1.1-5.1,3.6-2,5.4-5.2,10.1-8.7,14.6-1.1,0-2.3.2-3.4,0-4.5-.9-9.1-1.1-13.5.1-4,1.1-8,.3-12,.3-10.5,0-21.1,0-31.6,0-4,0-8.1-.3-12.1-.5-1-1.3-1-2.7-.5-4.1,2.4-7.5,2.5-15.2,2.8-22.9.1-3.1.7-6.1,2.8-8.6,1.8-1.6,4-1.1,6-.6,4.9,1.2,9.4.1,13.3-2.9,2.8-2.2,5.4-2.6,8.4-.5,3.7,2.5,7.6,3.1,11.3.2,3.7-2.9,4.5-7,3.8-11.4-.6-3.6-2.4-6.7-4.9-9.3-1.4-1.5-3.3-2.7-3.6-5.1,1.8-11.3,8.6-18.2,19.4-21.3,2.4-.7,3.6-1.8,4.4-4.4,2.2-7.7,6.1-14.4,13.5-18.2,1.9-1,2.2-2.6,2.5-4.4,1.1-5.1,3.5-9.4,7.2-13,7.7-7.4,17.8-8.2,26.6-2.1.5.4,1.1.7,1.6,1.1,5.3,1.4,11.4.1,15.7,4.9,4.4,3.3,7.5,7.5,9.6,12.5Z"/>
        <path class="cls-2" d="M455.6,1566.9c-4.1,1.4-7.8,2.7-11.8,2.7-13.4,0-22.7-11.8-19.4-24.8.7-2.6,2.7-5.3,2.4-7.8-.2-2.2-3-4.1-4.2-6.4-4.8-9.4-3.5-18.4,2.6-26.6,8.2-11.2,21.5-13.5,33.3-6.2,1.1.7,2.1,1.5,3.2,2.3,2.9,2.1,3,2.2,5.2-.7,8.6-11.3,22.9-11.4,31.9-3.7,5.6,4.8,7.4,11.2,7.9,18.3.2,2.4.1,4.9-.5,7.3-.7,2.7,0,4.4,2.5,6.1,7.2,5.1,11.7,12.1,13.2,20.8,1.7,9.7-4.7,19.2-14.3,21.2-.3,0-.6.1-1,.1-4.3,0-6.6,1.7-7.9,6.3-2.5,8.7-12.2,13.5-22.1,11.8-10.1-1.8-17.2-7.3-20.1-17.5-.3-.9-.5-1.8-1-3.3Z"/>
        <path class="cls-15" d="M382.8,1540c4.1-1.7,6.3-4.9,7.7-8.9,1.7-5.1,3.4-10.1,4-15.5,5.1,8.5,10.2,17,15.2,25.5,8.9,15.3,17.9,30.6,28.1,45.1,7.2,10.3,14.9,20,23.1,29.6,7.1,8.3,15.1,15.7,23.7,22.3,3.3,2.6,7.1,4.6,10.6,7,1.4,1,3.3,1.6,4,3.5-4.8-1.2-9.2-3.3-13.6-5.3-11.8-5.4-23.4-11.3-34.3-18.5-4.8-5.4-11.4-8.3-17.1-12.3-1.7-1.2-3.6-2.1-5.5-3.1-4.1-2.3-7.6-5.5-11.3-8.5-11.6-9.5-22.5-19.6-32.9-30.4-2.1-2.1-2.6-4-1.7-6.8,1.9-6.3,1.2-12.9.6-19.3-.1-1.4-.4-2.9-.6-4.3Z"/>
        <path class="cls-12" d="M744.3,1348.7c-1.6,3.8-2.1,7.8-2.2,11.9-.2,4.7-.7,9.4-1,14.1-.3,3.5-2.5,6.3-3,9.7-15.5-.8-30.8-3.8-46.2-5.9-.3,0-.6-.3-.8-.5,7.4-11.2,15.9-21.6,24.3-32.1,1.7-2.2,3.3-4.4,4.4-6.9,6.5-5.1,12.2-4.9,17.2,1.2,2.4,2.9,6.8,4.1,7.4,8.5Z"/>
        <path class="cls-13" d="M556.9,1637.8c-2,2-3.5,4.2-5.7,5.7-6.1,4.3-13.9,1.8-15.7-5.1-.7-2.7,0-5.2,1.2-7.5.9-1.5.7-2.3-.9-3-1.8-.8-3.4-1.9-4.8-3.3-5.4-5.6-3.5-12.9,3.8-15.5,1.6-.5,3.2-.9,4.8-.6,3.1.5,4.8-.9,6.1-3.4,1.4-2.6,3.5-4.7,6.1-6.2,5.4-3.1,10.6-1.1,12.4,4.8.5,1.5.8,3.1,1.3,5.1,2-1.1,3.7-2.2,5.5-3,4.1-1.8,7.7-1.3,9.8,1.4,2.1,2.6,2.1,6.5,0,10-1.6,2.5-3.5,4.7-6,6.3-1.9,1.3-2.6,2.5-1.7,4.8.8,2.1,1,4.4.3,6.7-1.9,6.5-7.7,8.8-13.4,5.2-1-.6-1.8-1.4-3.1-2.4Z"/>
        <path class="cls-22" d="M1292.1,1428.5c-6.2,4.1-11.5,9.5-17.3,14.2-18,14.5-37,27.6-56.9,39.2-9.4,5.5-19,10.6-28.8,15.4-1.6.8-3.4,1.3-4.6,2.7-1.3,1.3-2.5,2.9-4.4,3.4-5.7,2.9-11.9,4.8-17.6,7.7-4.4,2.1-9.1,3-13.8,3.7-13.8,5-27.7,9.6-41.9,13.4-4-1.6-4.5-5.1-4.8-8.8,2.8-3.8,7-6.2,10.4-9.4,1.7-1.6,4-1.1,6.1-.6,2.4.5,4.7,1.3,7.2,1.1,7.1-.7,12.4-4.5,14.2-10.2,1.8-5.9-.9-14.9-6.2-18.3-5.9-3.9-9.1-9-11.1-15.9-3.3-11.4-10.2-20.7-20-27.5-4.7-3.2-8.2-7.2-10.9-12.2-3.7-6.7-8-13-13.5-18.4-1.6-1.6-3.2-3.3-4-5.5-2.5-6.9-7-12.4-12.1-17.5-4.6-4.7-8-9.8-8.7-16.9-.8-8.5-5.7-15.5-10.7-22.1-3.5-4.7-7.1-9.3-11.6-13.1-3-2.5-4.4-5.5-4.9-9.2-.6-5-1.7-9.9-3.6-14.7-2.5-6.4-6.4-11.7-12.3-15.3-5.3-3.3-10.8-4.4-16.6-1.1-2.7,1.6-5.5,1.6-8.4.5-7.7-2.7-11.4-1.3-15.5,5.5-.7,1.3-1.3,2.7-3,3-2.4-4.3-3.4-9.1-4.8-13.7-3.3-10.5-6.8-21-11.5-31.1-5.2-11-11.9-20.9-20.3-29.7-6.9-7.3-14.2-14.4-20.5-22.3-4.2-5.3-7.7-10.8-8.8-17.7-.8-4.7,0-8.5,3.2-12.6,19.9-25.1,44.9-44.1,72.4-60.1,16.5-9.6,33.9-17.2,51.3-24.9,10.3-4.6,20.5-9.1,30.1-15,31.9-19.3,53.8-46.7,65.9-81.8,5.8-16.9,10-34.3,14.8-51.6,2-7.2,4.1-14.4,6.9-21.3,7.2-18.2,19.3-31.8,37.1-40.2,10.2-4.8,20.6-8.9,31.2-12.5,7.4-2.5,14.7-5.1,22.1-7.7,3.5-1.2,3.5-1.3,4.2,2,1.9,9.2,3.5,18.5,4.6,27.9.8,6.3-.5,11.9-4.4,17-9.6,12.5-19,25.2-28.6,37.7-3.3,4.3-7.7,7.5-11.7,11-8.5,7.3-12.7,16.6-12.9,27.9,0,5.2.3,10.4,1.1,15.5,1.5,8.8,2.8,17.7,4.9,26.4,1.4,6.1,4.1,11.6,7.2,17,1.9,3.3,4.2,5.7,8.3,5.4-.9,2-2.9,1.9-4.6,2.1-9.1.6-16.2,4.7-19.4,13.3-3.3,8.9-1.4,17.3,4.6,24.7.8,1,1.7,2,2.6,2.9,2.6,2.5,3.5,5.3,2.5,8.9-4.2,16,1.4,29,12.5,40.3,1,1,2,2.2,3.2,3.1,5,3.5,6.2,8.4,6.5,14.4.9,17.7,7.3,32.6,23.6,41.8,2.6,1.5,4,3.6,4.5,6.5,4,20,16.7,32.3,35.8,37.2,9.9,2.5,17.6,5.4,23.4,14.8,6.4,10.5,17.8,13.1,29.7,11.8,4.3-.5,8.3-.1,12.3,1.8,7.6,3.6,15.5,3.4,23.3.9,4.3-1.4,8.2-3.9,10.2-7.9,3.2-6.5,8.7-8.2,15.1-8.9,6.7-.8,10-3.5,11.3-9,.5-2.1,0-4.2-.1-6.3-.2-2.2-.8-4.6,1.4-6.3,3.1,5.3,5.7,10.8,7.7,16.6,0,2.3-.3,4.4-1.1,6.6-19.2,47.7-45.3,91.3-79,130.2-11.7,13.5-23.7,26.7-37.3,38.4-1.6,1.4-3.3,2.6-5.3,3.3Z"/>
        <path class="cls-9" d="M1407.3,1233.4c-.2,2.4,0,4.8.5,7.3,1.8,9-3.6,15.8-12.8,16.1-3.4.1-6.3,1.5-9.5,2.1-1.1.2-1.5,1.1-1.9,2-3.9,9.3-11.5,13.3-21,14.4-6.1.7-12.2.2-17.6-2.8-3.4-1.9-6.7-2.1-10.3-1.6-14.5,2.2-28.6-3.5-35.1-16.3-2.9-5.8-7.1-7.6-13.2-8.6-19.7-3.3-34-14-41.6-32.8-1-2.4-1.7-4.9-1.7-7.6,0-2.4-.9-3.9-3.1-5-14.7-7.5-21.8-20.3-24.4-36.1-.6-3.7-1-7.4-.9-11.1,0-3.2-1.1-5.4-3.6-7.5-9.3-7.8-16.6-16.9-19.1-29.2-1.2-5.9-1-11.7.8-17.3,1.1-3.6.2-5.6-2.4-8-6.3-5.8-9-13.1-9-21.8,0-10.9,9.5-20.8,21-21.8,2.1-.2,4.2-.2,6.3-.3,5.3.1,9.9,1.9,13.4,5.9,1.5,1.7,3.1,2.1,5.2,2.1,4.5,0,9.1,0,13.6.9,7.5,1.4,13.8,4.9,18.6,10.8,4.2,5,8.8,9.5,13.8,13.7,9.2,7.6,15.7,17.3,19.5,28.6,2.2,6.4,5.7,11.3,10.8,15.7,9.8,8.5,17.8,18.5,23.1,30.4.7,1.6,1.7,2.6,3.3,3.2,7.6,3,13.8,7.8,18.3,14.7,1.1,1.6,2.2,2.6,4.4,2.1,8.4-2.1,17-2.4,25.6-1.8,6,12.4,11.9,24.9,18.1,37.2,3.7,7.4,7.5,14.7,10.6,22.4Z"/>
        <path class="cls-13" d="M1316.4,1012.7c-.1-6-.3-12,1.6-17.9.6-1.9.2-3.5-1.3-4.8-.6-.5-1.2-1.1-1.8-1.7-6.8-6.2-10-14-9-23.1.3-2.4-.9-3.6-2.3-4.9-8.6-8.1-10.3-18.1-7.5-29.1,2.1-8.5,9.7-14.2,17.7-14.2,6.4,0,10.5,3.8,14.2,8.3.6.7,1.2,1.6,1.6,2.4.9,1.7,2,1.8,3.6,1,2.7-1.5,5.5-2.7,8.6-3.1,6.4-.8,12.3.5,17.7,3.9,7.7,4.8,13.1,11.5,15.9,20.3.4,1.4,1,2.7,1.4,4.2.5,2.1,1.7,3,3.8,3,2.8,0,5.5,0,8.3,0,14.5,2,22.7,10.8,26.7,24.3,1.7,5.8,2.5,11.7,2.5,17.8,0,6.9-1.4,13.2-6,18.6-1.3,1.6-1.8,3.3-1.9,5.4-.3,11.9-4.5,22.5-11.6,32-2,2.7-3.2,5-2.3,8.7,1.8,7.3-1,13.6-7.3,17.8-8.4,5.5-17.6,6.5-27,3.2-6.1-2.1-10.5-6.4-13.2-12.3-1-2.1-2.2-3.7-4.4-4.9-9.5-5.6-14-14.3-14.2-25.1,0-4-.9-7.1-3.8-10-5.4-5.4-8.1-12.5-10-19.8Z"/>
        <path class="cls-11" d="M1644.5,1219.9c-2.7-2.2-3.9-4.7-3.1-8.4.7-2.9.2-6.2,0-9.2-.2-5.4.5-10.7,1.4-16,.5-3-.2-4.8-2.1-5.1-1.8-.2-3.4,1.3-3.9,4.2-.9,5-1.5,10-1.2,15,0,1.6,0,3.1,0,4.5-1.1.3-1.4,0-1.7-.5-7.1-13.5-14.1-27.2-17.1-42.4-1.2-6.1-1.3-12.3.2-18.4.3-1.1.6-2.2.8-3.3.2-1.6-.2-3-1.9-3.5-1.7-.5-2.9.2-3.6,1.7-1.3,3-1.9,6.2-2.1,9.5-.5,8.5.4,16.9,3.2,25,.2.6.6,1.2,0,2.1-2.6-.7-4-2.9-5.9-4.6-2.6-2.3-4.2-2.7-5.4-1.3-1.2,1.3-.9,3.6,1.1,5.6,3.8,3.8,8,7.2,12.8,9.6,1.5.7,2.3,1.6,2.9,3,5.3,12.7,11.9,24.6,19.7,35.8-7.3,1.3-14.5,1.6-21.7-.2-10.8-2.7-18.2-10-24.4-18.4-7.9-10.8-11.5-23.2-11.6-36.5-.2-22,6.6-41.8,19-59.8,3.6-5.3,7.3-6.2,12.9-2.9,8.1,4.7,15.1,10.7,21.2,17.8,4.2,4.9,8.3,10,11.5,15.7,4.9,8.5,6.6,18,8.5,27.3,1.3,6.2,2.3,12.5,2.7,18.8.7,10.9-.8,21.5-8.4,30.1-1.4,1.6-2.1,3.7-4,4.9Z"/>
        <path class="cls-2" d="M1652.1,1376.8c-2.1,10.7-5.4,21-9.8,31-.7,1.6-1.4,3.3-2.7,4.6-4.4,0-8.8-.1-12.8-2.3-2.1-1.2-3.3-.3-4.4,1.4-1.6,2.5-3.6,4.7-5.8,6.6-5.2,4.5-11.1,7.3-18.2,7-9.8-.3-17.3-7.6-18.2-18.2-.2-2.3-.2-4.6,0-6.8.2-2.3-.7-3.6-2.9-4.3-4.1-1.3-7.6-3.7-10.5-6.8-7.6-8-7.7-19.1-.3-27.3,3.4-3.7,7.4-6.3,12.1-7.9,2.5-.8,3.6-2.1,3.8-4.8.2-3.7,1-7.4,2.3-10.9,5.9-15.1,23.2-18.9,34.4-7.2,3.1,3.3,5.4,4.1,9.8,2.5,7.9-3,19.2-1.7,27,10.2-.2,9.5-1.1,19-2.8,28.4-.4,1.6-2,3-1,5Z"/>
        <path class="cls-13" d="M1651.8,1071.8c.7-1,1-1.6,1.4-2.1,2.9-3.8,6.8-5.2,10.7-3.9,4.3,1.4,7.2,5.5,6.9,10.1-.2,2.7-.8,5.5-1.5,8.1-.4,1.8.1,2.8,1.8,3.3,2.7.9,5.1,2.1,7.3,3.9,3.9,3.2,5.3,8.2,3.6,12.7-1.6,4-4.4,6.4-8.9,6.4-2.1,0-4.2-.2-6.5-.3-1.1,1.3-1,3.2-1.4,4.9-.7,3.4-1.9,6.6-4.2,9.2-4,4.5-10.3,4.2-13.8-.7-2.2-3.1-3.1-6.8-3.5-10.5-.4-3.9-.6-4.1-4.5-3.4-2.6.5-5.1.6-7.7-.1-3.9-1-6.9-3.1-8-7-1.2-4.2.5-7.6,3.3-10.7.2-.2.5-.4.7-.7,1.6-1.8,5.1-1.9,5.4-4.4.3-2-1.4-4.2-2-6.4-1.8-6-.5-11,3.4-13.6,3.8-2.5,9.3-1.8,14,1.9,1.1.9,2.2,1.9,3.6,3.1Z"/>
        <path class="cls-22" d="M1152.4,661.9c5.2,2.2,10.6,3.9,15.6,6.6-2.1,7.4-8.4,10.4-14.8,6.8-9.8-5.4-19.9-8.7-31.2-6.5-11.2,2.2-19.5,7.9-23.8,18.6-1.6,4-4.1,5.6-8.3,4.7-2.7-.6-5.4-.9-8.2-.8-8.1.3-14.4,5-16.5,12.8-1.5,5.8-1.6,11.7,1.4,17.1,6.2,11,15.1,18.2,28.4,18.3,3.8,0,6.9,1.2,9.4,4.3,6.5,8.3,15.1,12.1,25.6,11.4,4.5-.3,7.8,1.5,9.8,5.7,1.5,3.1,3.8,5.7,5.7,8.5,1.1,1.5,2.8,2.9,1.9,5.2-.4,6.7.6,13.4,1.4,19.9,1.9,14.4.6,28.1-5,41.6-3.3,8-5.4,16.3-6.5,24.9-.5,4.1-.4,8.1.4,12.1.7,3.9,2.2,7.7,1.3,11.9-.3,1.6.5,3.2,1.6,4.5,1.1,1.4.9,2.5-.1,3.9-9.4,13.1-14.1,28.1-18.4,43.3-4.7,16.9-8.8,34-14.5,50.6-11.8,34.2-33.6,59.8-65.5,76.7-14.8,7.8-30.5,13.9-45.6,21-29.2,13.6-56.4,30.3-80.5,51.9-4,3.6-7.7,7.4-11.6,11.1-1.7-.9-.9-2.4-.8-3.5,1.2-20.3,1.7-40.6,3.5-60.9,2.4-27,0-53.6-8.2-79.6-.5-1.5-.8-3.1-1.1-4.7,1.2-1.3,2.7-.8,4.1-.6,5.2.7,10.3.8,15.3-1.4,2.2-1,4.5-.6,6.7,0,5.7,1.5,11.3,1.4,16.7-1.2,3.2-1.5,6.3-1.3,9.3.5,8.6,5,17.5,5.7,26.7,2,3.1-1.3,6.3-1.3,9.6-.4,7.2,2,13.8.9,20-3.4,2.6-1.8,5.6-2.6,8.5-3.5,10.2-3,16.1-14.1,13-24.4-1.4-4.8-4.4-8-9.3-8.9-3.4-.7-5.9-2.5-7.9-5.3-3.5-5-7.9-9.1-13.1-12.2-1.5-.9-3.1-1.9-3.6-3.8,1-5.6,4.1-10,8.3-13.3,11.7-9.5,21.3-20.5,27-34.7,1.1-2.7,3-4.6,5.7-5.7.3-.1.6-.3.9-.4,21.6-10.5,26.8-28.3,17.1-49.6-2.3-5.2-3.4-9.8-1.8-15.4,2.2-7.9,1.2-15.8-2.2-23.3-2.5-5.6-6.4-9.8-12-12.3-4.2-1.9-5.9-5-6.1-9.6-.4-9.6-1.7-19.1-7-27.6-1.4-2.2-1.9-4.8-2.4-7.4-4.5-20-17.9-29.3-38.3-26.2-4.4.7-8.3.2-12.3-1.6-6.7-3-13.4-5.8-20.7-7-6.3-1-12.3-.8-18.1,2.2-2.2,1.2-4.5,1.6-7.1,1.3-8.1-.9-14.8,2.5-20.1,8.1-12.3,12.8-15.6,28.1-11.1,45.2.8,3,2.1,5.9,4.4,8.1,3.5,3.4,4,7.1,1.9,11.5-4.1,8.4-5.3,17.3-5.3,26.6,0,6.2,1.1,12,4,17.4,2.2,4,2.8,7.9,1.1,12.1-.7,1.6-1,3.4-1.1,5.2-.2,3.1-1.7,5.4-4.1,7.4-11,9.2-11.5,17.4-1.8,28.1,2,2.2,3.4,4.6,4,7.6,1.7,8.2,6.7,13.6,14.4,16.5,3.8,1.4,6.8,3.6,8.9,7.1,3.3,5.5,7,10.7,14.4,11.2,2.2.1,3.1,2.2,3.7,4.1.8,2.5,1.6,4.9,2.3,7.5-.5,3.9-2.4,7.4-4,10.9-1.3,2.8-3.7,3.8-6.7,3.9-6.4.2-12.6,1-17.9,5.1-4.8,3.7-8.1,8.2-8.4,14.6-.3,7.6-5.3,12-13.5,12.1-9.1-26.1-19.2-51.9-23.9-79.2-2-11.7-2.8-23.6-3.5-35.4-1.4-23.6-4.1-46.9-9.7-69.9-1.3-5.4-2.9-10.7-4.4-16-4.5-15.4-12.6-28.8-23.5-40.5-4-4.3-8.2-8.4-11.9-12.9-9.2-11.1-14.8-23.6-13.7-38.4.3-3.8,0-7.5-.9-11.1,18.3-8.5,37.1-15.6,56.4-21.5,18-5.5,36.3-9.8,54.9-13.2,5.1-.9,10.2-1.7,15.3-2.6,2.8-2.2,6.2-2.5,9.6-2.9,21.1-3,42.4-2.9,63.7-2.8,24.8,0,49.2,3,73.5,7.3,24.5,4.4,48.4,11.2,71.9,19.4,3.3,1.2,7,2,9,5.4Z"/>
        <path class="cls-13" d="M630.2,1070.3c-1.9,12.6-8.7,21.8-19.2,28.7-1.5,1-3,1.9-4.5,2.9-5.7,5.6-12.6,5.6-19.8,4.4-.5-.1-1-.3-1.5-.4-.7-.2-1.5-.4-2.2-.6-6.1-2.1-10.9-5.7-14.3-11.2-3.7-5.2-4.7-10.9-3.7-17.1.4-4.7,3.4-8.6,3.4-13.4-.6-1.7-2.3-1.9-3.6-2.6-.4-.1-.8-.3-1.2-.5-.8-.4-1.7-.7-2.5-1.1-12.1-9.1-16.3-21.8-15.5-36.3.7-12.2,5.3-23,13.2-32.3,3.1-3.6,3-6.8.6-10.5-1.5-2.3-3.1-4.6-4.6-6.9-2.7-4.1-4.8-8.5-4.1-13.6,0-.6,0-1.3,0-1.9-1.9-14.9,3.2-27.5,12.8-38.6.6-.7,1.2-1.5,1.7-2.3,2.7-3.2,5.6-6.1,8.9-8.7,3.5-2.4,6.9-4.9,10.4-7.3,7.4-4.9,15.5-7.4,24.5-6.4,2.4.3,4.4-.3,6.4-1.7,15.5-10.2,32.6-14.3,51-13.1,3.9.2,6.4-.6,9-3.9,5.8-7.4,13.9-9.7,23.1-8.1,2.2.4,4.4,1,6.6,1.5,2.7-.6,4.7.9,6.7,2.2,19.6,12.7,25.4,34,14.9,54.8-1.1,2.3-1.6,4.5-1.4,7,1.2,17-6.1,29.9-19.4,39.7-3.7,2.7-6.3,5.8-7.2,10.5-.8,4.1-2.3,8.1-4,12-7.2,15-18.6,25.2-34.3,30.6-3.1,1.1-4,3.3-4.5,6.3-.8,4.5-.4,9.6-4.8,12.8-3.4,7.9-9,13.8-16.5,18-2.9,1.6-5,3.6-4.4,7.3Z"/>
        <path class="cls-13" d="M1147.4,774.4c-3.8-4.8-7.9-9.5-10.3-15.3-.7-1.6-1.9-2-3.5-1.9-2.3,0-4.6,0-6.8,0-9.9-.4-17.9-4.5-23.9-12.3-1.8-2.4-3.6-3.5-6.8-3.3-15.9,1-29.2-12.5-32.5-22.9-1.7-5.3-1.8-10.6,0-15.8,3.1-8.6,10.4-13.5,19.5-13.3,3.1,0,6.2.6,9.1,1.5,2.3.7,3.2,0,3.7-2.2,1.5-6.1,5.1-10.9,9.9-14.7,7.8-6.1,16.9-8,26.6-7.4,8,.5,15.3,3.2,21.9,7.6,3.4,2.3,5.7,2,8.5-.6,1.8-1.7,3.9-2.9,5.3-5,7.3-5.7,15.4-8.9,24.8-8.4,6.1.4,11.8,2.1,17.2,4.9,9.2,4.8,17,11.3,23.5,19.4,3.4,4.2,6.3,8.9,6.7,14.4.4,5.7,2.7,10.2,6.8,13.9.8.4,1.4,1.1,1.9,1.7.5.5,1.1.9,1.5,1.4,2.9,4.6,7,8.6,5.7,14.8,1.9,5.7,3.4,11.5,3.8,17.5.2,2.7.2,5.8,3.6,7.4,8.3,4.1,13.2,15.2,9.2,26.1-5,13.6-14.6,22.3-29.2,24.9-3.5.6-6.7-.8-10.1-.8-7.4-1-14.7.4-22,.4-1.5,0-2.8-.8-4.3-.9-8.5-1.5-15.4-5.7-21.1-12-2.5-2.7-5.2-4.1-8.8-4.3-7.4-.4-14.3-2.5-20.8-6.1-2-1.1-4-2.2-4.3-4.9l-4.8-3.6Z"/>
        <path class="cls-9" d="M795.1,1246.2c-1.2-.4-2.6-.6-3.7-1.2-3.3-1.7-5.8-2.3-9.3.8-4.8,4.1-11.5,2.2-14.9-3.7-1.9-3.3-4.1-5.2-7.7-6.7-7.5-3.1-12.8-8.8-12.4-17.5.3-5.5-2.4-8-6.8-9.7-1.9-.7-3.4-1.8-4.6-3.4-2.9-3.9-2.7-7.9-.1-11.8,1.3-1.9,1.3-3.6,1-5.8-.6-3.8-.5-7.7-2.9-11.1,0-.1-.1-.3-.1-.5,0-5.1,0-10.1-.9-15.2-.6-3.6,3.6-8.4,7.3-8.6,5-.2,6.7-2.9,7.6-7.3-1.7-.2-3.4-.3-5.1-.9-5.8-2-8.8-8-6.5-13.2,2.5-5.7,8.7-7.9,14.3-5.1,1.4.7,2.7,3.3,4.5,1.4,1.6-1.8-.8-3.1-1.6-4.5-4.8-7.6-4.8-15.5.1-22.8.5-.7.9-1.4,1.4-2,1.1-1.3.9-2.3-.6-3-2.3-1-3.9-2.9-5.7-4.5-5.4-4.8-7.6-13.3-2-21.8,2.3-3.5,5.4-6.5,9.1-8.8,8.2-5.1,16.4-3.2,22.3,3.5,1.7,2,3.4,2.9,5.8,2.6,9.6-1.1,16.1,4.7,18.3,14.4.6,2.4,1.2,4.8,3.7,6,2.3,3.3,3.6,7,2.3,11-.8,2.3.6,3.6,1.8,5.1,4.8,5.7,8,12.3,6.5,19.7-1.1,5.6-.1,9.8,2.8,14.4,2.9,4.6,3.2,10.2,3.3,15.6,0,1.9.3,3.3,2.4,4.1,7.6,2.9,12.6,11.4,10.7,22.3-.6,3.6-.1,5.9,2.7,8.4,3.9,3.5,6.3,8.2,7,13.6.3,2.5.3,5-.9,7.1-2,3.6-3.3,7.4-5.1,11-1.5,3.1-3.6,5.9-6.7,7.6-3,1.6-4.8,4.1-6.8,6.7-7.7,9.9-17.7,15-30.5,13.7Z"/>
        <path class="cls-9" d="M966.8,1301.8c.6-1.5,1.1-3.1,1.7-4.5,2.8-6.1,9.8-9,15.9-6.1,3.4,1.6,5.9,1.8,9.4-.3,6.3-3.8,12.6-1.6,18.3,2.1,9.6,6.3,13.2,16.1,15.3,26.7,0,.2,0,.3,0,.5.4,5.3,2.1,9.6,6.4,13.3,7.4,6.4,13,14.4,17.6,23.1,2.5,4.8,4.2,9.9,4.3,15.3,0,2.6,1.2,4.6,2.8,6.6,3.7,4.8,8.4,8.6,11.9,13.5,1.5,2.1,3.1,4.3,3.9,6.7,1.2,3.9,3.7,6.7,6.4,9.6,5.3,5.5,9.4,12,13.1,18.7,2.1,3.9,4.8,7.1,8.6,9.6,12,8,19.9,19.1,23,33.2,1,4.6,3.9,7.4,7.5,9.6,7.1,4.5,10.8,13.3,8.8,21.3-1.1,4.5-4,7.4-7.9,9.4-5.1,2.6-10.6,3.2-16,.9-2.5-1-4.2-.6-5.9,1.5-2.5,3.1-5.7,5.3-9.3,6.9-1.9,2.9-4.9,2.9-7.9,2.6-9.6-1-15.9-10-14.4-20.8.6-4.2,1.8-8.3,1.5-12.5.3-1.6,1.4-2.5,2.5-3.4,9-7.5,7.3-18.4-3.7-22.8-3.7-1.5-7.5-2.1-11.4-1.7-1.7.2-3.6.8-5.1-.7-1.1-2.3-2.9-3.6-5.4-4.5-10.3-3.9-17-11.2-19.3-22.1-.5-2.4-1.7-3.8-3.8-5.1-14.1-8.6-22.8-21.1-25.8-37.3-.8-4.2-3.6-6.3-6.1-8.9-1-1-2.5-.3-3.8-.2-9.2.7-16.4-3-22.1-10-8.6-10.4-8.4-21,.6-31-.1-1.6-1.7-1.8-2.7-2.4-3.5-2.2-6.7-4.7-9-8-5.1-7.1-5.8-14.7-1.5-22.4,1.2-2.1,1.7-4.1,1.5-6.4Z"/>
        <path class="cls-9" d="M693.1,995.3c1.7-5.2,3.7-10.4,4.6-15.9.5-3,2.4-5.2,5.1-6.7,4.5-2.5,8.1-5.9,11.3-9.9,7.3-9,10.7-19.2,9.2-30.8-.3-2,0-3.7,1-5.6,11.4-20.4,5.5-42.2-14.7-54.6-1.5-.9-3-1.9-4.5-2.8-4.4-6-6.1-12.4-3.7-19.7,3.2-9.7,15-15.2,24.2-7.1,1.2,1.1,2.4,2.1,4.1,2.5,4.4,1.1,7.3,4.1,9.5,7.8,1.1,1.9,2.4,2.9,4.5,3.1,3.6.4,6.7,2.4,10,3.6,6.1,4.5,8.9,10.6,9,18,0,1.2.1,2.2,1,3.1,7.4,7.4,11,16.8,14.3,26.3,1.2,3.3,2.7,5.8,5.9,7.8,8.6,5.4,9.3,13.9,7.7,22.9-.3,1.6-.7,3.2-1.3,4.7-2.1,5-3.8,9.9-3.4,15.5.2,3.4-1.7,6.6-3.2,9.6-1,1.9-1.4,3.2.7,5,3.9,3.4,4.3,7.7,2.5,12.5-4.5,11.4-11.4,16.1-24,16-1,0-2.2-.3-2.9.2-4.7,3.5-10.7,4.6-14.9,9-3.3,3.4-7.2,6.1-11.7,7.7-4.3,1.5-8.5,1.9-12.9.7-2.8-.8-5.7-1.4-8.5-2-5.4-.3-7.7-4.3-9.3-8.5-1.2-3.2-2.8-5.5-6-7.1-2.1-1-4.4-2.3-3.6-5.5Z"/>
        <path class="cls-13" d="M994.2,936.5c7.8,4.3,14.3,10,19.1,17.6.7,1.2,1.7,1.7,3.1,1.9,8.7,1.2,13.5,6.2,13.6,14.8.1,7.8-2.4,14.7-8.9,19.6-.5.4-1.1.9-1.7,1-7,1.6-13,5.4-19.3,8.4-4.7,2.2-9.9,1.8-14.8,0-3-1.1-5.5-1-8.4.2-10,4.4-19.7,3.3-28.8-2.5-2.4-1.5-4.1-1.7-6.6-.3-6.1,3.6-12.6,4.1-19.2,1.3-1.4-.6-2.7-1.1-4.2-.2-6.7,4.1-13.6,3.4-20.7,1-2-1.3-4-2.7-5.8-4.3-4.6-4-5.7-11.2-3.1-16.5.4-.7.7-1.5,1-2.2,2.8-2.3,5.8-4.1,9.4-4.9,2-.4,2.5-1.6,2.2-3.5-2.2-12.3,8.8-22.6,20.4-24.6,2.9-.5,5.8-.9,8.7-.5,2.2.3,3.3-.5,4.1-2.4,1.5-3.5,2.5-7.3,4.8-10.6,1.1-5,5.2-6.9,9.2-8.7,11.2-5.1,32.3-.3,38.5,8.1,2,2.8,5.4,4.2,7.2,7.2Z"/>
        <path class="cls-13" d="M1064.2,1460.2c6.5-2.1,12.8-1.7,18.9,1.4,4.9,2.5,8.2,6.3,9.1,11.9.8,5.5-1.6,10.4-6.4,13.1-1,.6-2,1.1-2.9,1.7-1.2,2-3,3.7-3,6.4,0,14.1-11.5,21.9-22.5,23.2-6.3.7-11.8,1.1-13.9,8.2-.2.6-.9.9-1.6,1.1-3.9,4.9-8.5,9-14.9,10.2-10.5,2-20.3-.1-29.5-5.5-1.2-.7-2.5-1.7-3.2-2.9-2.2-3.9-5.9-5.7-9.7-7.6-7.2-3.5-12.6-9-17-15.7-1-1.5-1.8-2.9-4.1-2.9-7-.2-12.4-5.4-13.1-14.3-.7-8.6,4-18.4,11.3-21,6.2-2.2,12.2-4.8,18-7.9,4.5-2.3,9.5-1.5,14.4-.8,3.1,1.9,6.1,1.9,9.6.5,9.8-4,19.4-3.1,28.2,2.8,2.5,1.7,4.6,1.8,7.1.3,5.7-3.3,11.8-3.6,17.7-1.2,3,1.2,5.2,1,7.5-1Z"/>
        <path class="cls-13" d="M744.3,1348.7c-4.2-2.8-8.1-5.9-10.9-10.2-1.4-2.2-3.6-1.9-5.7-1.2-2.6.9-5.3,1.6-8,1.7-12.7-2.6-22.8-14.8-22.9-27.9,0-.6,0-1.4.2-1.9,1.9-4.6.7-9.2,0-13.8-.9-5.9.2-11.7,2.1-17.2.6-1.8.6-3.2-.4-5-2.8-4.9-2-9.7,1.7-13.9,6.9-7.9,18.4-8.6,26-1.5,1.4,1.3,2.8,2,4.6,2.5,6.7,1.8,11,6.1,13.2,12.5.9,2.6,2.2,4.5,4.7,5.8,3.5,1.8,6.3,4.5,8.4,8,2.7,3.8,3.9,8.2,4.3,12.7.2,2.3,1.1,3.5,3.1,4.4,5.2,2.5,8.9,6.3,10.4,12.1.4,1.4.7,2.9,2.5,3.2,5.4,2.7,8.7,7.2,10.2,13,1,3.9.7,7.8-1.5,11.3-3.3,5.3-9.4,6.9-14.8,3.9-1.1-.6-2.2-1.4-3.2-2.2-.9-.6-1.7-1-2.6,0-6,6.4-13.1,6.2-20.7,3.8-.2,0-.3,0-.5,0Z"/>
        <path class="cls-22" d="M1207.3,803.9c5.6.8,11.2.9,16.6-1,1.7-.6,3.1.2,4.6.8,1.6.7,3.3,1.4,4.9,2,0,10.3,1,20.4,2.2,30.6.5,4.5.7,4.7-3.7,6.3-7.3,2.7-14.6,5.4-22,7.9-11.6,3.9-23,8.1-34,13.5-5.9,2.9-11.6,5.9-16.8,9.9-.8.6-1.5,1.3-2.6,1.3-2.3-3.8-2.8-7.9-2.2-12.2,1.2-8.1,3.2-15.9,6.7-23.3,1.5-1.3,3.1-.5,4.6,0,5.7,2.1,10.9.6,14.6-3.6,7-8.1,13-17,21.5-23.7,2.6-2.1,2.9-6.1,5.5-8.5Z"/>
        <path class="cls-9" d="M1207.3,803.9c-1,7.7-5.5,13.1-11.9,16.8-3,1.7-5,3.6-6.3,6.8-1.8,4.6-5.1,8.4-9,11.3-4.8,3.6-10.1,5.1-15.9,2.2-1-.5-2.1-.9-3.1-1.3-5.4-5.8-7.1-12.6-5.5-20.3.3-1.4.2-2.5-.3-3.8-2.6-6.3-2.6-12.7-.7-19.1.8-2.9.7-5.2-.6-7.9-1.6-3.3-3.4-6.7-1.8-10.6,7.7,5.9,16.5,8.9,26.1,9.2,3.7.1,6.4,1.4,8.7,4.3,5.3,6.5,12.4,10.2,20.3,12.4Z"/>
        <path class="cls-22" d="M693.1,995.3c1.4,3.1,4.3,4.3,7.1,5.4,1.7.7,2.6,1.6,2.9,3.4.8,5.5,4.3,9.3,8.8,12.2-15.5,6.2-30.1,14.3-44.8,22.1-5.1,2.7-10.2,5.6-16.1,6.6,1.8-5.1,3.1-10.3,3.5-15.6.2-2,.7-3.6,3-4.3,16-4.9,27.7-15,35.5-29.8Z"/>
        <path class="cls-26" d="M1292.1,746.2c.2-2.3-1.7-3.7-2.7-5.4-3.1-5.5-6.6-10.8-10.3-15.9-1.3-1.9-2.8-3.5-4.3-5.3-2.4-2.8-4.9-4.7-8.7-2.5-1.1.6-2.3.6-2.9-.7-.8-1.7.4-2.4,1.7-2.9,5-1.9,10.3-2.8,15.5-4.2,1-.3,2,.2,2.4,1.2.4,1.2-.4,1.8-1.3,2.2-1.5.6-3.1.8-4.7,2,1.2,2.8,3.4,4.9,5.2,7.4,6.3,8.6,11.6,18,17.4,27,1.6,2.5,3.9,4.8,4.5,8-3.9-3.5-8.1-6.9-11.6-10.9Z"/>
        <path class="cls-19" d="M1256.2,730.6c-1.7-5.4-4.5-10.3-7.3-15.2h-.1c-.6-1-1.1-1.8-1.7-2.7,4.4,1.1,7.1,4.8,10.9,6.9,1.5.9,2.8,2.2,4.1,3.3-1.6,2.8-3.4,5.6-5.8,7.7Z"/>
        <path class="cls-23" d="M868.3,1261.7c-3.4-1.1-6.8-2.5-10.6-2-2.4.3-3.7-1.4-5-3,1.8-1.8,3.6-3.7,5.4-5.5,1.4-1.4,2.5-1.7,3.7.4,2.1,3.4,4.3,6.7,6.5,10Z"/>
        <path class="cls-2" d="M742.1,614.5c-5.6,0-5.5,0-6.8,5.8-2.7,12.1-9.4,21.1-21.5,25.1-11.4,3.8-22.8-3.1-25.3-14.9-.5-2.5-.1-5.7-1.5-7.5-1.7-2.1-4.9.2-7.4-.2-3.2-.5-6.5-.6-9.6-1.7-10.6-3.6-16.3-13.6-14-24.7,1.2-5.6,3.7-10.5,7.7-14.4,2.1-2,2.7-4,2.2-6.9-1-6.4-.2-12.6,2.8-18.5,4.9-9.6,17.6-16.8,30.3-9.2,2.6,1.6,3.9.9,5.7-.9,5.7-5.6,12.7-7.8,20.6-6,9.1,2.1,15.1,9.8,15.7,20,.1,1.9.2,3.9,0,5.9-.3,2.5.9,3.6,3.2,3.8,4.6.5,8.9,2,12.9,4.2,15.2,8.4,15.5,26.9.7,35.9-4.9,3-9.5,4.2-15.8,4.2Z"/>
        <path class="cls-11" d="M788,432.9c3.8,1.4,5.3,5,7.7,7.8,1.1,1.2,1.8,2.7,2.8,4,2.2,3.2,3.5,3.9,5.3,2.8,2-1.2,1.9-2.8-.3-6.4-.5-.8-1.1-1.6-1.6-2.4-.5-.8-1-1.6-1.6-2.6,1.4-.9,2.6-.3,3.7,0,18,4.9,34,13.6,49.2,24.1,2.7,1.8,5.2,3.8,7.9,5.7.8.6,1.6,1.1,2.5,1.5,1.4.6,2.5.1,3.4-1.1.8-1.1.5-2.2-.2-3.2-.9-1.4-2.3-2.3-3.6-3.2-5.9-4-11.7-8.1-17.8-12.3,1.6-1.6,3.6-1.3,5.5-1.4,2.6-.1,5.2,0,7.8,0,1.6,0,3-.5,3.2-2.3.2-1.7-.9-2.8-2.4-3.2-1.1-.3-2.2-.4-3.4-.5-5-.2-10.1-.2-15,1.4-3.2,1-5.9.6-8.8-1-12.2-6.4-25.2-10.3-38.6-13.3,4.3-4.5,9.8-6.9,15.6-8.5,13.7-3.8,27-3,39.7,3.7,7.2,3.8,14.4,7.4,20.8,12.6,3.2,2.6,5.8,5.7,7.9,9.2,4.4,7.4,8.9,14.7,14.1,21.6,1.5,1.9,2.5,4.2,3,6.6.6,2.7,1.2,5.4,2,8,.9,3-.1,5.1-3,5.5-4.8.6-9.4,2.9-14.4,1.6-1-.3-1.9.2-2.8.6-3.6,1.6-7.4,1.5-11,.5-14.7-4-29.8-6.5-44.6-10.4-9.7-2.5-18.6-6.8-26.2-13.4-7.2-6.2-10.3-14-8.4-23.5.6-2.9,1-5.7,1.5-8.6Z"/>
        <path class="cls-13" d="M938.8,418.4c2.3-1.2,4.1-2.9,6.5-3.5,6.1-1.6,10.8,1.9,10.8,8.2,0,2.7-.7,5.2-2,7.4-1,1.8-.9,3.2.5,4.8,3.3,3.5,3.8,7.8,3.3,12.3-.3,3.4-1.7,6.2-4.2,8.6-3.3,3.2-7.1,3.8-11.2,1.7-1.3-.6-2.5-1.4-3.8-2.2-1.1,1.8-1.9,3.6-3.1,5.1-2.5,3.2-5.7,5.6-10,4.7-4.3-.9-6.4-4.1-7.1-8.3,0-.5-.3-.9-.3-1.4,0-2.7-1.2-4-4-4.5-5.6-1-9.7-4.3-12.9-8.9-6.1-8.9-1.8-18.7,8.9-20.4.5,0,1-.2,1.5-.1,3.2.4,4.2-1.2,4.5-4.2.2-2.4,1-4.7,2.2-6.9,3.9-7.3,12.4-7.6,16.9-.6,1.6,2.5,2.1,5.4,3.4,8.2Z"/>
        <path class="cls-11" d="M792.8,427.3c-.3,0-.5,0-.6-.4.3,0,.5.1.6.4Z"/>
        <path class="cls-3" d="M1258.4,626.5c.7,4,.5,7.9.5,11.8,0,.8,0,1.6,0,2.4-.1,1.5-.1,3.3-2.1,3.2-2-.1-1.8-2-1.8-3.4.3-6.2-.1-12.3-2.7-18.1-.6-1.4-1.1-2.7-2.2-3.7-8.2-7.9-15.5-16.6-23-25.1-5.8-6.5-11.1-13.5-16.5-20.5-1.4-1.8-2.5-3.8-2.5-6.2,0-.8.1-1.7,1.1-2,.9-.3,1.6.2,2,1,6.6,12.9,17.3,22.6,26.3,33.5,5.1,6.2,10.7,11.8,16.5,17.2,14.2,13.2,30.7,22.9,49.1,29.1,4.4,1.5,9.1,2.7,13.9,1.2.3,0,.6-.1,1-.1,1.1,0,2,.5,2.2,1.5.4,1.5-.7,1.9-1.8,2.3-3,1-6.1.9-9.1.4-12-1.8-22.4-7.5-32.8-13.2-6.1-3.3-11.8-7.3-17.8-11.3Z"/>
        <path class="cls-12" d="M1042,1527.2c.8-2.3,1.7-4.5,2.5-6.8,1-2.8,2.8-4,5.9-3.7,6.3.6,12.2-.9,17.6-4.3,6.8-4.3,10.6-10.3,10.3-18.6-.1-4.5,0-4.5,4.6-5.5,1.9,2.5,1.2,5.2.5,7.9-.8,2.8-1.5,5.6-1.5,8.6.2,10.9,8.2,17.3,18.8,15.1.6-.1,1.3-.2,1.9-.4,1.4,2.9,2.7,5.8,4.1,8.8-3.2,2.2-7,2.4-10.6,3.2-15.6,3.9-31.4,6.8-47.4,8.9-1.1.1-2.2.7-3.2-.3-.5-4.5-2.1-8.7-3.6-12.9Z"/>
        <path class="cls-24" d="M1265.5,1534.6c-4.8-1.1-8.7-2.6-12.3-4.8-.7-.4-1.4-.9-2-1.4-1-.8-2.2-1.8-1-3.2.9-1.1,2.1-.6,3.1,0,4.3,2.8,8.9,4.6,13.9,5.5,4,.7,7.7.6,11.5-.6,18.1-5.9,36.5-10.4,55.2-14.1,2.2-.4,4.5-.6,6.7.5.9.4,1.9.9,1.5,2.1-.3.8-1,1.3-1.9,1.3-15.8.1-30.5,5.9-45.6,9.4-12.4,2.9-24.2,7.3-35.4,13.5-10.2,5.6-19.5,12.4-28.2,19.9-4.7,4.1-8.7,8.8-10.5,15,0,.2-.1.3-.2.4-.7,1.2-1.2,3.1-3.1,2.2-1.8-.8-1-2.4-.6-3.8,2.2-6.7,6.4-12.1,11.6-16.6,10.9-9.5,22.7-17.9,35.9-24.1.3-.1.5-.4,1.4-1.2Z"/>
        <path class="cls-26" d="M1179.8,1502c1.5-.9,2.9-1.9,4.7-2-1,4.7-1.9,9.5-2.9,14.2-.2.8-.2,1.6-.6,2.3-.5,1.1-.9,2.8-2.6,2.3-1.3-.4-1.2-1.7-1-2.9.2-1.4.3-2.9.5-4.4-1.3-1-2.5,0-3.6.2-6.6,1.4-13.3,2.9-20.1,2.8-1.9,0-3.7,1.6-5.6.2,4.5-1.7,9-3.4,13.5-5.1,4.5-1.3,9-2.3,13.3-4.2,1.9-.8,3.3-1.9,4.4-3.6Z"/>
        <path class="cls-22" d="M570,1093.4c3.7,5.1,8.2,9,14.5,10.4h0c.4.3.9.6,1.3.9,1.2,2.2-.1,4.1-1,5.9-11.4,23-24.8,44.8-38.2,66.7-1,1.7-2,3.9-4.6,3.7-.4-1.1-.7-2.1-1.1-3.2-1.8-10.8-4-21.6-5.3-32.4-1-8.3-2.3-16.6-2.3-25,0-2.6-.7-5.1-.9-7.7.6-2,2.1-3.2,3.9-4.2,9.1-5.1,18.4-9.8,27.8-14.3,1.9-.9,3.9-1.8,6-.7Z"/>
        <path class="cls-22" d="M550.8,959.7c2,8.8,7.9,15.5,12.1,23.2,1.4,2.6,1.1,4.2-.7,6.4-6.6,7.8-11.9,16.3-13.8,26.5-2.3,12.3-1.2,23.9,6.1,34.5,2.2,3.2,4.8,6.1,8.2,8.3.4.7,1.4.4,1.8,1.1h0c1.9,1.2,3.9,1.9,5.9,2.9.5.5.8,1.1.6,1.7-1.5,3.9-3,7.8-4.4,11.6-1,1.8-2.7,2.7-4.4,3.5-7.8,3.8-15.7,7.6-23.3,11.8-1.9,1.1-3.9,3.1-6.5,1.1,0-8.9-.3-17.9.2-26.8.5-9.8,1.1-19.7,2.5-29.5.3-1.9.2-3.9.3-5.8-.8-1.5-.4-2.8.7-4,2.8-20.1,6.9-39.9,12.1-59.4.7-2.5,1.2-5.1,2.7-7.3Z"/>
        <path class="cls-12" d="M532.2,1092.4c3.1-.9,5.7-2.8,8.6-4.3,8.5-4.2,16.7-8.9,25.6-12.3-.2,6.1,0,12.2,3.6,17.5-5,1.6-9.5,4.2-14.1,6.5-7.9,4.1-15.7,8.4-23.6,12.6-.3-5.9-.7-11.7-1-17.6,0-1,0-1.9.9-2.6Z"/>
        <path class="cls-24" d="M474.1,1091.6c3.7-3.8,7.2-6.6,11.5-8.3.8-.3,1.5-.7,2.3-.9.9-.2,1.6.3,2,1.1.4.9.2,1.7-.5,2.2-1.2.8-2.6,1.4-3.8,2.1-7.4,4.3-12.8,9.9-15.1,18.6-4.5,17-10.1,33.6-16.5,50-1,2.4-2.3,4.7-3.8,6.8-.5.7-1,1.3-1.8,1.6-.8.3-1.6.3-2.3-.3-.7-.7-.6-1.6,0-2.2,3.8-4.1,5.1-9.4,7-14.4,6-16.3,11.8-32.8,15.4-49.8,2.9-13.6,3.2-27.3,1.6-41.2-.6-5.7-1.1-11.3-2.9-16.7-1.2-3.4-2.4-6.7-4.6-9.6-.5-.6-1-1.3-1.3-2.1-.3-.8-.4-1.7.3-2.3.8-.7,1.5-.1,2.1.4,2.5,2.2,4.4,4.9,5.6,7.9,2.3,5.4,3.6,11.1,4.3,16.9,1.3,9.9.9,19.8,1.1,29.7,0,3.3-1.6,6.3-.6,10.5Z"/>
        <path class="cls-20" d="M574.2,908.2c-2.6,3.2-5.6,6.1-8.9,8.7,0-1.1.2-2.1,1.1-2.9,3-1.5,4.2-5.2,7.8-5.8Z"/>
        <path class="cls-17" d="M535.9,1026.4c.3,1.4-.2,2.7-.7,4-1.1-.7-2.2-1.4-1.7-3,.4-1.1,1.5-1,2.4-1Z"/>
        <path class="cls-5" d="M631.9,530.3c-.1.5-.5.8-1,.9.3-.3.7-.6,1-.9Z"/>
        <path class="cls-7" d="M1652.1,1376.8c-2.5-2.2-.7-3.6,1-4.9.2,1.7-.5,3.3-1,4.9Z"/>
        <path class="cls-4" d="M428.7,1609.4c4.5,1.1,8.3,3.4,12.1,5.8,2.3,1.5,4.3,3.3,6.9,4.4,2.2.9,3.6,2.7,3.6,5.3-8-4.5-15.5-9.6-22.6-15.5Z"/>
        <path class="cls-9" d="M548.7,1209.1c-1.5-2.8-2-5.9-2.9-8.9-1.8-7.9,1.6-13.6,8.2-17.5,3.5-2.1,5-4.6,4.9-8.6-.3-9.1,3.6-15.8,11-21.4,5.6-4.2,10.3-9.8,15.8-14.2,1.2-1,1.8-2.8,3.8-2.6,1.7-.6,2.2-2.3,3.3-3.5,5.5-6.5,17.8-10.4,26.3-.2,3.1,3.7,4.4,7.9,3.3,12.6-.6,2.4-.7,4.7-.4,7.2.9,9.3-2.1,17.3-9.1,23.6-2.1,1.9-3.4,4.1-4.4,6.8-2.8,7.3-7.8,13.1-14,17.7-2.7,2-4.9,4.1-6.7,6.8-2.9,4.2-6.8,7.4-11.4,9.7-5.3,2.7-10.7,2.8-15.8-.3-4-2.4-8.5-4.1-11.9-7.3Z"/>
        <path class="cls-12" d="M589.5,1135.9c-1.9,3.5-4.5,6-7.7,8.4-5.9,4.5-10.8,10.1-16.4,15-3.4,2.9-4.5,7.4-4.7,12,0,2.1,0,4.2,0,6.3,0,2.1-.6,4-2.7,4.8-8.3,3.1-11.4,9.7-12.2,17.8-2.4-5.5-3.1-11.5-4.4-17.3-.1-.6.3-1.2.5-1.8.4-.5,1-.9,1.3-1.4,14.3-23.6,29-47,41.1-71.8.5-1,1-2,1.5-3.1,7.2,1.2,14-.1,20.7-2.8-4.5,9.9-9.7,19.6-14.7,29.3-.8,1.6-1.5,3.2-2.2,4.8Z"/>
        <path class="cls-25" d="M464.6,1553.9c-9,0-15.8-6.5-15.9-15.5-.1-8.2,7.2-15.6,15.5-15.8,8.6-.2,16.4,7.5,16.2,16.1-.3,10.1-9,15.9-15.7,15.2Z"/>
        <path class="cls-16" d="M545.8,1622.7c.3-4.9,4.4-8.7,9.4-8.5,5.2.2,9.1,4.5,8.7,9.7-.3,4.9-4.6,8.8-9.4,8.6-5.2-.3-9-4.5-8.7-9.7Z"/>
        <path class="cls-9" d="M1115.8,1053.6c9.5-.4,17.5,3,24.2,9.7,5.1,5.1,8,11.1,7.5,18.4-.4,5.6,1,10.1,4.4,14.8,5.4,7.2,8.8,15.5,8.4,24.9-.2,5.8-2.2,10.8-5.6,15.3-4.8,6.4-10.9,11.1-18.2,14.2-3.2,1.4-4.5,3.3-4.9,6.9-1.4,10.9-4.9,21.2-10.8,30.5-2.7,4.3-5.8,8.3-8.1,12.8-.9,1.8-1.1,3.5-.9,5.6,1.2,11.4-.7,22-8.6,31-2.6,3-5.8,5.3-9.2,7.2-2.9,1.6-5.3,3.7-7.6,6-5.2,5.6-10.9,10.7-17.5,14.6-4.1,2.4-8.3,4.1-13.3,4.2-8.3.2-13.6-6.3-13.6-12.9,0-3.9-1.3-6.2-4.7-8-13.9-7.4-18.4-23.3-16.3-37.2.7-4.5,1.5-9,3.5-13.1,1-2.3,0-3.4-2-3.9-.8-.2-1.6-.2-2.4-.3-16.1-2.2-23.3-16-20.7-30.7.1-.6.3-1.3.5-1.9.7-3,1-12.6.5-15.8-1.4-7.7,4-17.4,11.9-20.4,3.4-1.3,5.7-3.1,7.7-6.1,5.9-8.6,14.1-14.3,23.9-17.6,2.4-.8,4.4-1.9,6.2-3.6,3.3-2.9,6.8-5.6,10.8-7.5,2.4-1.1,4.3-2.8,5.8-5,4.9-7,10.7-13.1,18.6-16.9,1-.5,1.9-1.2,2.6-2.1,7.3-8.8,16.5-13.5,28-13Z"/>
        <path class="cls-18" d="M1179.8,1502c.2,2.7-.8,4.4-3.7,5.2-4.6,1.3-9.2,2.6-14,2.5,5.8-2.9,11.7-5.5,17.7-7.7Z"/>
        <path class="cls-25" d="M1612.4,1354.4c9.4,0,16.6,5,18.9,12.5,2.4,8-1.5,16-9.3,19-3.6,1.4-7.1,3.1-11.2,2.9-7.5-.3-14.4-6.5-15.1-14-.9-9.4,2.7-16,10.6-19.3,2.2-.9,4.4-1.1,6.1-1.1Z"/>
        <path class="cls-16" d="M1663.3,1092.9c0,6.2-5,11.2-11.1,11.2-6.2,0-11.5-5.2-11.5-11.4,0-6.2,5.3-11.6,11.4-11.5,6.3,0,11.2,5.2,11.2,11.7Z"/>
        <path class="cls-9" d="M994.2,936.5c-3.4-.6-6-2.2-7.7-5.3-1.1-2-2.9-3.5-4.9-4.6-8.5-4.7-17.6-6.6-27.3-5.2-6.1.9-10.9,4-14.9,8.5-2.3-1.8-2.3-4.5-3-7-.5-2.1-.9-3.7-4.1-3.4-3.9.4-7.1-1.9-9.5-5.1-1.8-2.5-3.8-4.9-5.2-7.6-1.2-2.4-3.2-3.8-5.9-4.7-9.8-3.1-16.2-9.4-17.3-20.1-.2-2.4-2-3.7-3.5-5.1-3.9-3.5-6.4-7.8-7.1-13-1-7.9,2.9-13.5,9.1-17.6,2.4-1.6,3.7-3.2,3.6-6.2,0-2.8.7-5.5,1.9-8,.9-2,.8-3.6-.2-5.5-8.9-15.6-7.1-31.5-.8-47.4.5-1.4,1-2.8,1.7-4,1-1.7.6-3-.9-4.2-6.1-5.3-7.9-12.5-8.5-20.1-1.1-13.2,2.2-25.2,10.9-35.4,5.6-6.5,12.3-11.1,21.2-11.4,1,0,2,0,2.9.2,2,.7,3.6.3,5.5-.8,5.8-3.6,12.3-3.8,18.8-2.9,8.5,1.2,16.3,4.5,23.9,8.2,2.9,1.4,5.4,1.3,8.4.8,8.8-1.4,17.5-1.5,25.5,3.3,8.6,5.2,13.5,13,15.5,22.6.9,4.2,2,8.1,4.4,11.8,2.5,3.9,3.7,8.4,4.2,12.9.5,4.3,1.7,8.7,1.2,13.1-.4,3.4.9,5.4,4.2,6.6,9,3.5,13.7,10.7,16,19.6,1.8,7.2,1.8,14.5-.7,21.6-1,2.8-.8,5.1.8,7.8,5.5,8.9,7.3,18.8,6,29.1-1.2,8.8-6.4,15.5-13.3,20.8-3.3,2.6-6.8,5-11,6.2-1.7.5-2.7,1.6-3.3,3.2-3.6,9.5-9.1,17.9-15.8,25.5-2.8,3.2-6.1,5.9-9.3,8.5-3.8,3-6.8,6.5-9.1,10.6-.7,1.3-1.6,2.4-2.4,3.7Z"/>
        <path class="cls-14" d="M570.3,1062.5c-2.4-.1-4.4-.9-5.9-2.9,2.3.3,4.3,1.2,5.9,2.9Z"/>
        <path class="cls-14" d="M564.4,1059.7c-.9,0-1.5-.3-1.8-1.1.9,0,1.5.3,1.8,1.1Z"/>
        <path class="cls-12" d="M584.5,1103.8s0,0,0,0c0,0,0,0,0,0Z"/>
        <path class="cls-6" d="M1248.7,715.2s.1.1.1.1c0,0-.1-.1-.1-.1Z"/>
        <path class="cls-25" d="M704.5,608.5c-4.5,0-8.4-.6-11.8-3.2-5.3-4.1-7.6-12.6-5.5-19.9,2.1-7.2,7.8-12.4,14.8-13,10.5-.9,22.9,9.3,17.3,22.9-.7,1.8-1.8,3.5-2.5,5.3-2.4,5.5-6.4,8.5-12.3,7.9Z"/>
        <path class="cls-16" d="M930.9,445.5c-6.3,0-11.2-4.6-11.2-11,0-6.3,4.8-11.3,11-11.3,6.1,0,11.3,5,11.3,11.1,0,6.2-4.9,11.1-11.1,11.2Z"/>
      </g>
    </g>
  </g>
</svg>