<?xml version="1.0" encoding="UTF-8"?>
<svg xmlns="http://www.w3.org/2000/svg" version="1.1" viewBox="0 0 2000 2700">
  <defs>
    <style>
      .cls-1 {
        fill: #4b3928;
      }

      .cls-2 {
        fill: #77932e;
      }

      .cls-3 {
        fill: #8fdff2;
      }

      .cls-4 {
        fill: #f6be9a;
      }

      .cls-5 {
        fill: #f8990c;
      }

      .cls-6 {
        fill: #adc12d;
      }

      .cls-7 {
        fill: #a4ecff;
      }

      .cls-8 {
        fill: #e4cfa4;
      }

      .cls-9 {
        fill: #7490d1;
      }

      .cls-10 {
        fill: #e25923;
      }

      .cls-11 {
        fill: #fff;
      }

      .cls-12 {
        fill: #a05935;
      }

      .cls-13 {
        fill: #ff9292;
      }

      .cls-14 {
        fill: #fabe0a;
      }

      .cls-15 {
        fill: #95502a;
      }

      .cls-16 {
        fill: #7f4121;
      }
    </style>
  </defs>
  <!-- Generator: Adobe Illustrator 28.6.0, SVG Export Plug-In . SVG Version: 1.2.0 Build 709)  -->
  <g>
    <g id="Layer_3">
      <g>
        <rect class="cls-7" y="0" width="2000" height="2700"/>
        <path class="cls-3" d="M0,1868.7h2000V171.7c-121,21.4-130.7,167.4-130.7,167.4-108.4-24.8-131.5,114-131.5,114,0,0-22.1-48.5-78.6-45.8s-90.4,103.5-90.4,103.5c0,0-20.3-140-88.1-146.8-67.8-6.8-99.4,61-99.4,61,0,0-48.6-185.2-156.5-168.3-107.9,16.9-117.1,242.3-117.1,242.3,0,0-7.6-110.6-63.5-111.4-55.9-.9-55.9,111.4-55.9,111.4,0,0-18.6-76.9-74.5-76.9s-67.8,102.4-67.8,102.4c0,0-27.1-144.7-111.8-137-84.7,7.8-96.6,171.8-96.6,171.8,0,0-44-189.7-160.9-206-116.9-16.3-172.8,112.9-172.8,112.9,0,0-25.4-120.3-67.8-125.4s-66.1,46.7-66.1,46.7c0,0-18.6-160.3-105-178.9-22.4-4.8-44.5-2.1-65,4.5v1655.5Z"/>
        <g>
          <path class="cls-6" d="M1153.1,707.3c-27.5-43-21.1-104.7,14.6-141.2,22.3-22.8,52.9-35.1,82.6-46.8,10.1,37.5,9.7,78.6-5.9,114.2-15.5,35.6-47.4,64.8-91.3,73.9Z"/>
          <path class="cls-6" d="M1144.4,376c-12.5-20.7-21.1-44-22.3-68.2-1.2-24.1,5.3-49,20.4-67.9,27.7-34.7,77.2-43,111.4-71.3,13.3,47.8,9,102.7-21.4,142-22.8,29.4-57.1,47-88.1,65.4Z"/>
          <path class="cls-6" d="M932.3,1018.9c5.7-28,11.2-58.3-.5-84.4-8.4-18.7-24.6-32.7-41.2-44.8-31.1-22.7-65.2-41-101.2-54.5-5.9,39.7,4.9,81.6,29.2,113.5s61.9,53.3,113.7,70.2Z"/>
          <path class="cls-6" d="M870.1,476.9c-37.5-13.1-80.3,7.8-118-4.7-33.1-11-57-46.4-91.9-47.3,18-18.7,43.5-28,68.6-34.6,19.4-5.1,39.4-9.1,59.4-8.2s40.4,7.3,55.4,20.6c18.7,16.7,27.2,42.1,26.5,74.2Z"/>
          <path class="cls-6" d="M1154.3,844c7.2-22.3,25.1-40.8,47.1-48.7,22-7.9,47.6-5.1,67.3,7.5-9.3,21.1-26.9,38.5-48.1,47.5-21.3,9-46,9.6-66.3-6.3Z"/>
          <path class="cls-6" d="M940.8,1083.6c-.7-20-15.9-37.5-34.3-45.6-18.3-8.1-39.2-8.4-59.1-6.1,5,12.3,10.1,24.7,18,35.4,7.9,10.7,18.9,19.6,31.9,22.2,10.4,2,21.1,0,43.5-5.8Z"/>
          <path class="cls-6" d="M909.2,615.5c-20.4-15.1-44.1-31.1-69-26.1-18.7,3.8-32.9,18.6-45.4,32.9,17.3,9.9,37,16.3,56.9,15.7,19.9-.6,40-8.8,57.5-22.6Z"/>
          <path class="cls-6" d="M1089.2,426.1c-19.3-5.9-34.9-22.5-39.7-42.1-4.8-19.6,1.5-41.5,15.9-55.6,1-1,2.1-1.9,3.4-2.3,1.8-.4,3.7.5,5.4,1.4,16.5,9.4,28.3,26.5,31.4,45.2,3.1,18.7-2.7,38.7-16.5,53.3Z"/>
          <g>
            <path class="cls-2" d="M1202.9,608c-123.8,263.8-174.4,561.2-144.3,850.1,0,0-46.5,2-46.5,2,7.8-307.2,21.9-616.1,83.7-917.7,22.6-99.9,54.8-198.2,102.4-289-22,46.2-40.1,94-55,142.8-14.9,48.8-26.6,98.4-36,148.5-50,302.1-52.4,611.2-48.4,916.5.3,12.9-9.9,23.5-22.7,23.8-12.9.3-23.5-9.9-23.8-22.7-8.6-148.8,3.3-298.1,34.7-442.8,31.3-144.5,81.9-284.3,150.4-414.4.8-1.5,2.7-2.1,4.2-1.3,1.5.8,2.1,2.6,1.4,4.1h0Z"/>
            <path class="cls-2" d="M877.5,938.2c135.2,133.1,165.6,328.9,182.1,509.6,0,0-46.5,2.9-46.5,2.9-6.1-164.8,15.1-326,11.2-489.8-3.7-165.2-37.6-339.2-144.7-470.1-21.7-25.3-45.7-54-78.2-64.8-5.4-1.7-10.9-2.8-16.6-3.3-1.4-.1-2.4-1.3-2.3-2.7.1-1.3,1.3-2.3,2.6-2.3,18.1.8,35.3,8.3,50,18.6,12.2,8.4,23.2,18.5,33.5,29,43.6,43.9,78.3,96.1,104.8,152,55.5,117.6,76,248.5,80.9,377.6,6,151.3-5.9,305,5.1,455.2-.8,30.2-44.2,31.7-46.5.9-3.4-177.5-18.4-368.6-140.8-508-2.9-3.5,1.9-7.9,5.2-4.8h0Z"/>
            <path class="cls-2" d="M848.7,612.5c44.6-10.9,93.6-1,130.7,26.3,3.1,2.2,3.7,6.5,1.5,9.6-2.2,3-6.5,3.7-9.6,1.5-33.2-26.7-78.8-37.7-120.8-29.2-2.2.5-4.4-1-4.9-3.2-.4-2.2.9-4.3,3.1-4.8h0Z"/>
            <path class="cls-2" d="M1075.6,362.1c7.2,46.8,20.8,92.5,40.1,135.4,2.1,5.1-5.4,8.4-7.6,3.2-17.6-44.4-29.1-91.1-34.1-138.4,0-.4.3-.8.7-.9.4,0,.8.3.9.7h0Z"/>
            <path class="cls-2" d="M1085.5,881.8c36.3-33.1,81.7-54.7,128.9-62,2.3-.4,4.4,1.2,4.7,3.5.3,2.1-1,4.1-3,4.7-44.6,11.5-85,36.3-114.9,69.5-4.1,4.5-11.1,4.9-15.6.8-4.9-4.3-4.9-12.1,0-16.4h0Z"/>
            <path class="cls-2" d="M976.9,1132.7c-22-29.7-51.2-54.4-84.6-71.5-2-1-2.9-3.5-1.8-5.6,1-2,3.3-2.8,5.3-1.9,35.6,15.4,67.9,39.1,93.4,69.2,2.8,3.3,2.4,8.3-.9,11.1-3.4,2.9-8.7,2.3-11.4-1.3h0Z"/>
          </g>
          <path class="cls-15" d="M934.7,1423.2c5.3.4,10.7,1.9,15.9.7,10.4-2.2,18.4-14.2,28.8-12,3.4.7,6.5,3,9.9,2.5,4.2-.6,6.7-5,10.4-6.9,7.8-4.1,16.7,3.3,25.5,3.4,8.7,0,16.5-7.3,25.2-6.1,3.9.6,7.6,2.9,11.5,2.7,5.5-.2,9.7-5.1,15.1-6.2,7.7-1.6,14.6,4.8,22.3,6.4,5.3,1.1,10.8,0,16.2-.1,16.1-.3,30.9,8.5,46.4,12.8,18.8,5.2,38.8,3.8,58.3,4.6,19.5.8,40.2,4.5,54.6,17.7-45.3,9.3-90.7,18.6-136,27.9-31.7,6.5-63.6,13-95.8,16.4-53.9,5.7-108.2,2.7-162-2-15.5-1.4-60.8,3.2-58.6-21.3,1.5-17,20.8-16,33.8-17.8,26.7-3.7,51.4-24.8,78.4-22.7Z"/>
        </g>
        <path class="cls-2" d="M2000,1216.6c-8.7-2.9-17.4-6.2-26.1-9-22.3-7.2-47.3-11.7-68.7-2.1-21.4,9.6-35.2,38.2-22.1,57.6-32.3-10.4-70.4,18.7-68.9,52.5-24.7-7.1-50.3-14.2-75.6-10.1-25.3,4.1-50.2,23.1-52.3,48.6-32.9-31.4-96.9-15-110.7,28.3-32-18.7-78.8-33.9-100.9-4.2-5.4,7.3-8.1,16.2-12.6,24-8.2,14.3-21.9,24.6-30.2,38.8-8.3,14.2-8.4,36.1,6.3,43.5,4.9,2.4,10.5,2.8,15.9,3.1,181.8,10.1,364.3,8.5,545.9-4.7v-266.4Z"/>
        <path class="cls-2" d="M465.7,1322.6c-28.6-12.1-67.2-1.7-79.7,26.8-.2-25.1-16.9-49.3-40.3-58.4s-52.1-2.6-69.2,15.8c-.5-27.7-17.9-54.4-43-66.1-25.1-11.6-56.8-7.6-78.2,10-8.2-38.1-23.2-83.4-61.2-91.8-26.3-5.8-52.7,9.7-72,28.5-7.7,7.5-14.9,15.6-22.1,23.5v277.5c5.6,1.7,11.9,1.8,17.8,1.7,168.3-1.1,336.6-2.2,504.9-3.3,2.4-31,4.7-62.6-2.6-92.8-7.3-30.2-25.8-59.4-54.4-71.5Z"/>
        <path class="cls-11" d="M2000,666.6c-6.6-2.4-13.4-4.2-20.5-5.1-41-5.6-88,25.4-85.9,66.8-19.3-23.1-53.3-32.8-81.9-23.2s-50,37.7-51.5,67.8c-14.5-16.8-40-22.9-60.5-14.4-20.5,8.5-34.3,30.8-32.7,52.9-15.3-21.7-50.6-19-70.6-1.5-20,17.5-28.5,44.4-38.2,70-10.4-12-29.4-15.5-43.4-8.1-14,7.4-21.8,25.1-17.8,40.5,167.7,1,335.4,2,503.1,3v-248.5Z"/>
        <path class="cls-11" d="M434.9,672.2c-30.7-17.6-73.1-11.1-97.1,15,2.3-23.7-12-48-33.7-57.6-21.8-9.6-49.4-3.8-65.3,13.9,1.2-27.8-14.9-55.6-39.6-68.4-24.7-12.8-56.7-9.8-78.7,7.3,5.1-32.7-24.4-63.5-57-68.8-21.8-3.5-43.7,1.9-63.5,12v235.2c156.8-8,314.1-7.1,470.9,2.8,10.4-33.8-5.3-73.8-36-91.4Z"/>
        <g>
          <path class="cls-11" d="M925.5,819.7c-8.7,0-16.5,3.5-22.2,9.2-5.7,5.7-9.2,13.5-9.2,22.2,0-8.7-3.5-16.5-9.2-22.2-5.7-5.7-13.5-9.2-22.2-9.2,8.7,0,16.5-3.5,22.2-9.2,5.7-5.7,9.2-13.5,9.2-22.2,0,8.7,3.5,16.5,9.2,22.2,5.7,5.7,13.5,9.2,22.2,9.2Z"/>
          <path class="cls-11" d="M755.5,545.3c-8.7,0-16.5,3.5-22.2,9.2-5.7,5.7-9.2,13.5-9.2,22.2,0-8.7-3.5-16.5-9.2-22.2-5.7-5.7-13.5-9.2-22.2-9.2,8.7,0,16.5-3.5,22.2-9.2,5.7-5.7,9.2-13.5,9.2-22.2,0,8.7,3.5,16.5,9.2,22.2,5.7,5.7,13.5,9.2,22.2,9.2Z"/>
          <path class="cls-11" d="M1292.4,576.7c-8.7,0-16.5,3.5-22.2,9.2-5.7,5.7-9.2,13.5-9.2,22.2,0-8.7-3.5-16.5-9.2-22.2-5.7-5.7-13.5-9.2-22.2-9.2,8.7,0,16.5-3.5,22.2-9.2,5.7-5.7,9.2-13.5,9.2-22.2,0,8.7,3.5,16.5,9.2,22.2,5.7,5.7,13.5,9.2,22.2,9.2Z"/>
          <path class="cls-11" d="M1260.6,1018.9c-15.8,0-30.2,6.4-40.6,16.8-10.4,10.4-16.8,24.7-16.8,40.6,0-15.8-6.4-30.2-16.8-40.6-10.4-10.4-24.7-16.8-40.6-16.8,15.8,0,30.2-6.4,40.6-16.8,10.4-10.4,16.8-24.7,16.8-40.6,0,15.8,6.4,30.2,16.8,40.6,10.4,10.4,24.7,16.8,40.6,16.8Z"/>
          <path class="cls-11" d="M1023.9,394.8c-15.8,0-30.2,6.4-40.6,16.8-10.4,10.4-16.8,24.7-16.8,40.6,0-15.8-6.4-30.2-16.8-40.6-10.4-10.4-24.7-16.8-40.6-16.8,15.8,0,30.2-6.4,40.6-16.8,10.4-10.4,16.8-24.7,16.8-40.6,0,15.8,6.4,30.2,16.8,40.6,10.4,10.4,24.7,16.8,40.6,16.8Z"/>
        </g>
        <rect class="cls-15" x="0" y="1560" width="2000" height="1140"/>
        <g>
          <path class="cls-16" d="M2000,1497.6c-179.7-5.1-357.5-11.9-535.2-6.6-110.9,3.3-221.8,11.3-332.8,11.3-102.9,0-205.6-6.8-308.4-10.9-274.4-11-549.2-2.8-823.7,6.1v123.6c71.8-14.4,145.2-24.5,215.7-7,27.1,6.7,53.2,17.5,80.7,22,36.7,6,74.2.8,111-4.7,63.3-9.5,127.3-20,191.1-14.9,62.5,5,122.8,24.7,184.9,33.4,152.1,21.5,305.6-23.2,459.3-22.9,75,.1,149.6,11,224.5,14.3,80.4,3.5,160.9-1.7,241.2-6.9,97.2-6.3,194.4-12.7,291.6-19v-117.7Z"/>
          <path class="cls-6" d="M2000,1451.5c-52.9-4.8-105.8-5-158.8-5.3-59.8-.3-119.5-.5-179.3-.8-72.7-.3-145.4-.7-218-2.2-124.1-2.6-248.6-8.8-372.3,1.2-66.4,5.3-133,15.3-199.2,8.8-58.3-5.8-114.7-24.2-172.9-30.6-66.5-7.3-133.7,1.2-200.2,8.5-165.8,18.1-332.5,28.2-499.2,30.3v83.5c50.8,4.2,105.7,23.5,155.8,12.5,22.7-5,44-16.3,67.1-18.2,44.6-3.8,85.4,27.3,130.2,29.7,59.2,3.3,114.3-43.8,172.9-34.3,20.6,3.3,39.8,13.6,60.6,15.8,34.7,3.7,67.6-15.4,102.3-19.3,59.5-6.7,114.9,31.4,174.6,36.6,54.9,4.8,112.1-18.5,164.3-.8,19.2,6.6,36.8,18.5,56.9,21.7,49.4,7.8,94.1-39.2,143.9-34.4,31.1,3,57.8,25.8,89,27.8,41.4,2.5,78.2-32.3,119.6-29.7,25.4,1.6,48.8,17.4,74.2,16,37.3-2.2,67.5-40.9,104.4-35.6,15.2,2.2,28.7,11.8,44,13,19.1,1.4,36.3-10.4,54.9-15.2,47.7-12.3,98.7,22.8,145.8,8.6,17.4-5.2,32.5-16.9,50.2-20.9,22.2-5,45,2.4,67.6,4.6,7.1.7,14.7.6,21.9-.5v-70.8Z"/>
        </g>
        <g>
          <path class="cls-12" d="M2000,1681.1c-43.1-18.2-88.1-34.5-134.3-30.4-52,4.5-104.9,44.3-104.8,96.4,0,20.2,7.9,39.9,19.4,56.5,26.7,38.6,74,62,120.9,59.6,37.8-1.9,74.3-20.5,98.9-49.2v-132.9Z"/>
          <path class="cls-16" d="M78.4,1673.6c-11.6,2.2-22.3,7.6-32.5,13.7-16.7,10.1-32.2,22.3-46,36.1v152.2c3.2,4.3,7,8.2,11.4,11.4,11.3,8.2,25.8,10.9,39.8,10.9,39,.1,77.6-19.7,100.2-51.4s28.8-74.6,16-111.5c-12.9-37.1-50.3-68.8-89-61.5Z"/>
          <path class="cls-12" d="M485.8,1791.3c14.3-17,28.8-34.4,47.6-46.3,18.7-11.9,42.7-17.8,63.5-10,20.8,7.8,35.8,31.9,28.7,53-4.9,14.5-18.3,24.2-31.1,32.6-14.1,9.2-28.9,18-45.4,21.5-16.5,3.5-35.1.8-47.4-10.7-12.2-11.6-15.3-33-15.9-40.1Z"/>
          <path class="cls-12" d="M1565.9,2061c-26.1-7.1-57.6-11.9-77.4,6.6-17.3,16.1-16.9,46.5-1,63.9,16,17.4,44,21.2,65.2,10.8,15.5-7.6,27.8-22.7,29.8-39.9s-6.5-38.6-16.6-41.3Z"/>
          <path class="cls-16" d="M1265.9,2237.1c-26.1-7.1-57.6-11.9-77.4,6.6-17.3,16.1-16.9,46.5-1,63.9,16,17.4,44,21.2,65.2,10.8,15.5-7.6,27.8-22.7,29.8-39.9s-6.5-38.6-16.6-41.3Z"/>
          <path class="cls-12" d="M248.1,2254.6c6.1-13.8,12.5-28,23.8-38,11.3-10,28.9-14.4,41.6-6.3,10.5,6.7,14.8,19.7,18.3,31.7,3.7,12.5,7.2,26.5,1.2,38-3.4,6.4-9.3,11.1-15.4,14.9-14,8.7-31.6,14.1-47.1,8.3s-31.5-27.7-22.2-48.6Z"/>
          <path class="cls-16" d="M1454.9,1712.8c-23.8,9.6-45.8,23.6-64.7,41,14,15.9,33.1,28.6,54.2,29.4,21.1.8,43.5-13.5,46.6-34.4s-19.5-42.8-36.2-36Z"/>
          <path class="cls-12" d="M1876.9,2448c-28.1-7.9-57-13.4-86.1-16.2-6-.6-12.2-1-17.6,1.6-6.8,3.2-10.6,10.5-13.5,17.4-10.5,24.9-14,56.1,3.1,77,14.8,18.1,40.7,23,64,20.9,23.6-2.1,47.8-11,62.1-29.8,14.3-18.9,21.3-61.6-11.9-70.9Z"/>
          <path class="cls-12" d="M755.7,2355.1c22.1-13.1,45.4-23.9,69.6-32.4,7.1-2.5,14.7-4.8,22.2-3.5,9.9,1.7,17.5,9.4,24.3,16.6,17.2,18.2,34.5,37.2,43.8,60.5,9.3,23.2,9.2,51.9-6.6,71.3-10.9,13.3-27.4,20.5-43.3,26.8-36.4,14.3-80.6,25.5-112.4,2.7-23.6-16.9-32.8-48.4-31.8-77.5.9-27.8,18.7-55.3,34.2-64.5Z"/>
          <path class="cls-16" d="M304.7,2545c8.5-14.1,17.2-28.5,29.7-39.3s29.4-17.7,45.5-14.1c16.6,3.7,29.6,18.6,33,35.3s-2,34.5-12.5,47.9c-11.9,15.2-31.4,25.3-50.6,22.9s-36.5-19.3-45.2-52.6Z"/>
          <path class="cls-16" d="M2000,2128.9c-22.7,9.1-44.9,22.1-50.5,45.1-6.5,26.9,17.4,55.1,44.9,57.9,1.9.2,3.8.3,5.6.3v-103.3Z"/>
          <path class="cls-16" d="M0,2116.6v111.1c2.9,1,5.8,1.6,8.9,1.8,21.3,1.5,40-16.8,46.3-37.2,6.3-20.4,3.3-42.4.2-63.6-17.6-7.1-36.4-11.2-55.4-12.2Z"/>
          <path class="cls-16" d="M1343,2659.2c-13.8,9.1-22.6,24.5-25.1,40.8h154.3c-15.5-15.9-31.8-31-51.6-40.8-24.3-12.1-55-14.9-77.7,0Z"/>
          <path class="cls-16" d="M320.5,1941.6c-8.5,7.9-15.9,16.9-22.1,26.7-12.8,20.5,7.3,45.9,30.2,38,.1,0,.3-.1.4-.2,14.7-5.2,26.9-19.6,26.1-35.2-.8-15.6-17.8-29.4-34.6-29.4Z"/>
          <path class="cls-12" d="M96.5,2490.2c-12.6,12.8-25.6,26.4-30.4,43.7-4.8,17.3,1.8,39.2,18.7,45.1,9.2,3.2,19.6,1.2,28.4-3.1,22.5-10.8,37.2-37.9,30.4-62-6.7-24.1-33.8-37.4-47.1-23.8Z"/>
          <path class="cls-16" d="M1463.5,2462.9c-10.1,6.1-19.3,13.5-27.6,21.9-18.3,18.8-2,50.2,23.8,45.7s.3,0,.5,0c16.9-3.1,32.6-15.9,35.3-32.8,2.7-16.9-14.2-45.4-32-34.7Z"/>
          <path class="cls-16" d="M987.4,2612.5c15.2-17.3,33.1-32.2,52.8-44.1,12.2,10.9,19.6,27.6,17.4,43.9-2.2,16.2-15,31-31.2,33.6s-33.9-8.9-39-33.4Z"/>
        </g>
        <g>
          <path class="cls-13" d="M1706,2026.1c-.6,0-1.2,0-1.8-.1-6.8-1-11.6-7.3-10.6-14.2,2.6-17.9,4-36.1,4.1-54.2,0-12.5-.7-22.4-4.5-30.7-5.6-12-17.7-20.5-30.5-29.4-5.8-4.1-11.8-8.3-17.5-12.9-44.9-37.3-58.1-106.7-30-157.9,3.3-6.1,10.9-8.3,17-5,6.1,3.3,8.3,10.9,5,17-10.8,19.7-14.2,43.6-9.7,67.5,4.5,23.8,16.5,44.9,33.7,59.2,4.8,4,10.1,7.7,15.8,11.7,15,10.5,30.5,21.3,38.9,39.4,6.1,13.2,6.9,27.7,6.8,41.4-.1,19.2-1.6,38.6-4.3,57.7-.9,6.2-6.2,10.7-12.4,10.7Z"/>
          <path class="cls-13" d="M179,1940.5c-4.6,0-9.3-.3-13.9-.8-6.9-.8-11.8-7-11-13.9.8-6.9,7-11.8,13.9-11,25.2,2.9,52-4.8,71.7-20.6,23.3-18.7,37.1-46.7,51.6-76.5,16.9-34.5,34.4-70.1,68.4-91.3,5.9-3.6,13.6-1.8,17.2,4,3.6,5.9,1.8,13.6-4,17.2-27.9,17.3-43.1,48.3-59.1,81-15.1,30.9-30.8,62.8-58.4,85-21.6,17.3-48.8,26.7-76.4,26.7Z"/>
          <path class="cls-13" d="M269.4,2426.9c-8.6,0-17.4-.9-26.2-2.6-33.8-6.8-64.1-24.8-90.8-40.6-26.3-15.6-53.5-31.7-83-37.7-6.8-1.4-11.1-8-9.8-14.7,1.4-6.8,8-11.1,14.7-9.8,33.6,6.9,64,24.8,90.7,40.7,26.2,15.6,53.4,31.7,83,37.6,24.1,4.9,57.1,2.4,77.5-18.9,4.8-5,12.7-5.2,17.7-.4,5,4.8,5.2,12.7.4,17.7-17.7,18.6-44.8,28.8-74.3,28.8Z"/>
          <path class="cls-13" d="M1792.2,2627.3c-15.5,0-30.8-1.6-45.5-4.8-34-7.5-63-23.6-83.9-46.6-20.3-22.4-32.2-49.7-43.7-76.2-8.3-19.2-16.2-37.3-27-53.7-3.8-5.8-2.2-13.5,3.5-17.3,5.8-3.8,13.5-2.2,17.3,3.5,12,18.2,20.7,38.2,29.1,57.5,11.2,25.7,21.7,50,39.2,69.3,17.4,19.1,41.9,32.6,70.8,39,27,6,56.7,5.7,85.7-.9,6.7-1.5,13.4,2.7,14.9,9.5s-2.7,13.4-9.5,14.9c-17,3.8-34.2,5.7-51.1,5.7Z"/>
          <path class="cls-13" d="M780,2654c-32.2,0-64.4-9-97.2-19.3-6.6-2.1-10.3-9.1-8.2-15.7,2.1-6.6,9.1-10.3,15.7-8.2,40.4,12.6,79.7,23.3,116.6,15.4,33.4-7.1,61.1-28.3,90.5-50.7,21.2-16.2,43.2-32.9,68-44.5,6.3-2.9,13.7-.2,16.6,6,2.9,6.3.2,13.7-6,16.6-22.4,10.5-43.2,26.3-63.4,41.7-30.3,23.1-61.6,46.9-100.5,55.2-10.7,2.3-21.4,3.3-32,3.3Z"/>
        </g>
        <g>
          <g>
            <path class="cls-8" d="M1202.2,2116c-2.4,7.8-5,17.8-13,19.5-11.6,2.5-24.4-2.1-36.1.7-10.2,2.4-18.4,10.6-28.5,12.9-6.5,1.5-22.9,2.6-25.7-5,8.3-8.4,15.9-15.1,14-27.9-2.1-13.5-14.2-25-25.9-30.9,7.6-7.6,12.9-19.7,6.2-30-2.2-3.3-7.8-4.8-9.6-8.4-2.3-4.6-.7-4.7-.6-9.3,0-8.6,1.9-14.5-5.1-20.8-7.8-7-7.3-2.7-8.5-11.9-.5-3.9,0-7.1-2.3-10.5-2.7-4-8.5-4.1-11.5-7.1-3.8-3.8-2.4-11.6-4.3-17.2-3.4-9.9-9.6-9.9-18.9-11.2,6.5-15.3,5.1-27-13.9-29.5,1.5-6.3,3.1-11.6-1.6-17.3-6.3-7.5-14.5-4.5-23.3-5,1.5-6.8,6.7-12.1,8-19.3-8.9-7.2-19.4-10.6-31.5-10.4-13.1-10.1-41.2,9.5-54.9,20.4-4.9-6.2,5.5-25.3,9.2-30.8,7.6-11.2,19.6-18.5,32.3-22.7,11.1-3.6,22.9-4.1,34.5-3.6,9.7.4,22.6,3.7,31.8-1.2,8.1-4.3,11.5-17.4,18.9-23.5,8.1-6.6,20.6-12.6,30.9-14.9,18.4-4.1,62.3,3.6,69.1,24.5-3.7,1.8-7.7,2.3-11.9,1.6-8.6,1.9-16.4,5.7-23.3,11.3-3.8,2.6-8.5,4.8-12,7.5-7.8,6.1-12.7,13.2-14.7,23.1-3.4,17.2,1.8,27,18.5,30.5-9.3,21.7,2.6,33.1,20.4,44.6-8.1,10.6-7.8,28.1-3.8,40.1,2.2,7.2,6.2,13.2,11.9,18,2.9,1.2,4.7,3.1,5.4,5.8-6.3,5.6-4.6,19.7-2.7,26.9,3,11.7,10.9,15.4,20.5,19.8-6.9,14.1,1.2,38.9,18.3,40.6,3.9,10.6-1.1,17.7,13.4,19,6,.5,15.4-2.1,20.5,1.4Z"/>
            <path class="cls-10" d="M1141.6,1825.8c-3.7,1.8-7.7,2.3-11.9,1.6-8.6,1.9-16.4,5.7-23.3,11.3-3.8,2.6-8.5,4.8-12,7.5-14.1-4.5-30.8,10.4-30.8,10.4l-10.2,10.2-16.1,6.8c-25.5-9.3-35.8,14.4-35.8,14.4-8.9-7.2-19.4-10.6-31.5-10.4-13.1-10.1-41.2,9.5-54.9,20.4-4.9-6.2,5.5-25.3,9.2-30.8,7.6-11.2,19.6-18.5,32.3-22.7,11.1-3.6,22.9-4.1,34.5-3.6,9.7.4,22.6,3.7,31.8-1.2,8.1-4.3,11.5-17.4,18.9-23.5,8.1-6.6,20.6-12.6,30.9-14.9,18.4-4.1,62.3,3.6,69.1,24.5Z"/>
            <path class="cls-10" d="M1202.2,2116c-2.4,7.8-5,17.8-13,19.5-11.6,2.5-24.4-2.1-36.1.7-10.2,2.4-18.4,10.6-28.5,12.9-6.5,1.5-22.9,2.6-25.7-5l22.3-8.2,4.2-8.3h15.2v-11.9l13.6,5.9,27.5-7.1c6,.5,15.4-2.1,20.5,1.4Z"/>
            <path class="cls-4" d="M1017.8,1854c-5.1-21.4-12.8-45.4-11.4-67.9.5-8.1,1.2-16.4,2.2-24.4,6.6,0,13.4,2,19.8,2.9,1.2,22.6,0,45.4-1.4,68,0,4-.4,7.9-.9,11.8-.4,3.3,0,6.6,1.2,9.7-2,3.3-5.7,3.1-9.4-.1Z"/>
          </g>
          <path class="cls-8" d="M1117.7,2357.7c41-21.1,82.5-41.2,122.3-64.4,22-12.8,43.9-26.3,66.3-38.3s22.5-10.9,33.6-16.7,14.3-6.9,18.4-14.1c5.9-10.4,7.3-23.4,10.1-34.7s15.8-30,29.6-15.7c10.5,10.9,2.9,28.7,1.7,41.7,2.8.6,5.4-.4,8.2-.5,5.6-.2,10,1.6,15,3.8s11.5,4.8,15.1,9.8,2.4,7.7,2.4,13.1-.5,10.1-7.6,13.3c-9.9,4.4-20.3,5.1-31,5-10.3,0-19.3,3.2-28.7,7.3-33.9,14.7-64.1,37.3-96.4,55-30.8,16.8-62.3,32.7-94.1,47.4-10.8,5-21.2,10-32.4,14.3-6.3,2.4-12,4.5-15.8,10.5-5.5,8.8-5,20.2-9.9,29.4s-18.1,18.8-31.7,19.2-16.7-9.3-12.5-19.8,20.6-21.7,18.4-25.4c-7.3-1.4-14-2.5-19.8-7.3s-9.1-11.3-12.6-17.6c-7.2-13.2-5.6-24.7,10.2-28.6s30.7,3.2,41.1,13.3Z"/>
          <path class="cls-14" d="M1796.3,2093.4c-10.6,1.5-21.2,3.1-31.8,4.6l-11.8,3.4c-1.9,1.6-4.7,10.7-6,13.3-4.7,9.5-7.4,20-12.7,29.2-11.7,20.2-28.9,36-48.7,47.9-22.3,13.3-47.1,21.9-69.2,35.5-11.8,7.3-22,16.3-30.7,27.1-14.8,18.4-29,33-48.5,46.9s-15.3,9.7-23.8,13.2-11.9,3.9-16.8,7c-7.6,4.7-3.2,11.1,3.3,14.9,30.3,17.7,71.4.6,99.8-12.4s28.1-16.8,41.9-26.1c13.9-9.3,25.6-16.8,36.7-29.6,11.6-13.5,21.9-22.5,37.9-29.9,17.3-8,31.5-16.8,44.5-30.7-1,13.6-9.9,26.6-13.2,39.7s-2.9,24.8-2.7,37.5c.3,22.2,11.2,48,27,64,9.7,9.8,26,13.4,39.1,16.1s31.7,5,47.3,5.1,22.1,1.4,24.2-6.7c2.6-9.9-12.7-15.6-18.7-18.5-12.7-6.1-23.1-14.7-33.5-24.1-14.4-12.9-21.9-29-24.7-48.2s4.4-35.1,12.1-50.5c7.3-14.8,16.7-27.2,16.9-44.3,0-9.5-2.5-18.2-3.4-27.5s2.9-16.9,1.6-25.6-2.5-12.4-5.1-16.6-4.5-4-9-5.4c-7.9-2.5-10.2-2.5-21.9-9.3Z"/>
          <path class="cls-8" d="M553.4,2380.9c-9.5-1.7-16.6,1.1-21.3,8.5,3.1,8.4,9.5,16,2.9,24.3-2.7,1.8-4.9,4.2-6.5,7,.7,3.5,1.6,7,2.8,10.4,1.1,6.4-.6,6.1-2.7,12.4-2.9,9.1,1.3,17.7-5.2,25.6-3.8,2.3-6,5.5-6.7,9.8,1.5,5,2.2,10,2.3,15.2-.7,4.8-4.2,8.5-6.5,12.5-3.6,6.2-4.9,14.2-9.2,20.1-7,9.7-20.1,9.4-27.8,17.4.6,1.7.9,3.5,1,5.3-4,2.3-21.5,11.6-11.8,18.3s11.5,1.4,13.5,1.8c7.4,1.4,8.8,1.2,16.2.5,11.3-1.1,12.6,13.6,22.5,17.5s14.5,1.9,19.9.8c-1.5-8.1-11.7-13.6-13.3-21-1.3-6.3,9.6-12.6,13.1-17.3,9.3-12.5-6.6-11.8-3.8-26.4,3.3-7.7,7.7-14.6,13.2-20.9,1.7-2.5,2.5-5.3,2.2-8.2,2.6-10.3,7.9-19.4,10.5-29.7,2.6-10.6.3-21.2,2.2-31.4s15.4-25.2,30-22.3c4.1-5-.6-13.9-4.7-17.5-12-10.7-29.8-14.4-32.6-12.8Z"/>
          <g>
            <g>
              <path class="cls-8" d="M748,2126.7c-6.7,0-13.5-.5-20.2-1.7-20-3.5-33.7-14.1-48.3-25.4-1.2-.9-2.4-1.8-3.5-2.7-14.4-11.1-25.1-22.8-35.6-39.2-6.3-9.7-13.2-18.5-20.6-27.7-3.8-4.7-7.7-9.6-11.4-14.6-10.8-14.3-22.3-25-38.6-35.8-7.4-4.9-15-9.1-23.9-13.3-16.4-7.7-32.1-10.2-50.8-12.6-2.7-.4-4.7-2.9-4.3-5.6.4-2.7,2.9-4.7,5.6-4.3,19,2.4,36.1,5.1,53.8,13.4,9.4,4.4,17.4,8.9,25.2,14,17.3,11.5,29.6,22.9,41.1,38.2,3.7,4.9,7.5,9.7,11.2,14.4,7.2,9,14.6,18.4,21.2,28.5,9.9,15.4,19.9,26.3,33.3,36.6,1.2.9,2.4,1.8,3.6,2.8,14.1,10.9,26.3,20.4,43.9,23.4,29.6,5.2,60.3-3.6,80.8-11.9,21.9-8.8,41.7-22.1,60.6-40.6,9.2-9,17.9-17.5,31.2-23.2,2.5-1.1,5.5.1,6.6,2.7,1.1,2.5-.1,5.5-2.7,6.6-11.6,4.9-19.3,12.4-28.1,21.1-19.9,19.4-40.7,33.4-63.9,42.8-17.2,6.9-41.1,14.2-66.1,14.2Z"/>
              <path class="cls-8" d="M525,2037.3c-.6,0-1.3-.1-1.9-.4-2.6-1-3.8-3.9-2.8-6.5.5-1.1.6-2.5.7-4.1.1-1.7.3-3.7.9-5.7,1.2-4.1,3.1-8.1,5-12.1.9-1.8,1.7-3.6,2.4-5.3,15-35.2,33.2-69.4,48.9-98.1,1.3-2.4,4.4-3.3,6.8-2,2.4,1.3,3.3,4.4,2,6.8-15.7,28.5-33.7,62.4-48.5,97.3-.8,1.8-1.7,3.7-2.5,5.6-1.7,3.6-3.4,7.3-4.5,10.8-.3,1.1-.4,2.3-.5,3.7-.2,2.1-.4,4.5-1.4,7-.8,2-2.7,3.1-4.6,3.1Z"/>
              <path class="cls-8" d="M571.5,2068.3c-1.6,0-3.2-.8-4.1-2.1-1.1-1.6-1.2-3.6-.3-5.3,3.5-6.3,7.8-12.1,11.9-17.5,16.5-21.8,35.2-42.5,53.3-62.5,8.4-9.3,17.1-18.9,25.4-28.4,1.8-2.1,5-2.3,7.1-.5,2.1,1.8,2.3,5,.5,7.1-8.4,9.6-17.1,19.2-25.5,28.6-18,19.8-36.6,40.4-52.8,61.8-3.1,4.1-6.1,8.1-8.8,12.3,0,.6-.1,1.2-.3,1.8-1,2.6-3,4.3-5.6,4.7-.3,0-.5,0-.8,0Z"/>
              <path class="cls-8" d="M622.8,2155.7c-1.2,0-2.3-.4-3.3-1.2-2.1-1.8-2.3-5-.5-7.1.6-.6.9-1.6,1.4-2.9.3-1,.7-2.1,1.3-3.3,1.7-3.5,3.9-6.6,6.1-9.6,1-1.4,1.9-2.7,2.8-4.1,26.6-40.4,56.7-76.9,82.6-107.3,1.8-2.1,4.9-2.4,7-.6,2.1,1.8,2.4,4.9.6,7-25.7,30.2-55.5,66.4-81.8,106.3-1,1.5-2,3-3,4.4-2,2.8-3.9,5.4-5.3,8.2-.3.6-.6,1.3-.8,2.1-.6,1.8-1.4,4.1-3.2,6.2-1,1.1-2.4,1.7-3.8,1.7Z"/>
              <path class="cls-8" d="M732.4,2184.7c-.3,0-.6,0-.9,0-1.9-.3-3.4-1.7-3.9-3.4-1.5-4.9-.1-10.8,1-15.5.3-1.2.6-2.4.7-3.3,1.2-6.9,3-13.8,5.4-20.5,9.9-32.4,19.7-65.3,29.2-97.9.8-2.7,3.5-4.2,6.2-3.4,2.7.8,4.2,3.5,3.4,6.2-9.5,32.6-19.3,65.6-29.2,98.1,0,0,0,.1,0,.2-2.2,6.2-3.9,12.6-5,19-.2,1.3-.5,2.5-.9,3.9-.5,2.1-1.1,4.8-1.3,7,1.7,1.7,1.9,4.5.4,6.4l-1,1.3c-1,1.3-2.4,2-4,2Z"/>
              <path class="cls-8" d="M821.7,2148c-.3,0-.6,0-.9,0-6.9-1.3-7.7-9.8-8.1-14.9,0-.8-.2-1.6-.2-2.1-3.4-20.7-4.7-42-6-62.5-.5-7.5-.9-15.2-1.5-22.8-.2-2.8,1.9-5.2,4.6-5.4,2.8-.2,5.2,1.9,5.4,4.6.6,7.6,1,15.4,1.5,22.9,1.2,20.3,2.5,41.3,5.9,61.5.1.8.2,1.7.3,2.8.1,1.5.5,4.9,1,6.3,2.1.9,3.4,3.2,3,5.5-.5,2.4-2.6,4.1-4.9,4.1Z"/>
              <path class="cls-8" d="M873.7,2103.5c-1.6,0-3.6-.7-4.7-3.3v-.3c-5.1-11.3-8.3-23.9-11.4-36.1-1.4-5.6-2.7-10.8-4.2-15.9-.8-2.6.8-5.4,3.4-6.2,2.7-.8,5.4.8,6.2,3.4,9.5,32.3,13.3,44.9,14.8,49.7.3.9.5,1.5.6,1.9,1.5,5-2.8,6.6-2.9,6.6-.5.2-1.1.3-1.7.3ZM868.9,2099.7h0,0Z"/>
            </g>
            <path class="cls-9" d="M883,2057c8.5-26.8,18.6-60.2,46.1-74.1,7.3,7.4-4.4,17.3-1.8,24.4s9.5,4.3,13.3,7.2,3.4,9.5,3.4,15.3-.9,2.4.2,4.8c2.2,4.6,11.3,6.7,15.6,7.9s9.3,2.9,5.7,9.7-12.9,7.9-20,8.4-17,3.6-25.6,3.5-11.1-.8-16.4-1.2-8.9-2.6-20.5-6Z"/>
            <path class="cls-9" d="M465.6,2006.2c-17.2-6.7-32.3-16.3-45.3-29-1.4-4.3-2.5-8.7-3.2-13.1-1.1-5.6-2.8-11.5-3.2-17.2s-1-11.1-2.5-16.6c6,6.3,8.4,10.1,17.4,12.7,6.4,1.8,12.7,4.5,19.2,5.9-2.2-11.1-29.8-25.2-21.5-38.8,5-8.2,23.1-14.1,30.7-17.3,8.9-3.6,17.6-6.9,27.1-8.7,9.7-1.8,27.7-5.6,36.6,1.7,14,11.5,0,39.8-4.9,52.6s-7.6,22.8-13.7,32.8-16,19.5-36.6,35.1Z"/>
            <path d="M492.6,1904.5c-1.7-1.4-4.3-1.1-5.6.7-2.5,3.2-5.9,5.9-9.8,8.3-.3-1.1-.7-2.2-1-3.4-.9-3-1.7-5.9-2.5-8.5-.7-2.1-2.9-3.2-5-2.6-2.1.6-3.3,2.9-2.7,5,1.1,3.7,2.1,7,2.9,9.9.3,1.2.7,2.5,1.1,3.7-1.6.8-3.2,1.6-4.8,2.4-3.1,1.6-6,3-8.8,4.6-1.9,1.1-2.6,3.5-1.5,5.5.7,1.3,2.1,2,3.5,2s1.4-.2,2-.5c2.6-1.5,5.4-2.9,8.4-4.4,1.2-.6,2.4-1.2,3.6-1.8.2.7.4,1.4.7,2,2.5,7.7,3.2,7.9,5.1,8.2.3,0,.5,0,.8,0,1.2,0,2.3-.5,3.1-1.5,1-1.3,1.2-2.8.4-4.6-.3-.7-.6-1.4-.8-2.1-.4-1.3-1.1-3.2-2-6.1,5.2-3.1,10.1-6.7,13.7-11.2,1.4-1.7,1.1-4.3-.7-5.6Z"/>
          </g>
          <g>
            <path class="cls-5" d="M413.6,2123.1c11.8-3.1,22.8-1.9,32.9,3.8.4,4.9-1.6,10.4-.7,15.1,7.2,3.6,15.5.6,23.1,2.5.8,4.2-2.3,8-.3,12,3.8,1.3,7.4,0,10,3.2s-1.2,7.9,3.4,11.6c8.9,7.3,23.6,3.3,32.6,10.3s5.8,7.8,8.3,11.4c7.2,10.2,9.1,20.3,14.4,31.2-4.6-14.2-34.2-9.2-43.8-6.8-7.9,2-18.2,9-26.4,6.4-10.1-3.2-9.4-13.4-10.9-22.7-8.1-2.5-16.6-2-24.6-4.4-4.2-.5-7.2-2.4-9.1-5.8-2.6-2.5-3.8-5.7-3.8-9.5-6.4-10.6-26.4,1.6-32.2-14.1s3.9-25.9,9.1-33,16.1-1.6,18-11.3Z"/>
            <path class="cls-5" d="M1473.4,1883.5c-11.9-3.4-23.2-2.6-33.8,2.5-2.3,4.1-3.1,8.5-2.5,13.1-.5,10.8-12.6,11.2-21.6,13.2-11.9,2.6-26.8,2.3-25,18.4.9,8,4.3,9.4-3.4,16-5.1,4.4-13.2,10.5-19.5,13.3s-8.7-.3-11,3-.5,8.8,1.8,10.9c3.4,3.1,10,2.1,14.2,2.1,8.4,0,15.9-.5,23.8-3.1,5.9-1.9,14.2-8,20.5-6.3,7.9,2.1,10.3,7.4,19.8,3.8,14.1-5.4,8.6-18.8,15.2-28.6s8.6-6.7,13.4-9,23.3-5.4,25.7-12.9.4-15-.6-20c-2.1-11.1-11.3-14.8-17-16.4Z"/>
            <path class="cls-5" d="M740.1,1753.4c12.6-7.9,26-13.2,40.3-16,4.6-3.3,8-2.8,10.3,1.3,4.6,3.2,9.4,5.6,14.1,8.7,10.1,6.5,17.5,15.3,30,17.4,3.1,7.2-15.1,16.5-19.8,18.4-12.1,4.9-29.5,9.9-42.5,9-10.4-.8-20.4-5.4-26.6-14.1s-13.1-26.4-5.9-24.7Z"/>
            <path class="cls-5" d="M1268.2,1781.5c-16-.2-31.8,1.7-47.2,5.5-2.9,2.5-5.1,5.6-6.6,9.1-3,5.7-5.3,11.8-6.6,18.1-2.6,12.4-5.2,32.1-19.1,37.6,4.1,2.1,12.6-1,16.1-1.9,12.1-3.1,28.5-6.7,39.1-13.6,16.3-10.7,30.7-30.3,24.3-54.8Z"/>
            <path class="cls-5" d="M1274.8,2027.3c25.9.2,37.3-.8,58,11,4.3,2.4,8.6,4,13.4,5-2.6,12.1-26.3,19.3-36,20.3-19.2,2-33.3-8.5-36.3-28.2.8-.6,1.7-1.2,1-8.1Z"/>
            <path class="cls-5" d="M1909,1956c-11.7.6-23.5,1.3-35.2,1.9-5.1,1.2-10.1,2.4-15.2,3.6-4.3,2.9-7.4,9.5-10.6,13.4-6.7,8-15.4,12.3-22.4,19.4,1.7,14.7,39,7,45.7,4.5,17.1-6.4,40.1-21.6,37.9-42.8Z"/>
            <path class="cls-5" d="M936,2212.6c-22.3-6.5-44.5-7.2-66.6-2.1-5.8,15.6-19.8,18.2-34.9,13.6s-23.6-9.1-35.3-6.1-12.5,6.2-19.1,10.5c-14.3,9.2-32-4-44.3,8.8-5.3,5.5-7.7,12.5-12.4,18s-7.8,4.6-14.7,6.6c-17,4.9-18.8,16.4-25.8,30.7-1.7,3.4-4.1,6.1-5.7,9.6-2.5,5.5-2,14.1-.7,20.1,4.8,20.9,32.5,18.2,48.8,16.5,7.6-.8,13.4-.5,20.5,3.1l10.4,7.1c4.4.6,8.8,1.2,13.2,1.8,9.8-3.3,19-7.7,27.7-13.2,5.2-3.6,10.7-6.3,16.7-8.3,8.1-3.2,13.3-3.5,21.6-1.9,10.6,2.1,19.3,7.2,30.5,5.9s22.7-8.1,31.7-14.7c8.3-6,12.7-11.2,21.3-15.8,5-2.7,8.7-3.9,11.2-9.3,5.1-11-8.7-16.3-5.5-25.6s6.2-4.9,8-7.3,1.8-3.9,2.7-6.1c2.9-6.6,5-6.1,12-7.7,21-4.6,41.8-9.7,62.8-14.2,1.8-4.6-.7-11.2-2-15.9s-2.1-10.2-8.6-11.6-20.9,0-30,.7c-14.9,1.3-29.2,5.2-33.3,6.8Z"/>
            <path class="cls-5" d="M1241.2,2469.5c16.4-11.4,34.2-16.8,53.4-16.2,5.3,3.9,8.3,9.2,8.9,15.7-.7,5.2.6,9.7,4,13.5,6.7,2.6,13.4,5.1,20.2,7.6,5.5,3.6,7.4,8.6,5.5,14.8-1.1,5.8,1.4,9.2,7.6,10.3,13.3,6.2,29.6,7.8,31.3,25.9-.9,5.3-.7,10.5.5,15.7,3.7,4.5,8.2,7.8,13.6,10,5,2.5,8.3,6.5,9.9,11.8.4,5,2.6,9,6.5,12,6.3,2.2,12.6,4.3,18.9,6.4,6.8,4,11.3,9.7,13.4,17.3,4.2,11.5,1.4,18.1-4.5,28.2s-5.5,8-10.7,12.1c-4.4,4.5-9.8,7.3-16,8.4-11.4-1.8-22.4-5.2-32.9-10.1-11.4-2.7-23-4.5-34.7-5.3-14.4-4.2-26.7-12-36.7-23.3-6.8-9.2-15.3-16.3-25.4-21.5-10-3.4-20-7-29.9-10.8-20-8.2-43.8-21.5-35-47.4,3.8-11.3,15.5-19.4,15-32s-3.1-14.5-6.2-19.5c-5.5-6.3-11.4-12.4-17.6-18.2-7.2-6.3-13-13.7-17.3-22.1,6.3-9.1,16.1-11.8,25.2-17.6,7.3,11.3,14,22.7,23.2,32.7s8.9,8.8,9.6,1.6Z"/>
          </g>
          <path class="cls-4" d="M151.9,2047.4c-30.9,19.7-45.9,61.1-34.8,96,2.5,7.8,6.2,15.4,12,21.2,9.4,9.5,23.4,13.3,36.8,13,21-.4,41.6-10.2,55.2-26.2-10-1.7-20-3.4-30.1-5,3.9-4.6,4.4-11.8,1.2-16.9s-9.9-7.7-15.8-6.2c5.9-2.8,5.1-12.4,0-16.5s-12.2-4.4-18.8-4.5c3-4.8,4.9-10.3,5.7-15.9-5-.2-10-.5-15-.7,8.1-10.6,10.4-25.3,3.6-38.2Z"/>
          <path class="cls-4" d="M691.8,1868.4c3.3,29.8,37.5,51.8,65.9,42.5s43-47.3,28-73.3c-2.4,5.2-7,9.4-12.4,11.3-2.5-4.1-6.5-7.4-11-9-.1,6.4-8.3,8.9-14.7,9.9s-14.4,4.9-13,11.2c-3.1-.2-6.3-.5-9.4-.7-2.1,6.8-14.2,6.4-15.8-.5-1,6.6-10.5,10-17.7,8.5Z"/>
          <polygon class="cls-1" points="1598.6 2152.5 1557.5 2158.4 1475.3 2057 1441.5 2040.9 1447.3 2028.9 1487.2 2048 1476.2 1953.1 1425.2 1907.3 1393.1 1892 1397.7 1882.3 1427.9 1896.7 1438.5 1869.4 1447.2 1873.6 1440.6 1902.7 1488.6 1944.7 1504.1 1922.2 1513.8 1926.9 1499.2 1967.7 1512.7 2044.6 1598.6 2152.5"/>
          <polygon class="cls-1" points="260.8 2244.2 282.7 2229.6 357.5 2265.2 381.2 2265.2 381.2 2273.6 353.1 2273.6 385.3 2324.9 427 2337.2 449.5 2337.2 449.5 2344 428.3 2344 429.7 2362.5 423.6 2362.5 419.5 2344 380.5 2333.1 377.7 2350.2 370.9 2350.2 368.2 2322.8 339.5 2282.5 260.8 2244.2"/>
          <polygon class="cls-1" points="863 2261.7 877.6 2283.6 842.1 2358.3 842.1 2382 833.6 2382 833.6 2354 782.4 2386.1 770.1 2427.9 770.1 2450.4 763.2 2450.4 763.2 2429.2 744.8 2430.6 744.8 2424.4 763.2 2420.3 774.2 2381.4 757.1 2378.6 757.1 2371.8 784.4 2369.1 824.8 2340.3 863 2261.7"/>
        </g>
      </g>
    </g>
  </g>
</svg>